<svg width="41" height="41" viewBox="0 0 41 41" fill="none" xmlns="http://www.w3.org/2000/svg">
<path d="M0.621239 15.9381V25.0606C0.621239 27.5303 2.63723 29.5388 5.11618 29.5388H11.5256V35.9254C11.5256 38.394 13.5426 40.4035 16.0205 40.4035H25.1766C27.6556 40.4035 29.6716 38.394 29.6716 35.9254V29.5388H36.0821C38.56 29.5388 40.577 27.5303 40.577 25.0606V15.9381C40.577 13.4684 38.56 11.4599 36.0821 11.4599H29.6716V5.07487C29.6716 2.60516 27.6556 0.59668 25.1766 0.59668H16.02C13.5421 0.59668 11.5251 2.60516 11.5251 5.07487V11.4604H5.11618C2.63671 11.4604 0.621239 13.4684 0.621239 15.9381ZM2.95156 15.9381C2.95156 14.7489 3.92253 13.7815 5.11618 13.7815H11.5256H13.8559H25.0109V11.4599H13.8559V5.07487C13.8559 3.88567 14.8269 2.91832 16.0205 2.91832H25.1766C26.3703 2.91832 27.3413 3.88567 27.3413 5.07487V11.4604V13.7821V24.8955H29.6716V13.7821H36.0821C37.2747 13.7821 38.2456 14.7494 38.2456 15.9386V25.0606C38.2456 26.2498 37.2747 27.2171 36.0821 27.2171H29.6716H27.3413H16.1868V29.5388H27.3413V35.9254C27.3413 37.1146 26.3703 38.0809 25.1766 38.0809H16.02C14.8264 38.0809 13.8554 37.1146 13.8554 35.9254V29.5388V27.2171V16.1042H11.5251V27.2171H5.11618C3.92253 27.2171 2.95156 26.2498 2.95156 25.0606V15.9381Z" fill="#37B5FE"/>
</svg>
