<svg width="202" height="213" viewBox="0 0 202 213" fill="none" xmlns="http://www.w3.org/2000/svg">
<path d="M113.213 121.451C112.458 124.479 113.467 127.32 115.468 127.797C117.468 128.274 119.7 126.206 120.454 123.176C120.773 121.97 120.788 120.703 120.496 119.49L123.526 106.621L117.228 105.335L114.909 118.159C114.082 119.101 113.499 120.232 113.212 121.453L113.213 121.451Z" fill="#ED9DA0"/>
<path d="M139.616 195.046L139.228 203.481L139.617 205.816L138.256 208.539L127.571 209.706L126.988 204.65L132.622 201.732L132.786 196.967L139.616 195.046Z" fill="#ED9DA0"/>
<path d="M128.348 207.759L128.931 208.537L140.121 205.309C140.121 205.309 139.616 210.287 139.616 211.261C139.616 212.235 121.159 212.233 118.382 211.845C115.604 211.456 116.496 208.927 116.496 208.927L128.014 203.469L128.348 207.759V207.759Z" fill="#090814"/>
<path d="M167.455 188.835L169.784 196.951L170.898 199.037L170.48 202.053L160.73 206.582L158.561 201.976L162.966 197.408L160.203 190.234L167.455 188.835Z" fill="#ED9DA0"/>
<path d="M160.844 204.491L161.646 205.042L171.216 198.397C171.216 198.397 172.329 203.277 172.64 204.198C172.951 205.12 155.463 211.034 152.708 211.555C149.954 212.076 149.99 209.395 149.99 209.395L159.156 200.533L160.844 204.491Z" fill="#090814"/>
<path d="M138.861 55.7794L138.453 62.4135L150.826 63.042L146.995 54.3013L138.861 55.7794Z" fill="#ED9DA0"/>
<path d="M138.139 61.421C141.455 62.9022 146.76 62.4968 152.771 61.421L153.712 103.12C153.712 103.12 134.908 106.905 128.442 99.9207L131.845 65.8509L138.141 61.4216L138.139 61.421Z" fill="#37B5FE"/>
<path d="M130.482 100.942L157.032 103.569L170.131 192.633H160.093L142.903 131.605L141.542 200.768H132.353L124.527 116.104L130.482 100.942Z" fill="#090814"/>
<path d="M148.997 58.8664L157.917 64.1521C159.559 65.1254 160.831 66.6187 161.532 68.3963C162.232 70.1738 162.321 72.1344 161.785 73.9683L154.891 97.542C154.891 97.542 166.117 116.851 162.47 118.554C154.272 122.382 142.041 121.45 142.041 121.45L144.775 75.2195L148.997 58.8656L148.997 58.8664Z" fill="#3F3D58"/>
<path d="M138.526 61.2463L128.441 65.1693L126.058 94.2992L119.387 117.766C130.686 121.895 129.631 119.971 129.631 119.971L131.502 79.4797L138.526 61.2482L138.526 61.2463Z" fill="#3F3D58"/>
<path d="M123.793 117.269L123.828 117.11L134.137 69.3692C134.38 68.3082 134.193 67.1939 133.616 66.2713C133.039 65.3487 132.119 64.6934 131.06 64.4496C130 64.2058 128.887 64.3935 127.965 64.9713C127.044 65.5491 126.389 66.4697 126.146 67.5307L114.822 114.134L123.793 117.269V117.269Z" fill="#3F3D58"/>
<path d="M144.231 57.5417C149.775 57.5417 154.27 53.0421 154.27 47.4915C154.27 41.941 149.775 37.4413 144.231 37.4413C138.688 37.4413 134.193 41.941 134.193 47.4915C134.193 53.0421 138.688 57.5417 144.231 57.5417Z" fill="#ED9DA0"/>
<path d="M139.456 34.4703C137.245 35.2482 135.98 35.6949 134.82 36.8114C132.863 38.6997 132.54 41.2229 132.24 43.5677C132.005 45.402 131.701 47.774 132.775 50.483C133.141 51.4075 134.918 55.5272 138.317 56.0469C138.984 56.1491 140.551 56.176 140.1 55.8419C135.919 52.7517 134.134 50.886 134.28 46.1234C134.371 43.1639 138.888 39.9688 141.57 39.3945C142.214 39.2629 142.879 39.272 143.52 39.4215C144.16 39.5709 144.761 39.857 145.281 40.2603C147.535 42.1129 147.439 49.774 149.816 51.3753C150.793 52.0342 150.142 47.3978 150.831 48.1496C152.189 49.6329 151.318 51.9032 151.074 52.7698C149.915 56.8737 148.702 53.8389 147.572 57.3434C146.35 61.1268 157.064 63.6742 157.428 64.5192C158.062 65.9887 149.003 72.9617 151.49 74.1711C154.646 75.7067 157.134 73.7069 158.601 75.4223C159.422 76.3807 158.978 77.3955 160.459 80.3766C160.943 81.3499 161.186 81.8363 161.399 81.819C162.412 81.7375 164.052 73.6195 161.399 66.0571C160.286 62.8838 159.195 59.7744 156.273 57.3439C154.727 56.0586 153.431 55.5962 153.061 54.0961C152.534 51.9511 154.723 51.0364 155.162 47.6536C155.462 45.3399 155.673 42.0306 154.856 39.9094C154.085 37.9061 153.416 36.1677 151.665 34.5912C151.243 34.2116 147.85 31.6375 144.25 31.5651C142.593 31.5318 141.375 33.7936 139.455 34.4695L139.456 34.4703Z" fill="#090814"/>
<path d="M138.968 92.6708C135.869 92.3442 133.198 93.741 133.005 95.7906C132.812 97.8402 135.169 99.7652 138.27 100.092C139.507 100.24 140.762 100.078 141.922 99.6209L155.074 100.832L155.468 94.4097L142.461 93.8973C141.415 93.2083 140.215 92.7877 138.968 92.6727V92.6708Z" fill="#ED9DA0"/>
<path d="M154.992 64.455C156.526 64.2382 158.085 64.613 159.353 65.5035C160.622 66.394 161.505 67.7337 161.824 69.2514C164.132 80.2406 168.275 103.649 161.768 104.04C153.261 104.551 145.094 102.508 145.094 102.508L147.136 90.7537L153.772 90.0722L149.87 71.7933C149.694 70.972 149.689 70.1234 149.856 69.3002C150.022 68.477 150.356 67.6969 150.836 67.0085C151.317 66.3201 151.934 65.738 152.649 65.2987C153.363 64.8594 154.161 64.5721 154.992 64.4548L154.992 64.455Z" fill="#3F3D58"/>
<path d="M98.3401 82.6933L36.3995 101.996C36.1829 102.063 35.9486 102.041 35.7478 101.936C35.547 101.83 35.3962 101.649 35.3284 101.433L14.0758 33.2091C14.0087 32.9922 14.0302 32.7577 14.1356 32.5567C14.241 32.3558 14.4217 32.205 14.638 32.1372L76.5798 12.834C76.7964 12.767 77.0308 12.7886 77.2316 12.8942C77.4323 12.9998 77.5832 13.1807 77.651 13.3973L98.9023 81.6206C98.9696 81.8375 98.9482 82.0723 98.8428 82.2734C98.7375 82.4745 98.5566 82.6255 98.3401 82.6933Z" fill="white"/>
<path d="M98.3401 82.6933L36.3995 101.996C36.1829 102.063 35.9486 102.041 35.7478 101.936C35.547 101.83 35.3962 101.649 35.3284 101.433L14.0758 33.2091C14.0087 32.9922 14.0302 32.7577 14.1356 32.5567C14.241 32.3558 14.4217 32.205 14.638 32.1372L76.5798 12.834C76.7964 12.767 77.0308 12.7886 77.2316 12.8942C77.4323 12.9998 77.5832 13.1807 77.651 13.3973L98.9023 81.6206C98.9696 81.8375 98.9482 82.0723 98.8428 82.2734C98.7375 82.4745 98.5566 82.6255 98.3401 82.6933ZM14.7399 32.4637C14.61 32.5043 14.5014 32.5949 14.4381 32.7156C14.3749 32.8363 14.362 32.9772 14.4025 33.1073L35.6522 101.33C35.6928 101.46 35.7834 101.569 35.904 101.632C36.0246 101.696 36.1654 101.709 36.2954 101.668L98.237 82.3659C98.367 82.3253 98.4755 82.2347 98.5388 82.1141C98.6021 81.9934 98.6149 81.8525 98.5745 81.7223L77.3248 13.4992C77.2842 13.369 77.1936 13.2604 77.073 13.197C76.9524 13.1336 76.8116 13.1207 76.6816 13.1611L14.7399 32.4637Z" fill="#3F3D56"/>
<path d="M48.4543 46.5664L33.0914 51.3538C32.8748 51.4209 32.6404 51.3992 32.4397 51.2936C32.2389 51.1881 32.0881 51.0071 32.0202 50.7905L27.2291 35.4117C27.162 35.1949 27.1835 34.9603 27.2889 34.7594C27.3943 34.5585 27.575 34.4076 27.7914 34.3399L43.1541 29.5516C43.3707 29.4846 43.6051 29.5062 43.8059 29.6118C44.0067 29.7174 44.1575 29.8983 44.2253 30.1149L49.0164 45.4937C49.0838 45.7106 49.0624 45.9454 48.957 46.1465C48.8516 46.3476 48.6708 46.4986 48.4543 46.5664ZM27.8933 34.6664C27.7633 34.707 27.6547 34.7976 27.5915 34.9183C27.5282 35.0389 27.5154 35.1798 27.5558 35.31L32.3464 50.6887C32.3871 50.8188 32.4776 50.9275 32.5982 50.9909C32.7188 51.0543 32.8596 51.0672 32.9896 51.0268L48.3522 46.2393C48.4822 46.1987 48.5907 46.1081 48.654 45.9874C48.7173 45.8668 48.7301 45.7259 48.6897 45.5957L43.8994 30.2168C43.8588 30.0867 43.7682 29.978 43.6476 29.9146C43.527 29.8512 43.3862 29.8383 43.2562 29.8787L27.8933 34.6664Z" fill="#F2F2F2"/>
<path d="M44.6274 49.8247L29.2648 54.6122C29.0698 54.6728 28.8586 54.6534 28.6778 54.5584C28.4969 54.4633 28.361 54.3003 28.3 54.1052L23.511 38.7266C23.4504 38.5314 23.4696 38.32 23.5645 38.139C23.6594 37.958 23.8221 37.8221 24.0171 37.7611L39.3783 32.9747C39.5732 32.914 39.7843 32.9331 39.9652 33.0279C40.1462 33.1227 40.2822 33.2855 40.3435 33.4804L45.1338 48.8593C45.1944 49.0546 45.1751 49.2659 45.0803 49.4469C44.9854 49.6279 44.8224 49.7638 44.6274 49.8247Z" fill="#37B5FE"/>
<path d="M79.6512 47.1621L31.6051 62.134C31.507 62.1705 31.4024 62.1866 31.2978 62.1813C31.1932 62.1759 31.0907 62.1494 30.9967 62.1031C30.9027 62.0569 30.819 61.992 30.7509 61.9123C30.6827 61.8327 30.6315 61.74 30.6003 61.6399C30.5691 61.5398 30.5586 61.4344 30.5695 61.3301C30.5803 61.2259 30.6123 61.1249 30.6634 61.0335C30.7145 60.942 30.7837 60.8619 30.8668 60.7981C30.9498 60.7342 31.045 60.688 31.1465 60.6623L79.1925 45.6903C79.2907 45.6538 79.3953 45.6378 79.4999 45.6431C79.6045 45.6484 79.707 45.675 79.801 45.7212C79.895 45.7675 79.9787 45.8324 80.0468 45.912C80.115 45.9917 80.1662 46.0843 80.1974 46.1844C80.2286 46.2845 80.2391 46.3899 80.2282 46.4942C80.2174 46.5985 80.1854 46.6994 80.1343 46.7909C80.0832 46.8824 80.014 46.9625 79.9309 47.0263C79.8479 47.0901 79.7527 47.1363 79.6512 47.1621Z" fill="#CCCCCC"/>
<path d="M69.6269 55.8518L33.1829 67.2073C32.9915 67.2563 32.7885 67.2298 32.6159 67.1334C32.4434 67.037 32.3143 66.8779 32.2554 66.6891C32.1966 66.5003 32.2124 66.296 32.2996 66.1186C32.3867 65.9411 32.5387 65.804 32.724 65.7355L69.1672 54.3798C69.3586 54.3308 69.5616 54.3572 69.7342 54.4537C69.9068 54.5501 70.0358 54.7091 70.0947 54.898C70.1535 55.0868 70.1378 55.291 70.0506 55.4685C69.9634 55.6459 69.8114 55.783 69.6261 55.8516L69.6269 55.8518Z" fill="#CCCCCC"/>
<path d="M73.683 28.5563L52.4383 35.1762C52.247 35.2247 52.0443 35.198 51.872 35.1016C51.6997 35.0051 51.5709 34.8461 51.5122 34.6575C51.4534 34.4689 51.4691 34.2649 51.5561 34.0876C51.643 33.9103 51.7947 33.7731 51.9797 33.7044L73.2244 27.0846C73.4157 27.036 73.6184 27.0627 73.7907 27.1592C73.963 27.2557 74.0918 27.4146 74.1505 27.6032C74.2093 27.7919 74.1936 27.9958 74.1066 28.1732C74.0196 28.3505 73.868 28.4876 73.683 28.5563Z" fill="#CCCCCC"/>
<path d="M69.9595 35.2816L54.0167 40.2491C53.8253 40.2981 53.6224 40.2716 53.4498 40.1752C53.2772 40.0788 53.1481 39.9197 53.0893 39.7309C53.0304 39.5421 53.0462 39.3379 53.1334 39.1604C53.2206 38.983 53.3725 38.8458 53.5579 38.7773L69.5009 33.8098C69.5991 33.7733 69.7036 33.7573 69.8083 33.7626C69.9129 33.7679 70.0153 33.7945 70.1093 33.8407C70.2034 33.887 70.287 33.9519 70.3551 34.0315C70.4233 34.1112 70.4745 34.2038 70.5057 34.3039C70.5369 34.404 70.5474 34.5094 70.5366 34.6137C70.5257 34.718 70.4938 34.8189 70.4427 34.9104C70.3915 35.0019 70.3223 35.082 70.2393 35.1458C70.1562 35.2096 70.061 35.2558 69.9595 35.2816Z" fill="#CCCCCC"/>
<path d="M82.8073 57.3059L34.7613 72.2779C34.57 72.3264 34.3673 72.2997 34.195 72.2032C34.0227 72.1068 33.8939 71.9478 33.8351 71.7592C33.7764 71.5706 33.7921 71.3666 33.879 71.1893C33.966 71.012 34.1176 70.8748 34.3027 70.8061L82.3487 55.8342C82.54 55.7856 82.7427 55.8123 82.915 55.9088C83.0873 56.0053 83.2161 56.1642 83.2748 56.3528C83.3336 56.5414 83.3179 56.7454 83.2309 56.9227C83.1439 57.1 82.9923 57.2372 82.8073 57.3059Z" fill="#CCCCCC"/>
<path d="M72.7838 65.9958L36.3399 77.3513C36.2417 77.3878 36.1371 77.4038 36.0325 77.3985C35.9279 77.3932 35.8254 77.3666 35.7314 77.3204C35.6374 77.2741 35.5538 77.2092 35.4856 77.1296C35.4175 77.0499 35.3662 76.9573 35.335 76.8572C35.3038 76.7571 35.2934 76.6517 35.3042 76.5474C35.315 76.4431 35.347 76.3422 35.3981 76.2507C35.4492 76.1592 35.5184 76.0791 35.6015 76.0153C35.6845 75.9515 35.7797 75.9053 35.8813 75.8795L72.3242 64.5238C72.4223 64.4875 72.5268 64.4716 72.6313 64.477C72.7358 64.4824 72.8381 64.5091 72.932 64.5553C73.0259 64.6016 73.1094 64.6664 73.1775 64.746C73.2455 64.8256 73.2967 64.9182 73.3279 65.0182C73.3591 65.1182 73.3696 65.2235 73.3588 65.3276C73.348 65.4318 73.3162 65.5326 73.2652 65.6241C73.2143 65.7155 73.1452 65.7956 73.0623 65.8595C72.9794 65.9233 72.8844 65.9697 72.7831 65.9956L72.7838 65.9958Z" fill="#CCCCCC"/>
<path d="M85.9642 67.4502L37.9181 82.4221C37.82 82.4586 37.7154 82.4747 37.6108 82.4694C37.5062 82.464 37.4037 82.4375 37.3097 82.3912C37.2157 82.345 37.132 82.2801 37.0639 82.2004C36.9957 82.1208 36.9445 82.0281 36.9133 81.928C36.8821 81.8279 36.8716 81.7225 36.8825 81.6183C36.8933 81.514 36.9253 81.413 36.9764 81.3216C37.0275 81.2301 37.0967 81.15 37.1798 81.0862C37.2628 81.0224 37.358 80.9762 37.4595 80.9504L85.5055 65.9784C85.6969 65.9298 85.8995 65.9566 86.0718 66.053C86.2441 66.1495 86.3729 66.3085 86.4317 66.4971C86.4905 66.6857 86.4748 66.8897 86.3878 67.067C86.3008 67.2443 86.1492 67.3814 85.9642 67.4502Z" fill="#CCCCCC"/>
<path d="M87.5429 72.5224L39.4969 87.4943C39.3987 87.5308 39.2941 87.5469 39.1895 87.5416C39.0849 87.5363 38.9824 87.5097 38.8884 87.4634C38.7944 87.4172 38.7108 87.3523 38.6426 87.2726C38.5745 87.193 38.5232 87.1003 38.492 87.0002C38.4609 86.9001 38.4504 86.7947 38.4612 86.6905C38.472 86.5862 38.504 86.4852 38.5551 86.3938C38.6062 86.3023 38.6754 86.2222 38.7585 86.1584C38.8416 86.0946 38.9367 86.0484 39.0383 86.0226L87.0843 71.0506C87.2756 71.0021 87.4783 71.0288 87.6506 71.1252C87.8229 71.2217 87.9516 71.3807 88.0104 71.5693C88.0692 71.7579 88.0535 71.9619 87.9665 72.1392C87.8795 72.3165 87.7279 72.4537 87.5429 72.5224Z" fill="#CCCCCC"/>
<path d="M69.8413 86.745C70.5893 86.1878 71.2896 85.5692 71.9348 84.8955C72.5144 84.2872 73.0975 83.6283 73.3799 82.8231C73.5081 82.482 73.5541 82.1154 73.514 81.753C73.4739 81.3907 73.3489 81.043 73.1492 80.7381C72.9541 80.4523 72.6733 80.236 72.3474 80.1205C72.0215 80.005 71.6673 79.9963 71.3362 80.0956C71.0008 80.1971 70.699 80.3874 70.463 80.6466C70.2269 80.9058 70.0653 81.224 69.9953 81.5677C69.9328 81.9494 69.9572 82.3403 70.0667 82.7113C70.1762 83.0823 70.3679 83.4238 70.6277 83.7104C71.67 84.9075 73.6353 85.3118 75.1284 84.93C76.8105 84.4996 78.0552 82.6445 77.1959 80.9784C77.017 80.6319 76.5341 80.8611 76.5234 81.188C76.5083 81.6259 76.6598 82.0533 76.9472 82.3839C77.2346 82.7145 77.6366 82.9237 78.072 82.9692C78.5074 83.0148 78.9438 82.8933 79.2931 82.6293C79.6423 82.3653 79.8784 81.9784 79.9537 81.5469L79.3513 81.7353C79.9353 82.1741 80.6245 82.4513 81.3494 82.539C82.0743 82.6267 82.8094 82.5218 83.4808 82.2348C83.8126 82.0939 84.123 81.907 84.4029 81.6798C84.7402 81.4005 85.2276 81.2824 85.6371 81.1198L88.5886 79.9482C89.0228 79.7754 88.8089 79.0764 88.3712 79.25L85.6977 80.3109C85.253 80.4875 84.8062 80.6605 84.3617 80.8412C84.0443 80.9705 83.8053 81.2422 83.5039 81.4131C82.9359 81.7279 82.29 81.8745 81.6417 81.8358C80.9934 81.7971 80.3694 81.5747 79.8424 81.1945C79.7948 81.1526 79.7372 81.1237 79.6752 81.1106C79.6131 81.0974 79.5488 81.1004 79.4883 81.1194C79.4278 81.1383 79.3732 81.1725 79.3297 81.2186C79.2863 81.2648 79.2554 81.3213 79.2401 81.3829C79.2113 81.6467 79.079 81.8883 78.8722 82.0544C78.6655 82.2205 78.4012 82.2976 78.1376 82.2687C77.874 82.2398 77.6326 82.1072 77.4665 81.9002C77.3004 81.6932 77.2233 81.4287 77.2521 81.1648L76.5813 81.3727C77.1358 82.4474 76.3111 83.7084 75.2958 84.1086C74.6981 84.3161 74.0608 84.3839 73.4327 84.3068C72.8046 84.2296 72.2024 84.0096 71.6723 83.6635C71.4226 83.5074 71.2077 83.3014 71.041 83.0584C70.8744 82.8154 70.7596 82.5407 70.7038 82.2514C70.6506 81.9892 70.6809 81.7171 70.7905 81.4732C70.9 81.2293 71.0833 81.026 71.3145 80.892C71.5167 80.7673 71.7594 80.7261 71.9914 80.7772C72.2235 80.8282 72.4266 80.9675 72.558 81.1657C72.698 81.3951 72.7795 81.6554 72.7953 81.9237C72.8112 82.192 72.7609 82.4601 72.6488 82.7043C72.3704 83.3915 71.8243 83.9585 71.3172 84.4831C70.7385 85.0807 70.1128 85.6311 69.4464 86.129C69.0727 86.4088 69.4638 87.027 69.8415 86.7442L69.8413 86.745Z" fill="#37B5FE"/>
<path d="M200.682 212.999H83.3993C83.2145 212.999 83.0648 212.795 83.0648 212.543C83.0648 212.291 83.2145 212.087 83.3993 212.087H200.682C200.867 212.087 201.016 212.291 201.016 212.543C201.016 212.795 200.867 212.999 200.682 212.999Z" fill="#F2F2F2"/>
</svg>
