<svg width="171" height="255" viewBox="0 0 171 255" fill="none" xmlns="http://www.w3.org/2000/svg">
<g clip-path="url(#clip0_169_323)">
<path d="M0.268988 192.081L0 192.771L149.357 250.919L149.626 250.23L0.268988 192.081Z" fill="#CACACA"/>
<path d="M106.993 0.113537L23.973 21.9767C23.641 22.0706 23.3344 22.238 23.0759 22.4663C22.7874 22.7187 22.5413 23.0156 22.3469 23.3458C22.1334 23.7035 21.9687 24.088 21.8571 24.4892C21.7389 24.9095 21.6784 25.3438 21.6772 25.7803V148.813C21.6775 149.242 21.738 149.67 21.8571 150.083C21.9666 150.467 22.1316 150.833 22.3469 151.17C22.5402 151.477 22.7871 151.746 23.0759 151.965C23.3387 152.166 23.6468 152.298 23.973 152.351L106.993 164.562C107.474 164.636 107.966 164.598 108.431 164.451C108.873 164.309 109.276 164.069 109.612 163.748C109.959 163.413 110.232 163.008 110.412 162.561C110.61 162.067 110.711 161.539 110.708 161.007V3.23756C110.713 2.71621 110.613 2.19918 110.412 1.71777C110.235 1.29534 109.961 0.920586 109.612 0.623946C109.272 0.339353 108.866 0.144506 108.431 0.0572454C107.953 -0.0348727 107.461 -0.0156069 106.993 0.113537Z" fill="#F2F2F2"/>
<path d="M26.0194 25.4291C25.785 25.4979 25.569 25.6181 25.387 25.7809C25.1846 25.959 25.012 26.1684 24.8758 26.401C24.7265 26.654 24.6121 26.926 24.5357 27.2095C24.455 27.5057 24.4155 27.8115 24.4183 28.1184V146.157C24.4149 146.459 24.4545 146.76 24.5357 147.051C24.6106 147.322 24.725 147.581 24.8752 147.819C25.0104 148.036 25.1834 148.226 25.3861 148.382C25.5712 148.524 25.7883 148.62 26.0186 148.659L103.783 159.125C104.114 159.165 104.45 159.129 104.765 159.018C105.067 158.909 105.34 158.734 105.565 158.505C105.799 158.266 105.981 157.981 106.099 157.667C106.229 157.322 106.293 156.956 106.285 156.587V8.16784C106.294 7.80602 106.231 7.4461 106.099 7.10891C105.983 6.81283 105.8 6.54748 105.565 6.33347C105.337 6.12933 105.062 5.98513 104.765 5.91394C104.442 5.83946 104.105 5.84177 103.783 5.92069L26.0194 25.4291Z" fill="white"/>
<path d="M29.3089 30.1483C29.1487 30.1895 29.0014 30.2701 28.8804 30.3828C28.7405 30.5115 28.6228 30.6623 28.5321 30.8293C28.4285 31.0169 28.3496 31.217 28.2973 31.4247C28.2396 31.6473 28.21 31.8762 28.2093 32.1061V48.5465C28.208 48.7644 28.237 48.9815 28.2955 49.1915C28.3443 49.3704 28.4237 49.5395 28.5303 49.6913C28.6199 49.8202 28.74 49.9249 28.8798 49.9962C29.0126 50.0613 29.1627 50.0824 29.3083 50.0566L98.8144 38.0991C99.0438 38.0569 99.2607 37.9638 99.4491 37.8264C99.6522 37.6791 99.8282 37.4978 99.9694 37.2905C100.122 37.0684 100.241 36.8247 100.322 36.5675C100.407 36.2982 100.451 36.0174 100.451 35.7349V15.6041C100.453 15.3385 100.41 15.0746 100.322 14.824C100.246 14.608 100.126 14.4103 99.9694 14.2438C99.8251 14.0889 99.6417 13.9756 99.4385 13.9158C99.2353 13.856 99.0198 13.8518 98.8144 13.9037L29.3089 30.1483Z" fill="#F2F2F2"/>
<path d="M29.3088 58.0595C29.1508 58.0883 29.002 58.1547 28.8751 58.253C28.7357 58.3599 28.6164 58.4908 28.5229 58.6394C28.4195 58.8019 28.3404 58.9786 28.2882 59.1639C28.233 59.3617 28.2063 59.5663 28.2089 59.7717V94.9108C28.2063 95.1116 28.2338 95.3117 28.2905 95.5045C28.3412 95.6776 28.4205 95.841 28.5253 95.9879C28.6183 96.1198 28.7384 96.2306 28.8774 96.3127C29.0088 96.3899 29.1585 96.4304 29.3109 96.43L98.8161 94.4505C99.0405 94.4398 99.2597 94.3797 99.4582 94.2746C99.6582 94.1683 99.8358 94.0243 99.9809 93.8504C100.133 93.6692 100.251 93.4624 100.33 93.2397C100.414 93.0046 100.455 92.7564 100.452 92.5068V49.4799C100.457 49.2368 100.415 48.995 100.33 48.7672C100.253 48.562 100.134 48.375 99.9809 48.2181C99.8344 48.0688 99.6556 47.9551 99.4582 47.8856C99.2514 47.8143 99.0307 47.7927 98.814 47.8226L29.3088 58.0595Z" fill="#F2F2F2"/>
<path d="M35.3987 31.1002L90.1818 18.6929V22.8853L35.3987 34.6951V31.1002Z" fill="white"/>
<path d="M35.4943 38.6558L90.3118 27.5024V29.4499L35.4943 40.3251V38.6558Z" fill="white"/>
<path d="M35.4943 41.6095L90.3118 30.9481V32.8956L35.4943 43.2791V41.6095Z" fill="white"/>
<path d="M35.4943 44.5632L90.3118 34.3937V36.3412L35.4943 46.2328V44.5632Z" fill="white"/>
<path d="M65.8886 95.4575L93.6878 94.6713C93.7846 94.6684 93.8802 94.6494 93.9707 94.615C94.0621 94.5801 94.1476 94.5313 94.2242 94.4704C94.3038 94.4071 94.374 94.3328 94.4326 94.2497C94.4942 94.1618 94.5435 94.0659 94.5793 93.9647C94.6528 93.7599 94.6718 93.5394 94.6345 93.325C94.6166 93.2216 94.5849 93.121 94.5403 93.026C94.4964 92.9323 94.4389 92.8456 94.3698 92.7686L76.044 72.473C75.9644 72.3831 75.8651 72.3128 75.7537 72.2678C75.6491 72.2265 75.5362 72.2105 75.4242 72.2209C75.3081 72.2321 75.1958 72.2684 75.0952 72.3273C74.9832 72.3931 74.8852 72.48 74.8064 72.5832L70.543 78.0872C70.3827 78.2981 70.1821 78.4752 69.9528 78.6082C69.748 78.7265 69.5195 78.7977 69.2837 78.8166C69.0559 78.8338 68.8274 78.7965 68.6169 78.7078C68.3917 78.611 68.1918 78.4638 68.0326 78.2775L55.4673 63.8538C55.3973 63.7717 55.3085 63.7078 55.2084 63.6673C55.1152 63.6307 55.0144 63.6179 54.915 63.6301C54.8103 63.6436 54.71 63.6805 54.6215 63.738C54.5206 63.8035 54.4331 63.8877 54.3638 63.986L32.2878 94.6988C32.2383 94.7684 32.1979 94.8439 32.1675 94.9237C32.136 95.0062 32.1137 95.0919 32.1012 95.1793C32.0883 95.2684 32.0849 95.3587 32.0912 95.4485C32.0975 95.538 32.114 95.6265 32.1402 95.7123C32.1649 95.7938 32.1999 95.8719 32.2444 95.9445C32.2844 96.01 32.3338 96.0693 32.3912 96.1204C32.444 96.1675 32.5046 96.2049 32.5704 96.2309C32.6343 96.2559 32.7026 96.2678 32.7712 96.2658L65.9214 95.3151L65.8886 95.4575Z" fill="white"/>
<path d="M37.6088 61.7485C37.9677 61.7 38.3331 61.7507 38.6652 61.8951C39.0035 62.0452 39.3016 62.2728 39.5354 62.5594C39.7969 62.8807 39.9959 63.248 40.1223 63.6424C40.2684 64.0923 40.3415 64.5626 40.3386 65.0356C40.3387 65.5255 40.2658 66.0127 40.1223 66.4812C39.9906 66.9174 39.7926 67.3309 39.5354 67.7072C39.3025 68.0506 39.008 68.3479 38.6667 68.5841C38.3525 68.802 37.9899 68.94 37.6102 68.9863C37.2512 69.0274 36.8878 68.9696 36.5593 68.8192C36.2264 68.6628 35.9343 68.4314 35.7059 68.1432C35.4501 67.8225 35.2555 67.4576 35.1316 67.0666C34.9901 66.6229 34.9193 66.1597 34.9221 65.694C34.9219 65.2118 34.9925 64.7321 35.1316 64.2704C35.2602 63.8386 35.4533 63.4287 35.7044 63.0546C35.9329 62.7109 36.2221 62.4116 36.5579 62.1713C36.869 61.948 37.2295 61.8029 37.6088 61.7485Z" fill="white"/>
<path d="M29.3089 104.683C29.1553 104.688 29.0057 104.733 28.8751 104.814C28.7364 104.901 28.6169 105.015 28.5241 105.149C28.4196 105.299 28.3403 105.465 28.2894 105.64C28.2332 105.834 28.2061 106.035 28.2089 106.237V141.376C28.2069 141.581 28.2344 141.785 28.2905 141.982C28.3425 142.165 28.4216 142.339 28.5253 142.499C28.6187 142.644 28.7381 142.772 28.8775 142.874C29.005 142.969 29.1539 143.03 29.3109 143.054L98.8141 151.107C99.0317 151.13 99.2515 151.101 99.4562 151.024C99.6542 150.948 99.8327 150.829 99.9789 150.675C100.132 150.514 100.251 150.323 100.328 150.115C100.413 149.886 100.455 149.643 100.45 149.399V106.373C100.454 106.125 100.412 105.877 100.328 105.643C100.249 105.424 100.131 105.221 99.9789 105.044C99.8336 104.874 99.6559 104.736 99.4562 104.636C99.2565 104.537 99.0371 104.483 98.8141 104.48L29.3089 104.683Z" fill="#F2F2F2"/>
<path d="M65.8886 147.362L93.6866 150.589C93.7811 150.6 93.8768 150.595 93.9695 150.573C94.0596 150.552 94.1452 150.516 94.2228 150.465C94.3023 150.413 94.3727 150.349 94.4312 150.274C94.4933 150.194 94.5428 150.105 94.5779 150.01C94.6154 149.911 94.6388 149.807 94.6475 149.701C94.6563 149.593 94.6515 149.485 94.6331 149.378C94.6147 149.27 94.583 149.165 94.5389 149.065C94.4944 148.964 94.4371 148.87 94.3684 148.783L76.044 125.844C75.9647 125.743 75.8659 125.659 75.7535 125.598C75.652 125.542 75.5394 125.51 75.4239 125.503C75.3112 125.497 75.1986 125.517 75.095 125.562C74.9839 125.611 74.8852 125.684 74.8062 125.776L70.543 130.663C70.3821 130.852 70.1802 131.001 69.9528 131.099C69.7418 131.189 69.5125 131.227 69.2837 131.211C69.0489 131.193 68.8211 131.123 68.617 131.006C68.3899 130.875 68.1914 130.7 68.033 130.491L55.4673 114.252C55.3976 114.161 55.3093 114.084 55.2082 114.029C55.118 113.98 55.0174 113.952 54.9147 113.949C54.813 113.947 54.7124 113.97 54.6213 114.015C54.5204 114.065 54.4319 114.137 54.3621 114.225L32.2879 141.754C32.238 141.817 32.1975 141.887 32.1675 141.961C32.1357 142.04 32.1135 142.123 32.1012 142.207C32.0883 142.296 32.0849 142.386 32.0913 142.475C32.0976 142.567 32.1139 142.658 32.14 142.747C32.1651 142.833 32.2 142.916 32.2442 142.995C32.2844 143.066 32.3337 143.133 32.3909 143.192C32.4433 143.246 32.5038 143.292 32.5702 143.328C32.6325 143.362 32.7006 143.384 32.7709 143.392L65.9218 147.226L65.8886 147.362Z" fill="white"/>
<path d="M37.6087 109.571C37.9807 109.577 38.3446 109.68 38.6652 109.868C39.0057 110.07 39.3013 110.34 39.5339 110.66C39.7928 111.014 39.9912 111.409 40.1208 111.828C40.2653 112.289 40.3383 112.769 40.3371 113.252C40.3388 113.732 40.2658 114.209 40.1208 114.667C39.9922 115.078 39.7936 115.464 39.5339 115.808C39.3012 116.117 39.0051 116.373 38.6652 116.559C38.3412 116.734 37.9767 116.82 37.6087 116.809C37.2369 116.794 36.875 116.684 36.5578 116.49C36.2226 116.283 35.9324 116.011 35.7044 115.69C35.4516 115.338 35.2581 114.946 35.1316 114.531C34.9915 114.077 34.9209 113.604 34.922 113.128C34.9204 112.656 34.991 112.186 35.1316 111.735C35.2572 111.327 35.4508 110.944 35.7044 110.602C35.9324 110.291 36.2231 110.032 36.5578 109.841C36.8783 109.661 37.2407 109.567 37.6087 109.571Z" fill="white"/>
<path d="M48.914 46.1501C48.6523 46.1988 48.4051 46.3062 48.1912 46.4644C47.9613 46.6341 47.7627 46.8424 47.6042 47.08C47.432 47.3353 47.2987 47.6147 47.2086 47.9091C47.1124 48.2185 47.0629 48.5406 47.0619 48.8646V181.801C47.0647 182.445 47.2525 183.075 47.603 183.616C47.7619 183.863 47.9601 184.082 48.19 184.265C48.4023 184.435 48.649 184.556 48.9131 184.621L147.505 207.354C147.9 207.449 148.31 207.46 148.71 207.387C149.069 207.319 149.408 207.169 149.699 206.947C149.986 206.725 150.216 206.438 150.369 206.109C150.535 205.746 150.619 205.351 150.615 204.951V31.6132C150.618 31.2092 150.534 30.8092 150.369 30.4405C150.215 30.1017 149.986 29.8022 149.699 29.5646C149.411 29.3274 149.073 29.1578 148.71 29.0682C148.316 28.9723 147.905 28.9601 147.506 29.0324L48.914 46.1501Z" fill="#E6E6E6"/>
<path d="M51.1904 49.5224C50.9235 49.5746 50.6719 49.6863 50.4544 49.8493C50.2212 50.0231 50.0202 50.2361 49.8601 50.4787C49.6872 50.7385 49.5541 51.0226 49.4654 51.3216C49.3711 51.6359 49.3248 51.9627 49.328 52.2908V179.575C49.3235 180.228 49.5083 180.868 49.8601 181.419C50.0205 181.671 50.2212 181.896 50.4544 182.084C50.6701 182.259 50.9212 182.385 51.1904 182.455L143.45 203.008C143.841 203.092 144.246 203.092 144.638 203.008C144.993 202.931 145.324 202.771 145.605 202.541C145.886 202.311 146.107 202.017 146.252 201.684C146.41 201.316 146.487 200.918 146.478 200.518V37.1835C146.486 36.7786 146.409 36.3765 146.252 36.0034C146.107 35.6609 145.886 35.3553 145.607 35.1094C145.327 34.8634 144.996 34.6834 144.638 34.5827C144.251 34.4755 143.846 34.4515 143.45 34.5124L51.1904 49.5224Z" fill="white"/>
<path d="M62.9692 66.8576C62.8449 66.8723 62.7256 66.9153 62.6206 66.9834C62.5102 67.0549 62.4139 67.1462 62.3365 67.2525C62.2531 67.3662 62.1884 67.4925 62.1449 67.6266C62.0983 67.7686 62.0746 67.917 62.0745 68.0664V73.1623C62.0739 73.3071 62.0977 73.451 62.1449 73.5879C62.1871 73.7106 62.252 73.8243 62.3362 73.923C62.4139 74.0143 62.5109 74.0871 62.6203 74.1362C62.7299 74.1842 62.8498 74.2038 62.9689 74.1931L125.111 68.7163C125.28 68.7005 125.444 68.6506 125.593 68.5697C125.742 68.4891 125.876 68.3823 125.987 68.2543C126.101 68.1243 126.191 67.9755 126.254 67.8145C126.318 67.6497 126.352 67.4744 126.352 67.2974V61.2792C126.353 61.1082 126.32 60.9388 126.254 60.7808C126.194 60.6344 126.103 60.5023 125.988 60.3929C125.875 60.286 125.741 60.2048 125.594 60.1549C125.439 60.1025 125.274 60.0848 125.111 60.103L62.9692 66.8576Z" fill="#37B5FE"/>
<path d="M62.6332 83.7868C62.6021 83.7887 62.5719 83.7981 62.5452 83.814C62.5176 83.8306 62.4935 83.8523 62.4741 83.8779C62.4533 83.9055 62.4371 83.9363 62.4263 83.9691C62.4146 84.0043 62.4087 84.0411 62.4087 84.0782V86.0694C62.4086 86.1058 62.4145 86.142 62.4263 86.1764C62.4369 86.2076 62.4531 86.2366 62.4741 86.262C62.4935 86.2855 62.5178 86.3045 62.5452 86.3177C62.5726 86.3308 62.6029 86.3367 62.6332 86.335L125.886 82.9099C125.928 82.9075 125.97 82.8966 126.007 82.8776C126.045 82.8588 126.078 82.8331 126.106 82.802C126.164 82.737 126.197 82.6528 126.197 82.5654V80.218C126.197 80.1748 126.189 80.132 126.173 80.0919C126.157 80.0545 126.135 80.0205 126.106 79.992C126.077 79.9634 126.043 79.9412 126.005 79.9269C125.967 79.9127 125.927 79.9067 125.886 79.9093L62.6332 83.7868Z" fill="#CCCCCC"/>
<path d="M62.6332 90.2632C62.6022 90.2646 62.572 90.2734 62.5452 90.289C62.5176 90.3051 62.4935 90.3264 62.4741 90.3517C62.4533 90.3789 62.4371 90.4095 62.4263 90.442C62.4146 90.4771 62.4087 90.5138 62.4087 90.5508V92.542C62.4086 92.5786 62.4145 92.6149 62.4263 92.6496C62.4368 92.6816 62.453 92.7114 62.4741 92.7375C62.4935 92.7613 62.5177 92.7807 62.5452 92.7944C62.5725 92.8079 62.6027 92.8144 62.6332 92.8132L125.886 90.5364C125.928 90.5351 125.969 90.5251 126.007 90.5071C126.045 90.4889 126.078 90.4639 126.106 90.4332C126.164 90.3691 126.197 90.2855 126.197 90.1987V87.8498C126.197 87.8065 126.189 87.7636 126.173 87.7235C126.157 87.6857 126.135 87.6513 126.106 87.6223C126.078 87.5938 126.044 87.5714 126.007 87.5563C125.969 87.5409 125.928 87.5339 125.886 87.5358L62.6332 90.2632Z" fill="#CCCCCC"/>
<path d="M62.6332 96.7399C62.6023 96.7407 62.5721 96.7489 62.5451 96.764C62.5179 96.7796 62.4941 96.8004 62.475 96.8253C62.4541 96.8521 62.4379 96.8824 62.4272 96.9147C62.4155 96.9496 62.4095 96.9863 62.4095 97.0231V99.0144C62.4094 99.051 62.4154 99.0875 62.4272 99.1222C62.4378 99.1542 62.454 99.1839 62.475 99.2102C62.4943 99.2345 62.5185 99.2544 62.546 99.2688C62.5732 99.2829 62.6035 99.2899 62.6341 99.2894L125.886 98.163C125.928 98.1618 125.969 98.1518 126.007 98.1337C126.044 98.1163 126.078 98.0919 126.106 98.0618C126.134 98.0312 126.157 97.9955 126.172 97.9566C126.189 97.9159 126.197 97.8725 126.197 97.8288V95.4819C126.197 95.4384 126.189 95.3953 126.172 95.355C126.157 95.3169 126.134 95.2822 126.106 95.2527C126.078 95.2232 126.044 95.1997 126.007 95.1835C125.969 95.1677 125.928 95.1604 125.886 95.1618L62.6332 96.7399Z" fill="#CCCCCC"/>
<path d="M62.5214 109.675C62.4907 109.675 62.4605 109.682 62.4333 109.696C62.4058 109.711 62.3817 109.731 62.3623 109.755C62.3416 109.781 62.3257 109.811 62.3153 109.843C62.3036 109.877 62.2977 109.914 62.2977 109.95V111.941C62.2977 111.978 62.3036 112.015 62.3153 112.05C62.3262 112.081 62.3424 112.111 62.3632 112.137C62.3825 112.162 62.4067 112.183 62.4342 112.198C62.4612 112.213 62.4914 112.221 62.5222 112.222L125.732 113.392C125.774 113.393 125.815 113.385 125.853 113.369C125.89 113.353 125.924 113.33 125.952 113.3C125.98 113.271 126.003 113.236 126.018 113.198C126.034 113.157 126.043 113.114 126.042 113.071V110.724C126.043 110.681 126.034 110.637 126.018 110.597C126.003 110.558 125.98 110.522 125.952 110.492C125.924 110.462 125.89 110.438 125.853 110.42C125.815 110.403 125.774 110.394 125.732 110.393L62.5214 109.675Z" fill="#CCCCCC"/>
<path d="M62.5214 116.15C62.4909 116.149 62.4606 116.156 62.4333 116.169C62.4058 116.184 62.3815 116.204 62.3623 116.228C62.3412 116.254 62.325 116.284 62.3145 116.316C62.3033 116.35 62.2976 116.385 62.2977 116.421V118.412C62.2977 118.449 62.3036 118.485 62.3153 118.52C62.3261 118.553 62.3423 118.583 62.3632 118.61C62.3825 118.636 62.4067 118.657 62.4342 118.673C62.4611 118.688 62.4913 118.697 62.5222 118.698L125.732 121.017C125.774 121.019 125.815 121.011 125.853 120.996C125.89 120.98 125.923 120.958 125.951 120.929C125.98 120.9 126.003 120.865 126.018 120.827C126.034 120.787 126.043 120.744 126.042 120.701V118.354C126.043 118.31 126.034 118.267 126.018 118.226C126.003 118.187 125.98 118.151 125.951 118.12C125.924 118.089 125.89 118.064 125.853 118.047C125.815 118.029 125.774 118.019 125.732 118.017L62.5214 116.15Z" fill="#CCCCCC"/>
<path d="M62.5214 122.624C62.4912 122.623 62.4612 122.63 62.4342 122.643C62.4068 122.656 62.3826 122.675 62.3632 122.698C62.3422 122.724 62.326 122.753 62.3153 122.784C62.3036 122.819 62.2976 122.855 62.2977 122.891V124.882C62.2977 124.919 62.3036 124.956 62.3153 124.991C62.3261 125.024 62.3423 125.054 62.3632 125.082C62.3825 125.107 62.4066 125.129 62.4342 125.145C62.461 125.161 62.4912 125.17 62.5222 125.172L125.732 128.64C125.773 128.642 125.813 128.636 125.851 128.622C125.889 128.607 125.923 128.585 125.951 128.556C125.98 128.527 126.003 128.493 126.018 128.456C126.034 128.416 126.043 128.373 126.042 128.33V125.983C126.042 125.896 126.01 125.813 125.951 125.748C125.924 125.717 125.89 125.692 125.853 125.673C125.815 125.655 125.774 125.644 125.732 125.642L62.5214 122.624Z" fill="#CCCCCC"/>
<path d="M62.5214 129.131C62.4911 129.129 62.4608 129.134 62.4333 129.147C62.4062 129.16 62.3823 129.179 62.3632 129.202C62.3421 129.227 62.3259 129.256 62.3153 129.287C62.3035 129.322 62.2976 129.358 62.2977 129.394V131.385C62.2977 131.422 62.3037 131.459 62.3153 131.494C62.3262 131.527 62.3423 131.558 62.3632 131.586C62.3825 131.612 62.4066 131.634 62.4342 131.651C62.4608 131.667 62.491 131.677 62.5222 131.68L125.731 136.302C125.772 136.305 125.813 136.299 125.852 136.285C125.889 136.271 125.922 136.249 125.95 136.222C125.979 136.194 126.002 136.16 126.017 136.123C126.033 136.083 126.042 136.04 126.041 135.997V133.65C126.041 133.606 126.033 133.562 126.017 133.521C126.001 133.481 125.979 133.444 125.95 133.412C125.922 133.381 125.889 133.355 125.852 133.335C125.814 133.316 125.773 133.305 125.731 133.302L62.5214 129.131Z" fill="#CCCCCC"/>
<path d="M62.5214 135.605C62.4912 135.602 62.4609 135.608 62.4333 135.62C62.4062 135.633 62.3822 135.651 62.3632 135.674C62.3422 135.699 62.326 135.727 62.3153 135.758C62.3035 135.792 62.2976 135.828 62.2977 135.864V137.855C62.2978 137.892 62.3037 137.929 62.3153 137.964C62.3262 137.998 62.3423 138.029 62.3632 138.057C62.3825 138.083 62.4066 138.106 62.4342 138.123C62.4608 138.139 62.491 138.15 62.5222 138.152L125.731 143.925C125.772 143.929 125.813 143.924 125.852 143.91C125.889 143.897 125.922 143.876 125.95 143.849C125.979 143.821 126.002 143.788 126.017 143.751C126.033 143.711 126.042 143.669 126.041 143.626V141.279C126.041 141.234 126.033 141.19 126.017 141.149C126.001 141.109 125.979 141.072 125.95 141.039C125.922 141.007 125.889 140.981 125.852 140.961C125.814 140.941 125.773 140.929 125.731 140.925L62.5214 135.605Z" fill="#CCCCCC"/>
<path d="M62.5214 142.08C62.4914 142.076 62.4611 142.081 62.4333 142.093C62.4063 142.104 62.3824 142.122 62.3632 142.145C62.3421 142.169 62.3258 142.198 62.3153 142.228C62.3035 142.262 62.2975 142.298 62.2977 142.335V144.325C62.2978 144.363 62.3037 144.4 62.3153 144.435C62.3262 144.469 62.3424 144.5 62.3632 144.529C62.3825 144.555 62.4066 144.578 62.4342 144.596C62.4607 144.613 62.4909 144.624 62.5222 144.628L125.731 151.548C125.772 151.553 125.813 151.548 125.852 151.536C125.888 151.523 125.922 151.503 125.95 151.477C125.979 151.45 126.002 151.417 126.017 151.38C126.033 151.341 126.042 151.298 126.041 151.255V148.908C126.041 148.863 126.033 148.819 126.017 148.778C126.001 148.737 125.979 148.7 125.95 148.667C125.923 148.634 125.889 148.607 125.852 148.587C125.814 148.566 125.773 148.553 125.731 148.548L62.5214 142.08Z" fill="#CCCCCC"/>
<path d="M62.5214 148.587C62.4915 148.583 62.4612 148.587 62.4333 148.598C62.4065 148.609 62.3825 148.626 62.3632 148.648C62.3419 148.672 62.3257 148.701 62.3153 148.731C62.3035 148.765 62.2975 148.801 62.2977 148.837V150.828C62.2978 150.865 62.3037 150.902 62.3153 150.938C62.3262 150.972 62.3424 151.004 62.3632 151.032C62.3825 151.059 62.4066 151.083 62.4342 151.101C62.4606 151.119 62.4907 151.13 62.5222 151.134L125.731 159.21C125.772 159.215 125.813 159.212 125.852 159.2C125.889 159.188 125.922 159.168 125.95 159.141C125.979 159.114 126.002 159.082 126.017 159.045C126.033 159.006 126.042 158.964 126.041 158.921V156.575C126.041 156.53 126.033 156.486 126.017 156.444C126.001 156.404 125.979 156.366 125.95 156.332C125.923 156.299 125.889 156.272 125.852 156.25C125.815 156.229 125.774 156.215 125.731 156.21L62.5214 148.587Z" fill="#CCCCCC"/>
<path d="M62.5214 155.061C62.4916 155.056 62.4613 155.06 62.4333 155.071C62.4064 155.082 62.3824 155.099 62.3632 155.12C62.342 155.144 62.3258 155.172 62.3153 155.202C62.3035 155.236 62.2975 155.271 62.2977 155.307V157.298C62.2978 157.336 62.3037 157.373 62.3153 157.409C62.3263 157.443 62.3424 157.475 62.3632 157.504C62.3826 157.531 62.4066 157.555 62.4342 157.574C62.4606 157.592 62.4907 157.603 62.5222 157.608L125.731 166.833C125.771 166.839 125.813 166.836 125.852 166.825C125.888 166.814 125.922 166.795 125.95 166.769C125.979 166.743 126.002 166.711 126.017 166.675C126.033 166.636 126.042 166.593 126.041 166.551V164.204C126.041 164.159 126.033 164.115 126.017 164.073C126.001 164.032 125.979 163.994 125.95 163.96C125.922 163.926 125.889 163.898 125.852 163.876C125.815 163.854 125.774 163.84 125.731 163.833L62.5214 155.061Z" fill="#CCCCCC"/>
<path d="M62.5214 161.535C62.4918 161.53 62.4615 161.533 62.4333 161.543C62.4065 161.554 62.3824 161.57 62.3632 161.592C62.342 161.615 62.3258 161.643 62.3153 161.672C62.3035 161.706 62.2975 161.742 62.2977 161.778V163.768C62.2978 163.806 62.3037 163.844 62.3153 163.879C62.3263 163.914 62.3424 163.946 62.3632 163.976C62.3825 164.003 62.4066 164.027 62.4342 164.047C62.4605 164.065 62.4906 164.078 62.5222 164.083L125.731 174.457C125.771 174.463 125.812 174.461 125.852 174.451C125.888 174.44 125.922 174.422 125.95 174.397C125.979 174.371 126.002 174.339 126.017 174.303C126.033 174.264 126.042 174.222 126.041 174.18V171.833C126.041 171.788 126.033 171.743 126.017 171.701C126.001 171.66 125.979 171.621 125.95 171.587C125.923 171.553 125.889 171.524 125.852 171.501C125.815 171.478 125.774 171.463 125.731 171.456L62.5214 161.535Z" fill="#CCCCCC"/>
<path d="M144.777 171.145C148.247 171.684 151.586 172.863 154.624 174.622C161.011 178.319 166.002 184.014 168.825 190.828C170.237 194.221 170.975 197.856 170.999 201.531C171.036 204.923 170.293 208.278 168.825 211.337C167.483 214.092 165.482 216.475 162.999 218.274C160.515 220.052 157.646 221.219 154.624 221.68C151.337 222.172 147.983 221.972 144.778 221.094C141.403 220.188 138.214 218.699 135.354 216.692C132.542 214.729 130.046 212.347 127.954 209.63C125.901 206.98 124.267 204.032 123.108 200.888C121.968 197.814 121.376 194.564 121.358 191.286C121.331 188.238 121.926 185.216 123.108 182.406C124.204 179.807 125.875 177.489 127.997 175.628C130.118 173.766 132.633 172.408 135.354 171.657C138.423 170.818 141.635 170.644 144.777 171.145Z" fill="#37B5FE"/>
<path d="M142.433 206.121L135.227 195.059L139.388 192.587L142.836 197.811L154.901 187.445L159.086 192.119L142.433 206.121Z" fill="white"/>
<path d="M89.8264 193.231L88.5241 175.203L90.863 158.309L84.2204 157.861L82.9092 176.523L86.6149 194.072C86.2993 194.508 86.1261 195.03 86.1192 195.568C86.1122 196.106 86.2718 196.633 86.5761 197.077C86.8803 197.521 87.3144 197.86 87.8189 198.048C88.3235 198.236 88.8738 198.264 89.3947 198.127C89.9156 197.991 90.3816 197.697 90.729 197.286C91.0764 196.875 91.2882 196.367 91.3355 195.831C91.3827 195.295 91.2631 194.758 90.993 194.292C90.7228 193.827 90.3154 193.456 89.8264 193.231Z" fill="#9F616A"/>
<path d="M83.3729 160.289L84.9327 153.545C85.2314 152.254 86.0131 151.125 87.1178 150.391C88.2224 149.657 89.5663 149.373 90.874 149.596C92.1817 149.82 93.3543 150.535 94.1514 151.595C94.9486 152.654 95.3099 153.978 95.1615 155.295L94.3025 162.915L83.3729 160.289Z" fill="#CBCBCB"/>
<path d="M95.6702 251.968L98.8018 251.967L100.291 239.901L95.6698 239.901L95.6702 251.968Z" fill="#9F616A"/>
<path d="M94.8713 250.946L101.038 250.946C102.081 250.946 103.081 251.36 103.818 252.096C104.555 252.832 104.969 253.831 104.969 254.872V255L94.8715 255L94.8713 250.946Z" fill="#2F2E41"/>
<path d="M111.271 251.865L114.282 251.004L112.388 238.994L107.945 240.265L111.271 251.865Z" fill="#9F616A"/>
<path d="M110.222 251.103L116.15 249.406C117.153 249.12 118.228 249.242 119.139 249.747C120.051 250.252 120.724 251.099 121.011 252.1L121.046 252.222L111.339 255L110.222 251.103Z" fill="#2F2E41"/>
<path d="M93.9775 247.588L95.4343 211.035L91.6512 194.494C86.5603 185.967 92.0524 172.366 92.1086 172.229L92.129 172.179L92.1824 172.172L105.499 170.37L105.686 170.799C110.895 182.695 112.341 195.898 109.829 208.638L108.443 215.72L115.294 243.35L108.81 246.588L103.836 233.702L100.474 246.886L93.9775 247.588Z" fill="#2F2E41"/>
<path d="M90.3547 175.619L86.0102 162.902C83.3094 158.151 85.0225 153.933 86.9353 151.231C89.0009 148.313 89.1249 146.677 89.1523 146.658L89.1744 146.644L94.8824 146.471L100.165 151.834C100.497 151.704 103.304 158.614 103.066 158.962L106.756 170.876L90.3547 175.619Z" fill="#CBCBCB"/>
<path d="M125.532 177.819L111.221 166.76L100.184 153.748L95.4185 158.392L108.459 171.818L124.017 180.769C124.131 181.295 124.405 181.773 124.802 182.137C125.198 182.501 125.698 182.734 126.231 182.803C126.765 182.873 127.308 182.776 127.785 182.526C128.262 182.276 128.649 181.885 128.895 181.407C129.141 180.928 129.233 180.385 129.158 179.852C129.084 179.32 128.846 178.823 128.478 178.43C128.11 178.038 127.629 177.768 127.102 177.659C126.575 177.549 126.027 177.605 125.532 177.819Z" fill="#9F616A"/>
<path d="M94.064 163.097L90.0763 157.437C89.3126 156.353 88.9928 155.018 89.1824 153.707C89.3719 152.395 90.0565 151.205 91.0958 150.381C92.1351 149.557 93.4505 149.162 94.7723 149.275C96.0942 149.389 97.3225 150.003 98.2056 150.993L103.314 156.716L94.064 163.097Z" fill="#CBCBCB"/>
<path d="M91.3569 144.912C95.1004 144.912 98.1352 141.88 98.1352 138.141C98.1352 134.401 95.1004 131.369 91.3569 131.369C87.6134 131.369 84.5787 134.401 84.5787 138.141C84.5787 141.88 87.6134 144.912 91.3569 144.912Z" fill="#9F616A"/>
<path d="M98.2491 134.705H87.4861V130.018C89.8484 129.081 92.1601 128.284 93.5575 130.018C94.8018 130.018 95.9951 130.512 96.8749 131.391C97.7548 132.27 98.2491 133.462 98.2491 134.705Z" fill="#2F2E41"/>
<path d="M88.9696 128.895C79.1083 128.626 80.9756 144.855 80.9756 144.855C80.9756 144.855 82.8361 145.101 83.6851 145.245L84.7103 144.669L85.8135 145.391C86.32 145.394 86.8522 145.384 87.4038 145.374L87.9096 144.334L89.0373 145.355C91.0901 145.358 96.6613 145.415 96.6613 145.415C96.6613 145.415 100.019 129.196 88.9696 128.895Z" fill="#2F2E41"/>
<path d="M49.2371 156.702C49.2761 156.384 49.2449 156.062 49.1457 155.758C49.0466 155.454 48.8819 155.176 48.6634 154.942C48.4448 154.708 48.1776 154.525 47.8806 154.406C47.5836 154.287 47.2641 154.234 46.9445 154.252L44.7779 149.746L41.7162 150.394L44.8652 156.713C44.9302 157.248 45.1891 157.74 45.5929 158.096C45.9968 158.453 46.5175 158.649 47.0564 158.647C47.5953 158.646 48.1149 158.447 48.5168 158.088C48.9188 157.73 49.1751 157.236 49.2371 156.702Z" fill="#FFB7B7"/>
<path d="M2.203 209.01L4.75121 210.313L10.9941 201.113L7.23311 199.191L2.203 209.01Z" fill="#FFB7B7"/>
<path d="M1.97892 207.846L6.99735 210.412C7.84549 210.846 8.48665 211.598 8.77945 212.504C9.07225 213.41 8.9929 214.395 8.55887 215.242L8.50568 215.346L0.289062 211.145L1.97892 207.846Z" fill="#2F2E41"/>
<path d="M31.6342 212.574H34.4965L35.8582 201.543L31.6334 201.544L31.6342 212.574Z" fill="#FFB7B7"/>
<path d="M30.9039 211.64L36.5413 211.64C37.4941 211.64 38.4081 212.018 39.0818 212.691C39.7556 213.364 40.1341 214.277 40.1341 215.229V215.345L30.9041 215.346L30.9039 211.64Z" fill="#2F2E41"/>
<path d="M18.2442 122.604C18.2442 122.604 16.3273 121.137 16.3273 124.72L16.0247 136.563L19.4044 147.75L21.3718 144.122L20.5647 136.26L18.2442 122.604Z" fill="#37B5FE"/>
<path d="M38.7495 154.995C38.7495 154.995 40.9723 165.809 38.1567 174.684L36.6007 208.808L30.8955 208.363L28.8949 183.049L26.9685 170.465L22.9674 181.938L9.77852 206.217L3.70276 201.48C3.70276 201.48 10.4357 183.127 15.4097 179.274L17.9043 150.89L38.7495 154.995Z" fill="#2F2E41"/>
<path d="M31.9867 108.145C35.5794 108.145 38.4919 105.235 38.4919 101.646C38.4919 98.0572 35.5794 95.1476 31.9867 95.1476C28.3939 95.1476 25.4814 98.0572 25.4814 101.646C25.4814 105.235 28.3939 108.145 31.9867 108.145Z" fill="#FFB8B8"/>
<path d="M31.5263 103.025C32.3061 103.126 32.8944 102.329 33.1672 101.592C33.44 100.855 33.6479 99.9976 34.3259 99.5996C35.2522 99.0559 36.4373 99.7099 37.4966 99.5305C38.6928 99.3279 39.4706 98.0614 39.5315 96.8508C39.5925 95.6403 39.1103 94.476 38.6371 93.3599L38.4719 94.747C38.494 94.2768 38.395 93.8089 38.1843 93.388C37.9737 92.967 37.6584 92.6071 37.2687 92.3427L37.4816 94.378C37.4363 94.0972 37.3359 93.8281 37.1863 93.5861C37.0366 93.3442 36.8406 93.1341 36.6094 92.968C36.3783 92.802 36.1166 92.6831 35.8393 92.6183C35.5621 92.5535 35.2748 92.5441 34.9939 92.5905L35.0274 93.8032C33.6512 93.5912 32.2567 93.5231 30.8663 93.5998C29.4666 93.6806 28.1271 94.1962 27.0349 95.0745C25.4639 96.4383 24.8901 98.6838 25.0827 100.754C25.2754 102.824 26.1308 104.769 27.0224 106.648C27.2468 107.121 27.557 107.654 28.0772 107.714C28.313 107.718 28.5433 107.642 28.7316 107.501C28.92 107.359 29.0557 107.158 29.1175 106.931C29.2295 106.472 29.2251 105.993 29.1049 105.536C28.9208 104.849 28.862 104.134 28.9313 103.426C29.0549 102.727 29.5585 102.036 30.2641 101.95C30.9696 101.864 31.6916 102.67 31.3524 103.294L31.5263 103.025Z" fill="#2F2E41"/>
<path d="M25.7605 110.509L27.1225 108.62C27.1225 108.62 28.6449 109.137 32.7219 111.164L33.0099 112.934L40.0868 156.418L27.2234 155.864L23.7205 155.789L21.1606 155.735L17.7398 155.662L17.6894 143.164L18.7992 133.59L17.084 124.569C17.084 124.569 14.9258 116.286 23.2383 111.819L25.7605 110.509Z" fill="#37B5FE"/>
<path d="M43.588 154.388L44.0551 156.021L47.3238 153.894L46.0903 152.484L43.588 154.388Z" fill="#CBCBCB"/>
<path d="M28.1937 115.765C28.1937 115.765 33.2609 109.302 36.3235 116.505L37.2891 124.053C37.2891 124.053 40.9992 133.435 41.1108 137.231C41.1108 137.231 43.6262 142.186 43.6031 144.788L47.3241 153.203L43.5076 155.57L32.9452 139.392L28.1937 115.765Z" fill="#37B5FE"/>
</g>
<defs>
<clipPath id="clip0_169_323">
<rect width="171" height="255" fill="white"/>
</clipPath>
</defs>
</svg>
