<svg width="263" height="229" viewBox="0 0 263 229" fill="none" xmlns="http://www.w3.org/2000/svg">
<g clip-path="url(#clip0_169_303)">
<path d="M245.09 228.74V203.931C245.09 203.931 254.774 221.519 245.09 228.74Z" fill="#F1F1F1"/>
<path d="M245.688 228.735L227.382 211.958C227.382 211.958 246.909 216.73 245.688 228.735Z" fill="#F1F1F1"/>
<path d="M125.215 90.0943H124.192V62.1201C124.192 57.8261 122.483 53.7079 119.442 50.6715C116.4 47.6352 112.275 45.9294 107.974 45.9294H48.6071C46.4773 45.9294 44.3684 46.3482 42.4008 47.1618C40.4331 47.9755 38.6453 49.1681 37.1393 50.6715C35.6333 52.175 34.4387 53.9598 33.6237 55.9241C32.8087 57.8885 32.3892 59.9939 32.3892 62.1201V215.589C32.3892 219.883 34.0978 224.001 37.1393 227.037C40.1807 230.074 44.3058 231.779 48.607 231.779H107.974C112.275 231.78 116.4 230.074 119.441 227.037C122.483 224.001 124.192 219.883 124.192 215.589V110.007H125.215V90.0943Z" fill="#3F3D56"/>
<path d="M108.628 50.1416H100.879C101.235 51.0139 101.371 51.9602 101.275 52.8973C101.179 53.8344 100.853 54.7335 100.327 55.5153C99.8003 56.2972 99.0895 56.9378 98.2567 57.3808C97.424 57.8237 96.4949 58.0555 95.5513 58.0555H61.5409C60.5973 58.0555 59.6682 57.8237 58.8355 57.3808C58.0027 56.9378 57.2919 56.2972 56.7656 55.5153C56.2392 54.7334 55.9136 53.8344 55.8173 52.8973C55.721 51.9602 55.857 51.0138 56.2134 50.1416H48.9755C47.3851 50.1416 45.8102 50.4543 44.3407 51.062C42.8713 51.6696 41.5362 52.5602 40.4115 53.683C39.2869 54.8057 38.3948 56.1386 37.7861 57.6056C37.1775 59.0725 36.8642 60.6448 36.8642 62.2326V215.476C36.8642 217.064 37.1774 218.636 37.7861 220.103C38.3947 221.57 39.2869 222.903 40.4115 224.026C41.5361 225.149 42.8713 226.039 44.3407 226.647C45.8101 227.254 47.385 227.567 48.9755 227.567H108.628C111.84 227.567 114.921 226.293 117.192 224.026C119.463 221.758 120.739 218.683 120.739 215.476V62.2327C120.739 60.6448 120.426 59.0726 119.818 57.6056C119.209 56.1387 118.317 54.8057 117.192 53.683C116.067 52.5602 114.732 51.6696 113.263 51.062C111.794 50.4544 110.219 50.1416 108.628 50.1416Z" fill="white"/>
<path d="M78.8018 164.479C94.8231 164.479 107.811 151.513 107.811 135.518C107.811 119.524 94.8231 106.558 78.8018 106.558C62.7805 106.558 49.7927 119.524 49.7927 135.518C49.7927 151.513 62.7805 164.479 78.8018 164.479Z" fill="#37B5FE"/>
<path d="M87.3979 137.497L80.184 144.915C80.027 145.073 79.8394 145.197 79.6327 145.281C79.426 145.364 79.2044 145.404 78.9816 145.399H78.9576C78.7344 145.404 78.5124 145.363 78.3051 145.28C78.0979 145.197 77.9097 145.073 77.7518 144.915L70.5414 137.497C70.5174 137.47 70.4899 137.446 70.4657 137.422C70.178 137.114 70.0243 136.704 70.0385 136.283C70.0527 135.862 70.2335 135.464 70.5414 135.176C70.8706 134.867 71.3055 134.695 71.7574 134.695C72.2093 134.695 72.6442 134.867 72.9735 135.176L77.2469 139.634V128.138C77.2668 127.696 77.457 127.277 77.7779 126.971C78.0988 126.665 78.5257 126.494 78.9696 126.494C79.4136 126.494 79.8405 126.665 80.1614 126.971C80.4823 127.277 80.6725 127.696 80.6924 128.138V139.634L84.9624 135.176C85.2923 134.867 85.7278 134.695 86.1801 134.695C86.6325 134.695 87.068 134.867 87.3979 135.176C87.4221 135.2 87.446 135.224 87.4736 135.251C87.7606 135.56 87.9137 135.969 87.8995 136.39C87.8853 136.811 87.705 137.209 87.3979 137.497Z" fill="white"/>
<path d="M202.766 224.04L198.555 224.04L196.551 207.822L202.767 207.823L202.766 224.04Z" fill="#9F616A"/>
<path d="M203.84 228.116L190.261 228.115V227.944C190.261 226.544 190.818 225.202 191.809 224.212C192.8 223.223 194.144 222.667 195.546 222.667L203.841 222.667L203.84 228.116Z" fill="#2F2E41"/>
<path d="M170.772 223.901L166.703 222.815L168.963 206.632L174.968 208.235L170.772 223.901Z" fill="#9F616A"/>
<path d="M170.755 228.116L157.636 224.613L157.68 224.448C158.043 223.096 158.928 221.943 160.141 221.242C161.355 220.542 162.798 220.352 164.152 220.713L172.165 222.852L170.755 228.116Z" fill="#2F2E41"/>
<path d="M205.189 133.155L208.717 137.247L204.155 220.391H194.41L189.496 156.414L174.262 222.107L164.131 219.627L173.343 136.188L205.189 133.155Z" fill="#2F2E41"/>
<path d="M175.698 79.4756L185.401 74.617L200.323 74.8789L213.164 81.4385L205.858 117.864L209.014 136.856C196.816 139.962 184.046 140.067 171.798 137.162L171.701 137.139C171.701 137.139 178.954 111.447 175.866 103.606L175.698 79.4756Z" fill="#CBCBCB"/>
<path d="M203.769 60.0622C203.758 57.1549 202.593 54.3707 200.528 52.3207C198.463 50.2707 195.668 49.1223 192.755 49.1277C189.843 49.1331 187.052 50.2918 184.995 52.3494C182.938 54.407 181.782 57.1955 181.782 60.1028C181.782 63.01 182.938 65.7985 184.995 67.8561C187.052 69.9138 189.843 71.0725 192.755 71.0778C195.668 71.0832 198.463 69.9349 200.528 67.8848C202.593 65.8348 203.758 63.0506 203.769 60.1434C203.769 60.1163 203.769 60.0892 203.769 60.0622Z" fill="#9F616A"/>
<path d="M187.853 53.791C188.422 53.2559 189.172 52.9539 189.954 52.9447C191.129 52.9066 192.889 53.323 193.638 54.2763C194.239 55.0424 194.268 56.0964 194.271 57.0701L194.277 59.7573C194.279 60.5524 194.288 61.3813 194.65 62.0896C195.012 62.7978 195.843 63.3358 196.601 63.0943C197.501 62.8079 197.897 61.6136 198.817 61.3989C199.508 61.2376 200.218 61.7416 200.519 62.3825C200.775 63.0469 200.859 63.7644 200.765 64.4697C200.678 65.8768 198.657 66.435 198.371 67.8155C198.205 68.614 197.625 70.207 198.371 69.8731C201.806 69.5302 203.314 67.5271 204.886 65.6414L208.432 61.3886C208.837 60.9664 209.148 60.4636 209.345 59.9131C209.433 59.5275 209.465 59.1312 209.439 58.7366C209.42 57.6795 209.391 56.6228 209.353 55.5663C209.319 54.6432 209.087 53.4786 208.181 53.2889C207.71 53.1902 207.087 53.3622 206.838 52.9511C206.745 52.745 206.729 52.5121 206.795 52.2957C206.995 51.2407 207.333 50.1372 206.985 49.1212C206.46 47.5889 204.654 46.9601 203.058 46.671C201.462 46.3819 199.67 46.1332 198.669 44.8596C198.4 44.4367 198.11 44.0286 197.797 43.637C197.338 43.2199 196.773 42.9356 196.164 42.8146C194.183 42.3141 192.09 42.4995 190.228 43.3406C189.456 43.6923 188.68 44.1659 187.833 44.1123C186.954 44.0566 186.202 43.4386 185.334 43.2882C183.931 43.0453 182.59 44.0946 181.899 45.3372C181.042 46.8768 180.963 48.9854 182.173 50.2669C182.777 50.9063 183.678 51.3455 183.929 52.1878C184.031 52.5306 184.007 52.8999 184.097 53.246C184.202 53.5905 184.403 53.8984 184.676 54.1341C184.949 54.3697 185.283 54.5236 185.639 54.5779C186.497 54.7174 187.223 54.325 187.853 53.791Z" fill="#2F2E41"/>
<path d="M174.359 106.034C174.568 106.569 174.892 107.052 175.308 107.449C175.724 107.846 176.222 108.148 176.768 108.332C177.313 108.516 177.892 108.578 178.464 108.514C179.036 108.451 179.587 108.263 180.079 107.963L199.781 118.361L200.419 113.569L181.275 102.299C180.716 101.508 179.887 100.95 178.943 100.729C178 100.507 177.008 100.64 176.155 101.1C175.303 101.56 174.649 102.317 174.318 103.226C173.987 104.135 174.002 105.134 174.359 106.034Z" fill="#9F616A"/>
<path d="M200.614 106.862C200.293 107.339 199.871 107.74 199.378 108.036C198.885 108.333 198.332 108.518 197.76 108.578C197.188 108.639 196.609 108.573 196.065 108.386C195.52 108.199 195.024 107.895 194.61 107.496L173.106 113.338L173.294 107.254L194.684 101.708C195.403 101.058 196.334 100.694 197.304 100.684C198.273 100.675 199.212 101.02 199.942 101.656C200.673 102.291 201.145 103.172 201.269 104.131C201.393 105.091 201.16 106.063 200.614 106.862Z" fill="#9F616A"/>
<path d="M208.971 81.7007L213.164 81.4385C213.164 81.4385 218.072 87.9048 215.35 94.9217C215.35 94.9217 215.821 120.128 204.949 119.092C194.077 118.057 190.641 118.057 190.641 118.057L193.905 108.969L201.206 106.719C201.206 106.719 198.956 96.8094 203.215 92.6866L208.971 81.7007Z" fill="#CBCBCB"/>
<path d="M178.695 81.4793L178.103 78.4468C178.103 78.4468 169.364 78.2418 167.636 91.462C167.636 91.462 159.777 111.247 167.48 113.795C175.183 116.342 183.656 113.795 183.656 113.795L183.018 105.07L174.542 103.343C174.542 103.343 178.921 97.6879 176.536 92.7828L178.695 81.4793Z" fill="#CBCBCB"/>
<path d="M262.656 229H131.775C131.684 229 131.596 228.964 131.532 228.9C131.467 228.835 131.431 228.748 131.431 228.657C131.431 228.566 131.467 228.479 131.532 228.415C131.596 228.35 131.684 228.314 131.775 228.314H262.656C262.748 228.314 262.835 228.35 262.899 228.415C262.964 228.479 263 228.566 263 228.657C263 228.748 262.964 228.835 262.899 228.9C262.835 228.964 262.748 229 262.656 229Z" fill="#CBCBCB"/>
</g>
<defs>
<clipPath id="clip0_169_303">
<rect width="263" height="229" fill="white"/>
</clipPath>
</defs>
</svg>
