<svg width="442" height="442" viewBox="0 0 442 442" fill="none" xmlns="http://www.w3.org/2000/svg">
<g clip-path="url(#clip0_208_5741)">
<mask id="mask0_208_5741" style="mask-type:luminance" maskUnits="userSpaceOnUse" x="0" y="0" width="442" height="442">
<path d="M0 0H442V442H0V0Z" fill="white"/>
</mask>
<g mask="url(#mask0_208_5741)">
<mask id="mask1_208_5741" style="mask-type:luminance" maskUnits="userSpaceOnUse" x="22" y="66" width="398" height="399">
<path d="M419.9 66.3H22.0999V464.1H419.9V66.3Z" fill="white"/>
</mask>
<g mask="url(#mask1_208_5741)">
<path d="M48.1943 317.039C48.1943 317.039 65.9426 294.174 90.185 315.411C80.5884 327.68 53.3258 322.806 48.1943 317.039Z" fill="#FF812C"/>
<path d="M48.1943 317.039C48.1943 317.039 65.9426 294.174 90.185 315.411C80.5884 327.68 53.3258 322.806 48.1943 317.039Z" stroke="black" stroke-width="1.8" stroke-linecap="round" stroke-linejoin="round"/>
<path d="M84.0755 302.988C84.0755 302.988 67.4505 303.726 62.4893 284.008C57.5277 264.29 71.7514 249.661 71.7514 249.661C71.7514 249.661 88.1557 290.904 84.0755 302.988Z" fill="white"/>
<path d="M84.0755 302.988C84.0755 302.988 67.4505 303.726 62.4893 284.008C57.5277 264.29 71.7514 249.661 71.7514 249.661C71.7514 249.661 88.1557 290.904 84.0755 302.988Z" stroke="#1A1A1A" stroke-width="1.8" stroke-linecap="round" stroke-linejoin="round"/>
<path d="M96.2226 308.009C96.2226 308.009 121.057 281.411 99.4923 257.537C84.9767 281.796 86.401 302.938 96.2226 308.009Z" fill="#FF812C"/>
<path d="M96.2226 308.009C96.2226 308.009 121.057 281.411 99.4923 257.537C84.9767 281.796 86.401 302.938 96.2226 308.009Z" stroke="black" stroke-width="1.8" stroke-linecap="round" stroke-linejoin="round"/>
<path d="M99.4923 257.537C99.4923 257.537 93.6005 305.179 96.509 317.881" stroke="#1A1A1A" stroke-width="1.8" stroke-linecap="round" stroke-linejoin="round"/>
<path d="M48.1942 317.039C48.6808 316.857 91.5878 312.781 95.5105 316.896" stroke="#1A1A1A" stroke-width="1.8" stroke-linecap="round" stroke-linejoin="round"/>
<path d="M71.7513 249.66C71.7513 249.66 70.5963 268.934 70.9398 271.874C74.4563 301.989 110.824 331.613 110.824 331.613" stroke="#1A1A1A" stroke-width="1.8" stroke-linecap="round" stroke-linejoin="round"/>
<path d="M212.006 298.192C212.006 298.192 117.153 294.192 90.1269 322.413C131.12 322.413 189.809 329.266 190.712 329.266C191.615 329.266 221.712 310.005 221.712 310.005L212.006 298.192Z" fill="#1C0311"/>
<path d="M212.006 298.192C212.006 298.192 117.153 294.192 90.1269 322.413C131.12 322.413 189.809 329.266 190.712 329.266C191.615 329.266 221.712 310.005 221.712 310.005L212.006 298.192Z" stroke="#1A1A1A" stroke-width="0.9" stroke-linecap="round" stroke-linejoin="round"/>
<path d="M345.477 325.146C345.284 321.475 343.719 298.603 325.358 284.965C306.414 270.895 277.366 272.428 255.738 290.324C254.901 289.303 242.436 274.527 226.687 276.743C210.618 279.005 196.5 298.206 200.063 321.545C248.534 322.746 297.006 323.946 345.477 325.146Z" fill="white"/>
<path d="M345.477 325.146C345.284 321.475 343.719 298.603 325.358 284.965C306.414 270.895 277.366 272.428 255.738 290.324C254.901 289.303 242.436 274.527 226.687 276.743C210.618 279.005 196.5 298.206 200.063 321.545C248.534 322.746 297.006 323.946 345.477 325.146Z" stroke="#1A1A1A" stroke-width="1.8" stroke-linecap="round" stroke-linejoin="round"/>
<path d="M230.268 316.626C230.268 316.626 395.049 316.626 393.244 340.1C391.438 363.575 221.768 354.095 221.768 354.095C221.768 354.095 207.087 395.627 151.185 389.759C95.2828 383.89 115.147 358.158 115.147 358.158C115.147 358.158 96.1858 355.449 75.4186 349.129C54.6518 342.809 59.7701 321.591 121.318 318.431C182.865 315.271 230.268 316.626 230.268 316.626Z" fill="white"/>
<path d="M230.268 316.626C230.268 316.626 395.049 316.626 393.244 340.1C391.438 363.575 221.768 354.095 221.768 354.095C221.768 354.095 207.087 395.627 151.185 389.759C95.2828 383.89 115.147 358.158 115.147 358.158C115.147 358.158 96.1858 355.449 75.4186 349.129C54.6518 342.809 59.7702 321.591 121.318 318.431C182.865 315.271 230.268 316.626 230.268 316.626Z" stroke="#1A1A1A" stroke-width="1.8" stroke-linecap="round" stroke-linejoin="round"/>
<path d="M311.486 345.668L307.302 335.21L309.244 296.538L312.052 310.251L311.486 345.668Z" fill="#1C0311"/>
<path d="M311.486 345.668L307.302 335.21L309.244 296.538L312.052 310.251L311.486 345.668Z" stroke="#1A1A1A" stroke-width="0.9" stroke-linecap="round" stroke-linejoin="round"/>
<path d="M311.486 345.667H358.712V309.203H311.486V345.667Z" fill="white"/>
<path d="M311.486 345.667H358.712V309.203H311.486V345.667Z" stroke="#1A1A1A" stroke-width="1.8" stroke-linecap="round" stroke-linejoin="round"/>
<path d="M358.712 309.203L350.044 320.262H317.464L311.486 309.203" fill="white"/>
<path d="M358.712 309.203L350.044 320.262H317.464L311.486 309.203" stroke="#1A1A1A" stroke-width="1.8" stroke-linecap="round" stroke-linejoin="round"/>
<path d="M358.712 309.203L349.521 296.538H309.245L311.486 309.203H358.712Z" fill="#1C0311"/>
<path d="M358.712 309.203L349.521 296.538H309.245L311.486 309.203H358.712Z" stroke="#1A1A1A" stroke-width="0.9" stroke-linecap="round" stroke-linejoin="round"/>
<path d="M309.245 296.538L303.117 306.962V316.937L311.486 309.204L309.245 296.538Z" fill="white"/>
<path d="M309.245 296.538L303.117 306.962V316.937L311.486 309.204L309.245 296.538Z" stroke="#1A1A1A" stroke-width="1.8" stroke-linecap="round" stroke-linejoin="round"/>
<path d="M359.72 301.358L349.52 296.539L358.712 309.204L367.791 312.342L359.72 301.358Z" fill="white"/>
<path d="M359.72 301.358L349.52 296.539L358.712 309.204L367.791 312.342L359.72 301.358Z" stroke="#1A1A1A" stroke-width="1.8" stroke-linecap="round" stroke-linejoin="round"/>
<path d="M97.2605 232.658C97.2605 227.09 101.775 222.576 107.343 222.576C112.912 222.576 117.426 227.09 117.426 232.658C117.426 238.227 112.912 242.741 107.343 242.741C101.775 242.741 97.2605 238.227 97.2605 232.658Z" fill="#1C0311"/>
<path d="M97.2605 232.658C97.2605 227.09 101.775 222.576 107.343 222.576C112.912 222.576 117.426 227.09 117.426 232.658C117.426 238.227 112.912 242.741 107.343 242.741C101.775 242.741 97.2605 238.227 97.2605 232.658Z" stroke="#1A1A1A" stroke-width="0.9" stroke-linecap="round" stroke-linejoin="round"/>
<path d="M206.646 282.35C206.646 278.393 209.854 275.186 213.811 275.186C217.768 275.186 220.976 278.393 220.976 282.35C220.976 286.307 217.768 289.515 213.811 289.515C209.854 289.515 206.646 286.307 206.646 282.35Z" fill="#1C0311"/>
<path d="M206.646 282.35C206.646 278.393 209.854 275.186 213.811 275.186C217.768 275.186 220.976 278.393 220.976 282.35C220.976 286.307 217.768 289.515 213.811 289.515C209.854 289.515 206.646 286.307 206.646 282.35Z" stroke="#1A1A1A" stroke-width="0.9" stroke-linecap="round" stroke-linejoin="round"/>
<path d="M356.429 277.655C356.429 275.061 358.531 272.959 361.125 272.959C363.718 272.959 365.821 275.061 365.821 277.655C365.821 280.248 363.718 282.35 361.125 282.35C358.531 282.35 356.429 280.248 356.429 277.655Z" fill="#FF812C"/>
<path d="M356.429 277.655C356.429 275.061 358.531 272.959 361.125 272.959C363.718 272.959 365.821 275.061 365.821 277.655C365.821 280.248 363.718 282.35 361.125 282.35C358.531 282.35 356.429 280.248 356.429 277.655Z" stroke="black" stroke-width="1.8" stroke-linecap="round" stroke-linejoin="round"/>
<path d="M276.916 257.978C277.517 261.334 279.197 271.28 276.489 278.697C271.065 293.548 281.333 324.041 308.286 319.836" stroke="#1A1A1A" stroke-width="1.8" stroke-linecap="round" stroke-linejoin="round" stroke-dasharray="10.31 10.31"/>
<path d="M261.347 258.617C263.55 262.549 266.016 272.101 258.935 278.697C230.285 305.387 279.51 318.737 308.454 313.151" stroke="#1A1A1A" stroke-width="1.8" stroke-linecap="round" stroke-linejoin="round" stroke-dasharray="10.7 10.7"/>
</g>
<mask id="mask2_208_5741" style="mask-type:luminance" maskUnits="userSpaceOnUse" x="22" y="66" width="398" height="399">
<path d="M419.9 66.3H22.0999V464.1H419.9V66.3Z" fill="white"/>
</mask>
<g mask="url(#mask2_208_5741)">
<path d="M229.984 257.531H361.316C370.248 257.531 377.489 250.29 377.489 241.358V176.773C377.489 167.84 370.248 160.599 361.316 160.599H229.984C221.052 160.599 213.811 167.84 213.811 176.773V241.358C213.811 250.29 221.052 257.531 229.984 257.531Z" fill="white"/>
<path d="M229.984 257.531H361.316C370.248 257.531 377.489 250.29 377.489 241.358V176.773C377.489 167.84 370.248 160.599 361.316 160.599H229.984C221.052 160.599 213.811 167.84 213.811 176.773V241.358C213.811 250.29 221.052 257.531 229.984 257.531Z" stroke="#1A1A1A" stroke-width="1.8" stroke-linecap="round" stroke-linejoin="round"/>
<path d="M219.408 228.998C219.408 234.15 223.585 238.327 228.738 238.327C233.891 238.327 238.068 234.15 238.068 228.998C238.068 223.845 233.891 219.668 228.738 219.668C223.585 219.668 219.408 223.845 219.408 228.998Z" fill="white"/>
<path d="M219.408 228.998C219.408 234.15 223.585 238.327 228.738 238.327C233.891 238.327 238.068 234.15 238.068 228.998C238.068 223.845 233.891 219.668 228.738 219.668C223.585 219.668 219.408 223.845 219.408 228.998Z" stroke="#1A1A1A" stroke-width="1.8" stroke-linecap="round" stroke-linejoin="round"/>
<path d="M233.704 228.997C233.704 228.125 232.997 227.417 232.124 227.417H225.352C224.479 227.417 223.772 228.125 223.772 228.997C223.772 229.87 224.479 230.578 225.352 230.578H232.124C232.997 230.578 233.704 229.87 233.704 228.997Z" fill="#1C0311"/>
<path d="M233.704 228.997C233.704 228.125 232.997 227.417 232.124 227.417H225.352C224.479 227.417 223.772 228.125 223.772 228.997C223.772 229.87 224.479 230.578 225.352 230.578H232.124C232.997 230.578 233.704 229.87 233.704 228.997Z" stroke="#1A1A1A" stroke-width="0.9" stroke-linecap="round" stroke-linejoin="round"/>
<path d="M219.408 199.17C219.408 204.323 223.585 208.5 228.738 208.5C233.891 208.5 238.068 204.323 238.068 199.17C238.068 194.018 233.891 189.84 228.738 189.84C223.585 189.84 219.408 194.018 219.408 199.17Z" fill="white"/>
<path d="M219.408 199.17C219.408 204.323 223.585 208.5 228.738 208.5C233.891 208.5 238.068 204.323 238.068 199.17C238.068 194.018 233.891 189.84 228.738 189.84C223.585 189.84 219.408 194.018 219.408 199.17Z" stroke="#1A1A1A" stroke-width="1.8" stroke-linecap="round" stroke-linejoin="round"/>
<path d="M225.352 197.59H227.158V195.785C227.158 194.912 227.865 194.205 228.738 194.205C229.61 194.205 230.318 194.912 230.318 195.785V197.59H232.124C232.996 197.59 233.704 198.298 233.704 199.17C233.704 200.043 232.996 200.75 232.124 200.75H230.318V202.556C230.318 203.429 229.61 204.136 228.738 204.136C227.865 204.136 227.158 203.429 227.158 202.556V200.75H225.352C224.479 200.75 223.772 200.043 223.772 199.17C223.772 198.298 224.479 197.59 225.352 197.59Z" fill="#1C0311"/>
<path d="M225.352 197.59H227.158V195.785C227.158 194.912 227.865 194.205 228.738 194.205C229.61 194.205 230.318 194.912 230.318 195.785V197.59H232.124C232.996 197.59 233.704 198.298 233.704 199.17C233.704 200.043 232.996 200.75 232.124 200.75H230.318V202.556C230.318 203.429 229.61 204.136 228.738 204.136C227.865 204.136 227.158 203.429 227.158 202.556V200.75H225.352C224.479 200.75 223.772 200.043 223.772 199.17C223.772 198.298 224.479 197.59 225.352 197.59Z" stroke="#1A1A1A" stroke-width="0.9" stroke-linecap="round" stroke-linejoin="round"/>
<path d="M244.585 223.164L244.279 223.16V224.564C244.279 227.992 247.025 230.78 250.439 230.844C252.125 230.814 253.65 230.118 254.76 229.007C255.898 227.87 256.601 226.299 256.601 224.564V223.491H302.812V223.152L303.118 223.158L303.118 159.189C303.118 155.718 300.304 152.904 296.834 152.904H238.079C241.549 152.904 244.585 155.735 244.585 159.205V223.164Z" fill="white"/>
<path d="M244.585 223.164L244.279 223.16V224.564C244.279 227.992 247.025 230.78 250.439 230.844C252.125 230.814 253.65 230.118 254.76 229.007C255.898 227.87 256.601 226.299 256.601 224.564V223.491H302.812V223.152L303.118 223.158L303.118 159.189C303.118 155.718 300.304 152.904 296.834 152.904H238.079C241.549 152.904 244.585 155.735 244.585 159.205V223.164Z" stroke="#1A1A1A" stroke-width="1.8" stroke-linecap="round" stroke-linejoin="round"/>
<path d="M231.794 159.188V160.377L244.279 160.594L244.585 160.6V159.205C244.585 155.735 241.549 152.904 238.079 152.904C236.344 152.904 234.773 153.607 233.636 154.745C232.498 155.882 231.794 157.453 231.794 159.188Z" fill="#1C0311"/>
<path d="M231.794 159.188V160.377L244.279 160.594L244.585 160.6V159.205C244.585 155.735 241.549 152.904 238.079 152.904C236.344 152.904 234.773 153.607 233.636 154.745C232.498 155.882 231.794 157.453 231.794 159.188Z" stroke="#1A1A1A" stroke-width="0.9" stroke-linecap="round" stroke-linejoin="round"/>
<path d="M250.439 230.844C250.479 230.848 250.521 230.848 250.563 230.848H309.318C311.053 230.848 312.624 230.145 313.762 229.007C314.9 227.87 315.602 226.299 315.602 224.564V223.375L303.118 223.158V223.491H256.601V224.564C256.601 226.299 255.898 227.87 254.76 229.007C253.65 230.118 252.125 230.814 250.439 230.844Z" stroke="#1A1A1A" stroke-width="1.8" stroke-linecap="round" stroke-linejoin="round"/>
<path d="M250.439 230.844C250.479 230.848 250.521 230.848 250.563 230.848H309.318C311.053 230.848 312.624 230.145 313.762 229.007C314.9 227.87 315.602 226.299 315.602 224.564V223.375L303.118 223.158V223.491H256.601V224.564C256.601 226.299 255.898 227.87 254.76 229.007C253.65 230.118 252.125 230.814 250.439 230.844Z" stroke="#1A1A1A" stroke-width="1.8" stroke-linecap="round" stroke-linejoin="round"/>
<path d="M253.314 169.702H295.65V168.106H253.314V169.702Z" fill="white"/>
<path d="M253.314 169.702H295.65V168.106H253.314V169.702Z" stroke="#1A1A1A" stroke-width="1.8" stroke-linecap="round" stroke-linejoin="round"/>
<path d="M253.314 179.843H295.65V178.247H253.314V179.843Z" fill="white"/>
<path d="M253.314 179.843H295.65V178.247H253.314V179.843Z" stroke="#1A1A1A" stroke-width="1.8" stroke-linecap="round" stroke-linejoin="round"/>
<path d="M253.314 189.984H295.65V188.387H253.314V189.984Z" fill="white"/>
<path d="M253.314 189.984H295.65V188.387H253.314V189.984Z" stroke="#1A1A1A" stroke-width="1.8" stroke-linecap="round" stroke-linejoin="round"/>
<path d="M253.314 200.125H295.65V198.528H253.314V200.125Z" fill="white"/>
<path d="M253.314 200.125H295.65V198.528H253.314V200.125Z" stroke="#1A1A1A" stroke-width="1.8" stroke-linecap="round" stroke-linejoin="round"/>
<path d="M253.314 210.265H295.65V208.669H253.314V210.265Z" fill="white"/>
<path d="M253.314 210.265H295.65V208.669H253.314V210.265Z" stroke="#1A1A1A" stroke-width="1.8" stroke-linecap="round" stroke-linejoin="round"/>
<path d="M321.484 211.29H363.319V174.422H321.484V211.29Z" fill="white"/>
<path d="M321.484 211.29H363.319V174.422H321.484V211.29Z" stroke="#1A1A1A" stroke-width="1.8" stroke-linecap="round" stroke-linejoin="round"/>
<g opacity="0.01">
<path d="M321.484 218.664H363.319V215.353H321.484V218.664Z" fill="#1C0311"/>
<path d="M321.484 218.664H363.319V215.353H321.484V218.664Z" stroke="#1A1A1A" stroke-width="0.9" stroke-linecap="round" stroke-linejoin="round"/>
</g>
<g opacity="0.01">
<path d="M321.484 228.655H363.319V225.344H321.484V228.655Z" fill="#1C0311"/>
<path d="M321.484 228.655H363.319V225.344H321.484V228.655Z" stroke="#1A1A1A" stroke-width="0.9" stroke-linecap="round" stroke-linejoin="round"/>
</g>
<g opacity="0.01">
<path d="M321.484 248.638H363.319V245.328H321.484V248.638Z" fill="#1C0311"/>
<path d="M321.484 248.638H363.319V245.328H321.484V248.638Z" stroke="#1A1A1A" stroke-width="0.9" stroke-linecap="round" stroke-linejoin="round"/>
</g>
<path d="M321.61 211.166L363.462 174.452" stroke="#1A1A1A" stroke-width="1.8" stroke-dasharray="4.5 4.5"/>
<path d="M321.527 174.535L363.296 211.248" stroke="#1A1A1A" stroke-width="1.8" stroke-dasharray="4.5 4.5"/>
<path d="M165.034 206.202C152.817 209.346 155.16 224.313 155.16 224.313C155.16 224.313 155.557 245.928 156.262 247.412C156.964 248.889 162.553 250.045 164.483 248.01C165.673 246.756 169.517 221.122 169.517 221.122C169.517 221.122 171.41 209.147 176.154 209.974" fill="white"/>
<path d="M165.034 206.202C152.817 209.346 155.16 224.313 155.16 224.313C155.16 224.313 155.557 245.928 156.262 247.412C156.964 248.889 162.553 250.045 164.483 248.01C165.673 246.756 169.517 221.122 169.517 221.122C169.517 221.122 171.41 209.147 176.154 209.974" stroke="#1A1A1A" stroke-width="1.8" stroke-linecap="round" stroke-linejoin="round"/>
<path d="M163.128 247.035C163.128 247.035 165.382 252.931 164.242 254.888C163.101 256.845 158.268 259.814 154.598 257.382C154.146 257.066 155.587 256.819 155.587 256.819C155.587 256.819 157.53 257.28 158.298 256.118C156.205 254.056 156.399 251.922 156.911 250.535C157.422 249.149 157.154 247.031 157.154 247.031C157.154 247.031 161.701 244.612 163.128 247.035Z" fill="white"/>
<path d="M163.128 247.035C163.128 247.035 165.382 252.931 164.242 254.888C163.101 256.845 158.268 259.814 154.598 257.382C154.146 257.066 155.587 256.819 155.587 256.819C155.587 256.819 157.53 257.28 158.298 256.118C156.205 254.056 156.399 251.922 156.911 250.535C157.422 249.149 157.154 247.031 157.154 247.031C157.154 247.031 161.701 244.612 163.128 247.035Z" stroke="#1A1A1A" stroke-width="1.8" stroke-linecap="round" stroke-linejoin="round"/>
<path d="M157.419 366.11C157.485 364.145 157.7 362.597 157.7 362.597L164.829 361.544L165.257 364.398C163.071 365.824 160.256 366.259 157.419 366.11Z" fill="#1C0311"/>
<path d="M157.419 366.11C157.485 364.145 157.7 362.597 157.7 362.597L164.829 361.544L165.257 364.398C163.071 365.824 160.256 366.259 157.419 366.11Z" stroke="#1A1A1A" stroke-width="0.9" stroke-linecap="round" stroke-linejoin="round"/>
<path d="M166.534 366.716C167.16 366.466 167.56 365.918 167.652 365.295C168.009 365.406 168.419 365.534 168.891 365.682C173.03 366.886 181.608 371.4 181.307 373.131C181.006 374.861 163.173 375.162 159.712 374.109C157.801 373.527 157.387 370.079 157.399 367.107C160.444 367.391 163.489 367.731 166.534 366.716Z" fill="white"/>
<path d="M166.534 366.716C167.16 366.466 167.56 365.918 167.652 365.295C168.009 365.406 168.419 365.534 168.891 365.682C173.03 366.886 181.608 371.4 181.307 373.131C181.006 374.861 163.173 375.162 159.712 374.109C157.801 373.527 157.387 370.079 157.399 367.107C160.444 367.391 163.489 367.731 166.534 366.716Z" stroke="#1A1A1A" stroke-width="1.8" stroke-linecap="round" stroke-linejoin="round"/>
<path d="M165.256 364.398L165.28 364.554C165.28 364.554 165.281 364.554 167.652 365.295C167.56 365.919 167.159 366.466 166.534 366.717C163.489 367.732 160.444 367.391 157.4 367.107C157.401 366.767 157.408 366.433 157.419 366.11C160.256 366.259 163.07 365.824 165.256 364.398Z" fill="white"/>
<path d="M165.256 364.398L165.28 364.554C165.28 364.554 165.281 364.554 167.652 365.295C167.56 365.919 167.159 366.466 166.534 366.717C163.489 367.732 160.444 367.391 157.4 367.107C157.401 366.767 157.408 366.433 157.419 366.11C160.256 366.259 163.07 365.824 165.256 364.398Z" stroke="#1A1A1A" stroke-width="1.8" stroke-linecap="round" stroke-linejoin="round"/>
<path d="M174.399 226.187C174.399 226.187 170.043 356.975 166.738 362.884C161.199 365.083 156.987 363.601 156.987 363.601C156.987 363.601 146.243 291.439 142.214 268.071C138.185 244.703 145.482 224.706 145.482 224.706" fill="#FF812C"/>
<path d="M174.399 226.187C174.399 226.187 170.043 356.975 166.738 362.884C161.199 365.083 156.987 363.601 156.987 363.601C156.987 363.601 146.243 291.439 142.214 268.071C138.185 244.703 145.482 224.706 145.482 224.706" stroke="black" stroke-width="1.8" stroke-linecap="round" stroke-linejoin="round"/>
<path d="M157.699 242.327C157.699 242.327 155.95 248.759 150.382 249.662" stroke="#1A1A1A" stroke-width="1.8" stroke-linecap="round" stroke-linejoin="round"/>
<path d="M140.802 364.466C141.25 362.36 141.653 360.792 141.653 360.792L148.199 362.221C148.199 362.221 148.681 364.198 149.117 365.875C146.319 365.993 143.442 365.523 140.802 364.466Z" fill="#1C0311"/>
<path d="M140.802 364.466C141.25 362.36 141.653 360.792 141.653 360.792L148.199 362.221C148.199 362.221 148.681 364.198 149.117 365.875C146.319 365.993 143.442 365.523 140.802 364.466Z" stroke="#1A1A1A" stroke-width="0.9" stroke-linecap="round" stroke-linejoin="round"/>
<path d="M145.635 369.672C143.562 369.283 141.808 368.256 140.322 366.888C140.476 366.044 140.642 365.22 140.802 364.466C143.442 365.523 146.319 365.993 149.117 365.875C149.413 367.013 149.689 368.013 149.78 368.165C149.817 368.227 150.194 368.541 150.788 369.032C149.82 370.232 147.056 370.027 145.635 369.672Z" fill="white"/>
<path d="M145.635 369.672C143.562 369.283 141.808 368.256 140.322 366.888C140.476 366.044 140.642 365.22 140.802 364.466C143.442 365.523 146.319 365.993 149.117 365.875C149.413 367.013 149.689 368.013 149.78 368.165C149.817 368.227 150.194 368.541 150.788 369.032C149.82 370.232 147.056 370.027 145.635 369.672Z" stroke="#1A1A1A" stroke-width="1.8" stroke-linecap="round" stroke-linejoin="round"/>
<path d="M145.635 369.672C147.056 370.027 149.82 370.232 150.788 369.032C153.802 371.526 162.437 378.618 160.991 380.881C159.261 383.589 141.653 376.968 140.074 375.012C139.261 374.006 139.702 370.276 140.322 366.888C141.808 368.256 143.562 369.283 145.635 369.672Z" fill="white"/>
<path d="M145.635 369.672C147.056 370.027 149.82 370.232 150.788 369.032C153.802 371.526 162.437 378.618 160.991 380.881C159.261 383.589 141.653 376.968 140.074 375.012C139.261 374.006 139.702 370.276 140.322 366.888C141.808 368.256 143.562 369.283 145.635 369.672Z" stroke="#1A1A1A" stroke-width="1.8" stroke-linecap="round" stroke-linejoin="round"/>
<path d="M142.751 223.754C142.751 223.754 132.276 233.423 133.619 262.162C134.962 290.902 140.467 361.088 140.467 361.088C140.467 361.088 143.839 366 149.028 363.256C150.888 359.024 159.997 316.785 166.264 279.997C166.264 279.997 170.698 248.534 171.375 240.408" fill="#FF812C"/>
<path d="M142.751 223.754C142.751 223.754 132.276 233.423 133.619 262.162C134.962 290.902 140.467 361.088 140.467 361.088C140.467 361.088 143.839 366 149.028 363.256C150.888 359.024 159.997 316.785 166.264 279.997C166.264 279.997 170.698 248.534 171.375 240.408" stroke="black" stroke-width="1.8" stroke-linecap="round" stroke-linejoin="round"/>
<path d="M160.115 173.646L163.939 165.276C163.939 165.276 170.533 168.882 173.334 165.166C176.136 161.451 179.874 151.763 174.349 146.619C169.549 142.15 164.858 140.898 160.84 147.17C156.823 153.442 156.39 156.231 153.89 160.434C151.389 164.637 150.557 169.947 150.557 169.947C150.557 169.947 157.424 177.194 160.115 173.646Z" fill="white"/>
<path d="M160.115 173.646L163.939 165.276C163.939 165.276 170.533 168.882 173.334 165.166C176.136 161.451 179.874 151.763 174.349 146.619C169.549 142.15 164.858 140.898 160.84 147.17C156.823 153.442 156.39 156.231 153.89 160.434C151.389 164.637 150.557 169.947 150.557 169.947C150.557 169.947 157.424 177.194 160.115 173.646Z" stroke="#1A1A1A" stroke-width="1.8" stroke-linecap="round" stroke-linejoin="round"/>
<path d="M178.326 152.632C178.326 152.632 177.657 155.121 173.864 153.505C170.071 151.889 169.708 153.739 169.561 154.939C169.414 156.139 167.784 157.697 166.45 156.789C165.115 155.881 162.406 156.462 162.817 158.626C163.227 160.791 161.666 163.035 159.09 161.975C157.004 164.086 151.497 163.207 152.395 159.191C149.103 157.907 149.942 153.274 153.937 151.6C151.348 148.44 152.143 145.72 156.624 146.247C154.378 140.288 163.121 138.25 165.659 141.674C167.572 140.285 173.939 140.905 173.686 144.27C176.458 143.947 183.31 146.411 178.326 152.632Z" fill="#1C0311"/>
<path d="M178.326 152.632C178.326 152.632 177.657 155.121 173.864 153.505C170.071 151.889 169.708 153.739 169.561 154.939C169.414 156.139 167.784 157.697 166.45 156.789C165.115 155.881 162.406 156.462 162.817 158.626C163.227 160.791 161.666 163.035 159.09 161.975C157.004 164.086 151.497 163.207 152.395 159.191C149.103 157.907 149.942 153.274 153.937 151.6C151.348 148.44 152.143 145.72 156.624 146.247C154.378 140.288 163.121 138.25 165.659 141.674C167.572 140.285 173.939 140.905 173.686 144.27C176.458 143.947 183.31 146.411 178.326 152.632Z" stroke="#1A1A1A" stroke-width="0.9" stroke-linecap="round" stroke-linejoin="round"/>
<path d="M175.178 228.372C171.642 216.031 144.634 224.064 144.634 224.064L175.178 228.372Z" fill="white"/>
<path d="M175.178 228.372C171.642 216.031 144.634 224.064 144.634 224.064" stroke="#1A1A1A" stroke-width="1.8" stroke-linecap="round" stroke-linejoin="round"/>
<path d="M174.811 231.359C174.811 231.359 157.485 235.903 147.285 231.719C140.384 228.648 138.98 228.162 138.98 228.162L142.354 223.32L175.618 226.932L175.073 231.371" fill="#1C0311"/>
<path d="M174.811 231.359C174.811 231.359 157.485 235.903 147.285 231.719C140.384 228.648 138.98 228.162 138.98 228.162L142.354 223.32L175.618 226.932L175.073 231.371" stroke="#1A1A1A" stroke-width="0.9" stroke-linecap="round" stroke-linejoin="round"/>
<path d="M161.181 169.741C161.181 169.741 171.7 178.198 175.154 184.251C179.515 191.894 177.871 221.193 177.871 221.193C177.871 221.193 169.781 221.785 169.369 221.151C168.956 220.518 154.437 176.351 154.534 175.554" fill="white"/>
<path d="M161.181 169.741C161.181 169.741 171.7 178.198 175.154 184.251C179.515 191.894 177.871 221.193 177.871 221.193C177.871 221.193 169.781 221.785 169.369 221.151C168.956 220.518 154.437 176.351 154.534 175.554" stroke="#1A1A1A" stroke-width="1.8" stroke-linecap="round" stroke-linejoin="round"/>
<path d="M170.045 187.247C170.481 187.945 185.118 226.261 172.882 229.832C153.304 235.547 140.492 225.964 140.492 225.964C140.492 225.964 139.629 170.23 147.624 169.587C155.618 168.945 161.181 169.741 161.181 169.741" fill="white"/>
<path d="M170.045 187.247C170.481 187.945 185.118 226.261 172.882 229.832C153.304 235.547 140.492 225.964 140.492 225.964C140.492 225.964 139.629 170.23 147.624 169.587C155.618 168.945 161.181 169.741 161.181 169.741" stroke="#1A1A1A" stroke-width="1.8" stroke-linecap="round" stroke-linejoin="round"/>
<path d="M160.454 179.616C160.454 179.616 163.976 185.506 165.189 190.86" stroke="#1A1A1A" stroke-width="1.8" stroke-linecap="round" stroke-linejoin="round"/>
<path d="M176.913 227.07L182.692 244.115L157.798 244.634L147.8 229.118L176.913 227.07Z" fill="white"/>
<path d="M176.913 227.07L182.692 244.115L157.798 244.634L147.8 229.118L176.913 227.07Z" stroke="#1A1A1A" stroke-width="1.8" stroke-linecap="round" stroke-linejoin="round"/>
<path d="M178.477 226.507L184.054 242.086L182.03 242.264L176.945 227.06L178.477 226.507Z" fill="#1C0311"/>
<path d="M178.477 226.507L184.054 242.086L182.03 242.264L176.945 227.06L178.477 226.507Z" stroke="#1A1A1A" stroke-width="0.9" stroke-linecap="round" stroke-linejoin="round"/>
<path d="M182.691 244.115L176.913 227.07L178.472 226.944L184.689 242.793L182.691 244.115Z" fill="#1C0311"/>
<path d="M182.691 244.115L176.913 227.07L178.472 226.944L184.689 242.793L182.691 244.115Z" stroke="#1A1A1A" stroke-width="0.9" stroke-linecap="round" stroke-linejoin="round"/>
<path d="M154.193 227.483C154.193 227.483 164.168 233.007 166.135 233.645C168.103 234.283 168.039 235.899 166.604 235.83C165.168 235.761 161.834 234.092 161.435 234.73C161.036 235.368 168.258 238.367 168.258 238.367C168.258 238.367 167.157 240.908 164.552 240.817C161.947 240.727 159.57 240.366 157.155 237.32C154.741 234.273 149.753 231.748 149.753 231.748" fill="white"/>
<path d="M154.193 227.483C154.193 227.483 164.168 233.007 166.135 233.645C168.103 234.283 168.039 235.899 166.604 235.83C165.168 235.761 161.834 234.092 161.435 234.73C161.036 235.368 168.258 238.367 168.258 238.367C168.258 238.367 167.157 240.908 164.552 240.817C161.947 240.727 159.57 240.366 157.155 237.32C154.741 234.273 149.753 231.748 149.753 231.748" stroke="#1A1A1A" stroke-width="1.8" stroke-linecap="round" stroke-linejoin="round"/>
<path d="M147.233 190.066C147.233 190.066 146.289 201.048 147.402 205.133C148.424 208.887 157.336 227.43 157.336 227.43C157.336 227.43 155.307 234.258 152.342 233.616C139.342 230.802 132.443 212.696 132.194 200.256C131.876 184.404 146.189 170.215 146.189 170.215" fill="white"/>
<path d="M147.233 190.066C147.233 190.066 146.289 201.048 147.402 205.133C148.424 208.887 157.336 227.43 157.336 227.43C157.336 227.43 155.307 234.258 152.342 233.616C139.342 230.802 132.443 212.696 132.194 200.256C131.876 184.404 146.189 170.215 146.189 170.215" stroke="#1A1A1A" stroke-width="1.8" stroke-linecap="round" stroke-linejoin="round"/>
</g>
</g>
</g>
<defs>
<clipPath id="clip0_208_5741">
<rect width="442" height="442" fill="white" transform="matrix(-1 0 0 1 442 0)"/>
</clipPath>
</defs>
</svg>
