<svg width="385" height="377" viewBox="0 0 385 377" fill="none" xmlns="http://www.w3.org/2000/svg">
<mask id="mask0_208_6392" style="mask-type:luminance" maskUnits="userSpaceOnUse" x="0" y="0" width="385" height="377">
<path d="M385 0H0V377H385V0Z" fill="white"/>
</mask>
<g mask="url(#mask0_208_6392)">
<mask id="mask1_208_6392" style="mask-type:luminance" maskUnits="userSpaceOnUse" x="0" y="-21" width="387" height="419">
<path d="M0 -20.9443H387V397.945H0V-20.9443Z" fill="white"/>
</mask>
<g mask="url(#mask1_208_6392)">
<path d="M270.731 254.41C270.731 254.41 276.731 221.168 296.774 221.222L284.055 254.41H270.731Z" fill="#1C0311"/>
<path d="M270.731 254.41C270.731 254.41 276.731 221.168 296.774 221.222L284.055 254.41H270.731Z" stroke="#1A1A1A" stroke-linecap="round" stroke-linejoin="round"/>
<path d="M71.6583 234.315C71.6583 234.315 64.7513 218.965 69.3817 203.524C86.8357 216.337 103.227 255.232 103.227 255.232H79.8536L71.6583 234.315Z" fill="white"/>
<path d="M71.6583 234.315C71.6583 234.315 64.7513 218.965 69.3817 203.524C86.8357 216.337 103.227 255.232 103.227 255.232H79.8536L71.6583 234.315Z" stroke="#1A1A1A" stroke-width="2" stroke-linecap="round" stroke-linejoin="round"/>
<path d="M54.2045 255.231C54.2045 255.231 41.8605 254.391 40.3428 238.403C56.9364 231.723 68.1674 255.231 68.1674 255.231H54.2045Z" fill="#1C0311"/>
<path d="M54.2045 255.231C54.2045 255.231 41.8605 254.391 40.3428 238.403C56.9364 231.723 68.1674 255.231 68.1674 255.231H54.2045Z" stroke="#1A1A1A" stroke-linecap="round" stroke-linejoin="round"/>
<path d="M52.3833 223.291C52.3833 223.291 55.8231 250.267 66.0425 255.231H86.38C86.38 255.231 73.4293 228.329 52.3833 223.291Z" fill="white"/>
<path d="M52.3833 223.291C52.3833 223.291 55.8231 250.267 66.0425 255.231H86.38C86.38 255.231 73.4293 228.329 52.3833 223.291Z" stroke="#1A1A1A" stroke-width="2" stroke-linecap="round" stroke-linejoin="round"/>
<path d="M40.3428 238.403C40.3428 238.403 57.3408 253.662 63.3106 255.231" stroke="white" stroke-width="2" stroke-linecap="round" stroke-linejoin="round"/>
<path d="M52.3833 223.291C52.3833 223.291 71.2031 253.224 76.3634 255.231" stroke="#1A1A1A" stroke-width="2" stroke-linecap="round" stroke-linejoin="round"/>
<path d="M69.3821 203.524C69.3821 203.524 85.7735 249.61 91.6926 255.232" stroke="#1A1A1A" stroke-width="2" stroke-linecap="round" stroke-linejoin="round"/>
<path d="M277.766 254.41C277.766 254.41 278.373 216.337 323.904 212.723C328.458 233.092 308.12 254.41 308.12 254.41H277.766Z" fill="white"/>
<path d="M277.766 254.41C277.766 254.41 278.373 216.337 323.904 212.723C328.458 233.092 308.12 254.41 308.12 254.41H277.766Z" stroke="#1A1A1A" stroke-width="2" stroke-linecap="round" stroke-linejoin="round"/>
<path d="M297.8 254.41C297.8 254.41 306.451 221.091 344.698 219.453C344.698 233.831 338.703 250.842 331.797 254.41H297.8Z" fill="white"/>
<path d="M297.8 254.41C297.8 254.41 306.451 221.091 344.698 219.453C344.698 233.831 338.703 250.842 331.797 254.41H297.8Z" stroke="#1A1A1A" stroke-width="2" stroke-linecap="round" stroke-linejoin="round"/>
<path d="M51.9285 254.41H331.797C331.797 254.41 340.815 304.934 244.939 305.591C226.77 316.761 168.513 327.274 153.628 300.991C125.994 315.447 28.2518 284.704 51.9285 254.41Z" fill="white"/>
<path d="M51.9285 254.41H331.797C331.797 254.41 340.815 304.934 244.939 305.591C226.77 316.761 168.513 327.274 153.628 300.991C125.994 315.447 28.2518 284.704 51.9285 254.41Z" stroke="#1A1A1A" stroke-width="2" stroke-linecap="round" stroke-linejoin="round"/>
<path d="M341.738 223.318C341.738 223.318 324.056 248.368 313.129 254.41Z" fill="white"/>
<path d="M341.738 223.318C341.738 223.318 324.056 248.368 313.129 254.41" stroke="#1A1A1A" stroke-width="2" stroke-linecap="round" stroke-linejoin="round"/>
<path d="M318.593 219.453C318.593 219.453 292.943 245.421 289.756 254.41" stroke="#1A1A1A" stroke-width="2" stroke-linecap="round" stroke-linejoin="round"/>
<path d="M346.657 196.629C346.657 199.57 344.455 201.954 341.738 201.954C339.021 201.954 336.819 199.57 336.819 196.629C336.819 193.689 339.021 191.305 341.738 191.305C344.455 191.305 346.657 193.689 346.657 196.629Z" fill="#1C0311"/>
<path d="M346.657 196.629C346.657 199.57 344.455 201.954 341.738 201.954C339.021 201.954 336.819 199.57 336.819 196.629C336.819 193.689 339.021 191.305 341.738 191.305C344.455 191.305 346.657 193.689 346.657 196.629Z" stroke="#1A1A1A" stroke-linecap="round" stroke-linejoin="round"/>
</g>
<mask id="mask2_208_6392" style="mask-type:luminance" maskUnits="userSpaceOnUse" x="-50" y="0" width="490" height="377">
<path d="M-50 0H440V377H-50V0Z" fill="white"/>
</mask>
<g mask="url(#mask2_208_6392)">
<path d="M304.216 190.238V78.7289C304.216 76.7085 303.934 74.7617 303.415 72.9336H65.0234C64.5041 74.7617 64.2222 76.7085 64.2222 78.7289V190.238C64.2222 194.694 65.5887 198.792 67.8744 202.046H300.564C302.85 198.792 304.216 194.694 304.216 190.238Z" fill="white"/>
<path d="M304.216 190.238V78.7289C304.216 76.7085 303.934 74.7617 303.415 72.9336H65.0234C64.5041 74.7617 64.2222 76.7085 64.2222 78.7289V190.238C64.2222 194.694 65.5887 198.792 67.8744 202.046H300.564C302.85 198.792 304.216 194.694 304.216 190.238Z" stroke="#1A1A1A" stroke-width="2" stroke-linecap="round" stroke-linejoin="round"/>
<path d="M304.218 78.7294V190.238C304.218 194.694 302.849 198.791 300.564 202.045H281.595V72.9341H303.416C303.934 74.7615 304.218 76.7086 304.218 78.7294Z" fill="#FF812C"/>
<path d="M304.218 78.7294V190.238C304.218 194.694 302.849 198.791 300.564 202.045H281.595V72.9341H303.416C303.934 74.7615 304.218 76.7086 304.218 78.7294Z" stroke="black" stroke-width="2" stroke-linecap="round" stroke-linejoin="round"/>
<path d="M67.874 202.045C71.0126 206.514 75.8872 209.388 81.3658 209.388H287.073C292.552 209.388 297.426 206.514 300.564 202.045H67.874Z" fill="#1C0311"/>
<path d="M67.874 202.045C71.0126 206.514 75.8872 209.388 81.3658 209.388H287.073C292.552 209.388 297.426 206.514 300.564 202.045H67.874Z" stroke="#1A1A1A" stroke-linecap="round" stroke-linejoin="round"/>
<path d="M287.073 59.5786H81.3662C73.7066 59.5786 67.2219 65.1907 65.0234 72.9335H303.415C301.217 65.1907 294.733 59.5786 287.073 59.5786Z" fill="#1C0311"/>
<path d="M287.073 59.5786H81.3662C73.7066 59.5786 67.2219 65.1907 65.0234 72.9335H303.415C301.217 65.1907 294.733 59.5786 287.073 59.5786Z" stroke="#1A1A1A" stroke-linecap="round" stroke-linejoin="round"/>
<path d="M124.216 191.204H93.6933C89.3561 191.204 85.8403 187.687 85.8403 183.349V138.75C85.8403 134.411 89.3561 130.895 93.6933 130.895H124.216C128.554 130.895 132.069 134.411 132.069 138.75V183.349C132.069 187.687 128.554 191.204 124.216 191.204Z" fill="white"/>
<path d="M124.216 191.204H93.6933C89.3561 191.204 85.8403 187.687 85.8403 183.349V138.75C85.8403 134.411 89.3561 130.895 93.6933 130.895H124.216C128.554 130.895 132.069 134.411 132.069 138.75V183.349C132.069 187.687 128.554 191.204 124.216 191.204Z" stroke="#1A1A1A" stroke-width="2" stroke-linecap="round" stroke-linejoin="round"/>
<path d="M91.8343 67.3486C91.8343 65.2618 90.1432 63.5706 88.0572 63.5706C85.9711 63.5706 84.28 65.2618 84.28 67.3486C84.28 69.4354 85.9711 71.1266 88.0572 71.1266C90.1432 71.1266 91.8343 69.4354 91.8343 67.3486Z" fill="white"/>
<path d="M91.8343 67.3486C91.8343 65.2618 90.1432 63.5706 88.0572 63.5706C85.9711 63.5706 84.28 65.2618 84.28 67.3486C84.28 69.4354 85.9711 71.1266 88.0572 71.1266C90.1432 71.1266 91.8343 69.4354 91.8343 67.3486Z" stroke="#1A1A1A" stroke-width="2" stroke-linecap="round" stroke-linejoin="round"/>
<path d="M113.84 67.3486C113.84 65.2618 112.149 63.5706 110.063 63.5706C107.977 63.5706 106.286 65.2618 106.286 67.3486C106.286 69.4354 107.977 71.1266 110.063 71.1266C112.149 71.1266 113.84 69.4354 113.84 67.3486Z" fill="white"/>
<path d="M113.84 67.3486C113.84 65.2618 112.149 63.5706 110.063 63.5706C107.977 63.5706 106.286 65.2618 106.286 67.3486C106.286 69.4354 107.977 71.1266 110.063 71.1266C112.149 71.1266 113.84 69.4354 113.84 67.3486Z" stroke="#1A1A1A" stroke-width="2" stroke-linecap="round" stroke-linejoin="round"/>
<path d="M135.847 67.3486C135.847 65.2618 134.156 63.5706 132.07 63.5706C129.984 63.5706 128.292 65.2618 128.292 67.3486C128.292 69.4354 129.984 71.1266 132.07 71.1266C134.156 71.1266 135.847 69.4354 135.847 67.3486Z" fill="white"/>
<path d="M135.847 67.3486C135.847 65.2618 134.156 63.5706 132.07 63.5706C129.984 63.5706 128.292 65.2618 128.292 67.3486C128.292 69.4354 129.984 71.1266 132.07 71.1266C134.156 71.1266 135.847 69.4354 135.847 67.3486Z" stroke="#1A1A1A" stroke-width="2" stroke-linecap="round" stroke-linejoin="round"/>
<path d="M71.0406 161.681C71.0406 165.435 67.9987 168.478 64.2464 168.478C60.494 168.478 57.4521 165.435 57.4521 161.681C57.4521 157.928 60.494 154.885 64.2464 154.885C67.9987 154.885 71.0406 157.928 71.0406 161.681Z" fill="white"/>
<path d="M71.0406 161.681C71.0406 165.435 67.9987 168.478 64.2464 168.478C60.494 168.478 57.4521 165.435 57.4521 161.681C57.4521 157.928 60.494 154.885 64.2464 154.885C67.9987 154.885 71.0406 157.928 71.0406 161.681Z" stroke="#1A1A1A" stroke-width="2" stroke-linecap="round" stroke-linejoin="round"/>
<path d="M341.456 167.068V167.145C341.456 167.724 340.985 168.194 340.406 168.194H328.056C327.474 168.194 327.003 167.724 327.003 167.145V167.068C327.003 166.486 327.474 166.015 328.056 166.015H340.406C340.985 166.015 341.456 166.486 341.456 167.068Z" fill="white"/>
<path d="M341.456 167.068V167.145C341.456 167.724 340.985 168.194 340.406 168.194H328.056C327.474 168.194 327.003 167.724 327.003 167.145V167.068C327.003 166.486 327.474 166.015 328.056 166.015H340.406C340.985 166.015 341.456 166.486 341.456 167.068Z" stroke="#1A1A1A" stroke-width="2" stroke-linecap="round" stroke-linejoin="round"/>
<path d="M346.028 147.075C346.028 149.274 345.427 151.332 344.382 153.093C344.164 153.46 339.303 166.015 339.303 166.015H329.08C329.08 166.015 324.391 153.602 324.208 153.308C323.082 151.5 322.432 149.365 322.432 147.075C322.432 140.557 327.713 135.274 334.23 135.274C340.746 135.274 346.028 140.557 346.028 147.075Z" fill="white"/>
<path d="M346.028 147.075C346.028 149.274 345.427 151.332 344.382 153.093C344.164 153.46 339.303 166.015 339.303 166.015H329.08C329.08 166.015 324.391 153.602 324.208 153.308C323.082 151.5 322.432 149.365 322.432 147.075C322.432 140.557 327.713 135.274 334.23 135.274C340.746 135.274 346.028 140.557 346.028 147.075Z" stroke="#1A1A1A" stroke-width="2" stroke-linecap="round" stroke-linejoin="round"/>
<path d="M339.263 168.194L338.224 174.845C338.224 176.013 337.412 176.96 336.41 176.96H332.046C331.047 176.96 330.235 176.013 330.235 174.845L329.196 168.194H339.263Z" fill="white"/>
<path d="M339.263 168.194L338.224 174.845C338.224 176.013 337.412 176.96 336.41 176.96H332.046C331.047 176.96 330.235 176.013 330.235 174.845L329.196 168.194H339.263Z" stroke="#1A1A1A" stroke-width="2" stroke-linecap="round" stroke-linejoin="round"/>
<path d="M329.559 170.385H338.9" stroke="#1A1A1A" stroke-width="2" stroke-linecap="round" stroke-linejoin="round"/>
<path d="M330.034 173.042H338.426" stroke="#1A1A1A" stroke-width="2" stroke-linecap="round" stroke-linejoin="round"/>
<path d="M332.068 166.015C332.068 166.015 326.163 148.616 327.105 147.296C328.048 145.977 329.397 149.668 330.962 149.429C332.526 149.19 331.879 146.257 333.638 146.228C335.397 146.199 334.305 149.222 336.088 149.559C337.871 149.895 337.886 146.6 339.875 146.574C341.864 146.546 337.499 162.559 336.494 166.015" stroke="#1A1A1A" stroke-width="2" stroke-linecap="round" stroke-linejoin="round"/>
<path d="M331.039 166.015L331.146 163.231H337.185L337.499 166.015H331.039Z" fill="#1C0311"/>
<path d="M331.039 166.015L331.146 163.231H337.185L337.499 166.015H331.039Z" stroke="#1A1A1A" stroke-linecap="round" stroke-linejoin="round"/>
<path d="M76.2056 113.945L80.2563 114.821" stroke="#1A1A1A" stroke-width="2" stroke-linecap="round" stroke-linejoin="round"/>
<path d="M81.4608 119.639L80.2566 114.821C69.6367 127.086 79.7091 139.023 79.7091 139.023" stroke="#1A1A1A" stroke-width="2" stroke-linecap="round" stroke-linejoin="round"/>
<path d="M82.5558 139.789C82.5558 138.519 81.5264 137.49 80.2566 137.49C78.9867 137.49 77.9573 138.519 77.9573 139.789C77.9573 141.059 78.9867 142.089 80.2566 142.089C81.5264 142.089 82.5558 141.059 82.5558 139.789Z" fill="#1C0311"/>
<path d="M82.5558 139.789C82.5558 138.519 81.5264 137.49 80.2566 137.49C78.9867 137.49 77.9573 138.519 77.9573 139.789C77.9573 141.059 78.9867 142.089 80.2566 142.089C81.5264 142.089 82.5558 141.059 82.5558 139.789Z" stroke="#1A1A1A" stroke-linecap="round" stroke-linejoin="round"/>
<path d="M144.194 79.3033V82.9536C131.823 74.7402 122.736 82.9536 122.736 82.9536" stroke="#1A1A1A" stroke-width="2" stroke-linecap="round" stroke-linejoin="round"/>
<path d="M141.184 84.2159L144.195 82.9536" stroke="#1A1A1A" stroke-width="2" stroke-linecap="round" stroke-linejoin="round"/>
<path d="M125.008 81.9421C125.008 81.0348 124.273 80.2993 123.366 80.2993C122.459 80.2993 121.723 81.0348 121.723 81.9421C121.723 82.8493 122.459 83.5848 123.366 83.5848C124.273 83.5848 125.008 82.8493 125.008 81.9421Z" fill="#1C0311"/>
<path d="M125.008 81.9421C125.008 81.0348 124.273 80.2993 123.366 80.2993C122.459 80.2993 121.723 81.0348 121.723 81.9421C121.723 82.8493 122.459 83.5848 123.366 83.5848C124.273 83.5848 125.008 82.8493 125.008 81.9421Z" stroke="#1A1A1A" stroke-linecap="round" stroke-linejoin="round"/>
<path d="M74.7004 104.159C74.7004 116.429 64.7555 126.376 52.4889 126.376C40.2216 126.376 30.2773 116.429 30.2773 104.159C30.2773 91.889 40.2216 81.9421 52.4889 81.9421C64.7555 81.9421 74.7004 91.889 74.7004 104.159Z" fill="white"/>
<path d="M74.7004 104.159C74.7004 116.429 64.7555 126.376 52.4889 126.376C40.2216 126.376 30.2773 116.429 30.2773 104.159C30.2773 91.889 40.2216 81.9421 52.4889 81.9421C64.7555 81.9421 74.7004 91.889 74.7004 104.159Z" stroke="#1A1A1A" stroke-width="2" stroke-linecap="round" stroke-linejoin="round"/>
<path d="M294.624 140.181H275.574V130.057H294.624V140.181Z" fill="white"/>
<path d="M294.624 140.181H275.574V130.057H294.624V140.181Z" stroke="#1A1A1A" stroke-width="2" stroke-linecap="round" stroke-linejoin="round"/>
<path d="M56.2933 100.843C56.9947 99.9921 57.4156 98.9012 57.4156 97.7119C57.4156 94.9902 55.2102 92.7837 52.4893 92.7837C49.7685 92.7837 47.562 94.9902 47.562 97.7119C47.562 98.9012 47.9839 99.9921 48.6853 100.843C45.0394 102.342 42.4714 105.927 42.4714 110.114V115.534H62.5069V110.114C62.5069 105.927 59.9389 102.342 56.2933 100.843Z" fill="#1C0311"/>
<path d="M56.2933 100.843C56.9947 99.9921 57.4156 98.9012 57.4156 97.7119C57.4156 94.9902 55.2102 92.7837 52.4893 92.7837C49.7685 92.7837 47.562 94.9902 47.562 97.7119C47.562 98.9012 47.9839 99.9921 48.6853 100.843C45.0394 102.342 42.4714 105.927 42.4714 110.114V115.534H62.5069V110.114C62.5069 105.927 59.9389 102.342 56.2933 100.843Z" stroke="#1A1A1A" stroke-linecap="round" stroke-linejoin="round"/>
<path d="M294.624 115.651H275.574V105.528H294.624V115.651Z" fill="white"/>
<path d="M294.624 115.651H275.574V105.528H294.624V115.651Z" stroke="#1A1A1A" stroke-width="2" stroke-linecap="round" stroke-linejoin="round"/>
<path d="M294.624 164.711H275.574V154.588H294.624V164.711Z" fill="white"/>
<path d="M294.624 164.711H275.574V154.588H294.624V164.711Z" stroke="#1A1A1A" stroke-width="2" stroke-linecap="round" stroke-linejoin="round"/>
<path d="M284.974 188.247H147.596C143.776 188.247 140.68 185.15 140.68 181.329V91.1334C140.68 87.3128 143.776 84.2158 147.596 84.2158H284.974C288.793 84.2158 291.89 87.3128 291.89 91.1334V181.329C291.89 185.15 288.793 188.247 284.974 188.247Z" stroke="#1A1A1A" stroke-width="2" stroke-linecap="round" stroke-linejoin="round" stroke-dasharray="8.03 8.03"/>
<path d="M125.72 126.169H90.7781C88.051 126.169 85.8403 123.957 85.8403 121.229V94.0309C85.8403 90.5227 88.6833 87.6785 92.1903 87.6785H125.72C129.227 87.6785 132.07 90.5227 132.07 94.0309V119.817C132.07 123.325 129.227 126.169 125.72 126.169Z" stroke="#1A1A1A" stroke-width="2" stroke-linecap="round" stroke-linejoin="round" stroke-dasharray="8 8"/>
<path d="M277.654 89.8527C277.654 96.4754 272.287 101.844 265.666 101.844C259.045 101.844 253.677 96.4754 253.677 89.8527C253.677 83.2301 259.045 77.8613 265.666 77.8613C272.287 77.8613 277.654 83.2301 277.654 89.8527Z" fill="white"/>
<path d="M277.654 89.8527C277.654 96.4754 272.287 101.844 265.666 101.844C259.045 101.844 253.677 96.4754 253.677 89.8527C253.677 83.2301 259.045 77.8613 265.666 77.8613C272.287 77.8613 277.654 83.2301 277.654 89.8527Z" stroke="#1A1A1A" stroke-width="2" stroke-linecap="round" stroke-linejoin="round"/>
<path d="M272.312 92.3122C271.861 90.8256 271.506 83.9119 266.797 83.187C266.898 82.9919 266.943 82.7658 266.915 82.5312C266.839 81.9107 266.274 81.4691 265.654 81.5448C265.033 81.6207 264.592 82.1852 264.667 82.8058C264.696 83.0403 264.795 83.2488 264.939 83.414C260.543 85.2507 261.861 92.0472 261.782 93.5985C259.779 94.129 260.617 95.7361 260.617 95.7361L267.286 94.9214L273.956 94.1067C273.956 94.1067 274.382 92.3452 272.312 92.3122Z" fill="#1C0311"/>
<path d="M272.312 92.3122C271.861 90.8256 271.506 83.9119 266.797 83.187C266.898 82.9919 266.943 82.7658 266.915 82.5312C266.839 81.9107 266.274 81.4691 265.654 81.5448C265.033 81.6207 264.592 82.1852 264.667 82.8058C264.696 83.0403 264.795 83.2488 264.939 83.414C260.543 85.2507 261.861 92.0472 261.782 93.5985C259.779 94.129 260.617 95.7361 260.617 95.7361L267.286 94.9214L273.956 94.1067C273.956 94.1067 274.382 92.3452 272.312 92.3122Z" stroke="#1A1A1A" stroke-linecap="round" stroke-linejoin="round"/>
<path d="M148.462 116.707C148.462 116.707 156.914 100.453 162.565 103.512C168.217 106.572 169.208 113.594 167.971 116.228C166.735 118.862 162.589 119.683 162.589 119.683C162.589 119.683 160.341 119.032 160.177 117.257C156.001 121.924 152.955 122.738 152.955 122.738L148.462 116.707Z" fill="white"/>
<path d="M148.462 116.707C148.462 116.707 156.914 100.453 162.565 103.512C168.217 106.572 169.208 113.594 167.971 116.228C166.735 118.862 162.589 119.683 162.589 119.683C162.589 119.683 160.341 119.032 160.177 117.257C156.001 121.924 152.955 122.738 152.955 122.738L148.462 116.707Z" stroke="#1A1A1A" stroke-width="2" stroke-linecap="round" stroke-linejoin="round"/>
<path d="M171.27 186.112C171.27 186.112 136.814 182.482 127.902 158.066C120.984 139.111 143.48 118.776 149.563 111.998C156.333 116.029 158.04 121.396 158.04 121.396C158.04 121.396 143.183 139.672 145.901 147C149.112 158.571 171.348 156.051 176.406 155.579" fill="#FF812C"/>
<path d="M171.27 186.112C171.27 186.112 136.814 182.482 127.902 158.066C120.984 139.111 143.48 118.776 149.563 111.998C156.333 116.029 158.04 121.396 158.04 121.396C158.04 121.396 143.183 139.672 145.901 147C149.112 158.571 171.348 156.051 176.406 155.579" stroke="black" stroke-width="2" stroke-linecap="round" stroke-linejoin="round"/>
<path d="M170.792 185.785C176.633 211.686 166.896 231.119 166.896 231.119C166.896 231.119 211.331 235.941 219.504 231.338C227.586 213.049 235.369 156.763 217.573 154.59C199.775 152.418 176.722 155.62 176.722 155.62C176.722 155.62 176.1 155.643 175.182 155.908" fill="#FF812C"/>
<path d="M170.792 185.785C176.633 211.686 166.896 231.119 166.896 231.119C166.896 231.119 211.331 235.941 219.504 231.338C227.586 213.049 235.369 156.763 217.573 154.59C199.775 152.418 176.722 155.62 176.722 155.62C176.722 155.62 176.1 155.643 175.182 155.908" stroke="black" stroke-width="2" stroke-linecap="round" stroke-linejoin="round"/>
<path d="M189.146 151.928C190.428 155.483 188.128 156.006 186.105 160.032C186.511 164.417 200.246 173.806 206.877 159.923C205.505 148.411 204.281 151.474 204.281 151.474C208.178 142.48 209.176 122.371 201.4 120.563C193.623 118.754 187.908 125.442 187.908 125.442C187.908 125.442 179.89 148.125 186.088 150.933C192.285 153.74 199.33 151.438 199.33 151.438" fill="white"/>
<path d="M189.146 151.928C190.428 155.483 188.128 156.006 186.105 160.032C186.511 164.417 200.246 173.806 206.877 159.923C205.505 148.411 204.281 151.474 204.281 151.474C208.178 142.48 209.176 122.371 201.4 120.563C193.623 118.754 187.908 125.442 187.908 125.442C187.908 125.442 179.89 148.125 186.088 150.933C192.285 153.74 199.33 151.438 199.33 151.438" stroke="#1A1A1A" stroke-width="2" stroke-linecap="round" stroke-linejoin="round"/>
<path d="M184.738 120.292C184.738 120.292 179.34 125.906 191.7 130.369C200.906 132.816 198.74 136.15 199.563 139.703L200.502 140.936C200.502 140.936 200.496 137.307 202.743 138.419C204.99 139.53 206.262 144.361 203.53 146.924C204.281 151.473 206.48 150.28 206.48 150.28C206.48 150.28 210.617 143.298 210.847 138.657C211.078 134.017 211.845 128.187 208.329 125.694C209.94 119.936 196.69 115.226 185.744 120.199" fill="#1C0311"/>
<path d="M184.738 120.292C184.738 120.292 179.34 125.906 191.7 130.369C200.906 132.816 198.74 136.15 199.563 139.703L200.502 140.936C200.502 140.936 200.496 137.307 202.743 138.419C204.99 139.53 206.262 144.361 203.53 146.924C204.281 151.473 206.48 150.28 206.48 150.28C206.48 150.28 210.617 143.298 210.847 138.657C211.078 134.017 211.845 128.187 208.329 125.694C209.94 119.936 196.69 115.226 185.744 120.199" stroke="#1A1A1A" stroke-linecap="round" stroke-linejoin="round"/>
<path d="M189.351 154.123L189.147 151.928C193.177 152.376 196.945 152.358 199.947 150.974C199.773 152.644 196.241 153.694 189.351 154.123Z" fill="#1C0311"/>
<path d="M189.351 154.123L189.147 151.928C193.177 152.376 196.945 152.358 199.947 150.974C199.773 152.644 196.241 153.694 189.351 154.123Z" stroke="#1A1A1A" stroke-linecap="round" stroke-linejoin="round"/>
<path d="M218.328 232.041C245.301 217.685 261.314 219.559 261.314 219.559C261.314 219.559 267.226 221.511 267.718 228.657C268.211 235.802 210.323 265.37 210.323 265.37C210.323 265.37 180.762 263.645 173.371 259.949C165.981 256.253 143.072 235.555 143.072 235.555C143.072 235.555 155.143 234.319 157.853 233.705C160.562 233.092 185.882 225.207 185.882 225.207" fill="white"/>
<path d="M218.328 232.041C245.301 217.685 261.314 219.559 261.314 219.559C261.314 219.559 267.226 221.511 267.718 228.657C268.211 235.802 210.323 265.37 210.323 265.37C210.323 265.37 180.762 263.645 173.371 259.949C165.981 256.253 143.072 235.555 143.072 235.555C143.072 235.555 155.143 234.319 157.853 233.705C160.562 233.092 185.882 225.207 185.882 225.207" stroke="#1A1A1A" stroke-width="2" stroke-linecap="round" stroke-linejoin="round"/>
<path d="M259.467 219.479C271.852 218.746 285.646 233.475 270.538 244.809C255.429 256.143 215.413 272.204 215.413 272.204C215.413 272.204 189.466 273.172 186.017 265.123C184.109 260.67 204.424 247.847 225.431 236.048" fill="white"/>
<path d="M259.467 219.479C271.852 218.746 285.646 233.475 270.538 244.809C255.429 256.143 215.413 272.204 215.413 272.204C215.413 272.204 189.466 273.172 186.017 265.123C184.109 260.67 204.424 247.847 225.431 236.048" stroke="#1A1A1A" stroke-width="2" stroke-linecap="round" stroke-linejoin="round"/>
<path d="M136.75 258.389C136.75 258.389 128.172 271.091 134.943 279.497C137.078 283.021 153.993 277.115 159.412 275.636C164.832 274.158 173.371 270.705 173.371 270.705" fill="#1C0311"/>
<path d="M136.75 258.389C136.75 258.389 128.172 271.091 134.943 279.497C137.078 283.021 153.993 277.115 159.412 275.636C164.832 274.158 173.371 270.705 173.371 270.705" stroke="#1A1A1A" stroke-linecap="round" stroke-linejoin="round"/>
<path d="M203.769 277.485C205.243 273.617 204.948 269.161 203.241 265.409C201.193 265.805 199.728 266.003 199.155 265.835C196.527 265.069 190.615 264.083 190.615 264.083L187.222 275.363C187.222 275.363 192.523 278.229 201.958 280.326C202.743 279.522 203.377 278.597 203.769 277.485Z" fill="white"/>
<path d="M203.769 277.485C205.243 273.617 204.948 269.161 203.241 265.409C201.193 265.805 199.728 266.003 199.155 265.835C196.527 265.069 190.615 264.083 190.615 264.083L187.222 275.363C187.222 275.363 192.523 278.229 201.958 280.326C202.743 279.522 203.377 278.597 203.769 277.485Z" stroke="#1A1A1A" stroke-width="2" stroke-linecap="round" stroke-linejoin="round"/>
<path d="M233.533 261.236C225.401 260.037 210.579 263.992 203.241 265.409C204.948 269.16 205.243 273.616 203.769 277.484C203.377 278.596 202.743 279.521 201.958 280.325C203.116 280.583 204.334 280.829 205.615 281.057C217.329 283.138 237.912 289.051 238.898 283.794C239.883 278.538 243.934 262.769 233.533 261.236Z" fill="#1C0311"/>
<path d="M233.533 261.236C225.401 260.037 210.579 263.992 203.241 265.409C204.948 269.16 205.243 273.616 203.769 277.484C203.377 278.596 202.743 279.521 201.958 280.325C203.116 280.583 204.334 280.829 205.615 281.057C217.329 283.138 237.912 289.051 238.898 283.794C239.883 278.538 243.934 262.769 233.533 261.236Z" stroke="#1A1A1A" stroke-linecap="round" stroke-linejoin="round"/>
<path d="M152.023 236.377C152.023 236.377 192.915 258.881 194.228 264.302C195.542 269.722 187.002 277.936 187.002 277.936C187.002 277.936 110.181 256.21 107.189 237.855C104.726 222.743 114.743 220.431 123.541 219.942C132.34 219.453 166.967 229.478 166.967 229.478L202.768 232.041L219.551 231.415" fill="white"/>
<path d="M152.023 236.377C152.023 236.377 192.915 258.881 194.228 264.302C195.542 269.722 187.002 277.936 187.002 277.936C187.002 277.936 110.181 256.21 107.189 237.855C104.726 222.743 114.743 220.431 123.541 219.942C132.34 219.453 166.967 229.478 166.967 229.478L202.768 232.041L219.551 231.415" stroke="#1A1A1A" stroke-width="2" stroke-linecap="round" stroke-linejoin="round"/>
<path d="M208.844 266.848C208.844 266.848 206.134 277.443 209.501 277.936C212.868 278.429 211.225 267.259 214.099 267.259C216.973 267.259 212.786 279.004 216.234 279.333C219.683 279.661 216.07 266.191 219.108 266.848C222.146 267.505 218.012 279.18 221.228 279.338C224.445 279.496 220.176 267.587 222.968 267.67C225.76 267.752 223.624 279.429 225.267 279.34" stroke="white" stroke-width="2" stroke-linecap="round" stroke-linejoin="round"/>
<path d="M140.691 270.544C140.691 270.544 141.348 276.567 143.976 276.02C146.603 275.472 141.895 269.34 143.976 268.354C146.056 267.368 147.589 273.756 150.654 273.464C150.654 273.464 153.26 273.501 149.726 265.37" stroke="white" stroke-width="2" stroke-linecap="round" stroke-linejoin="round"/>
<path d="M156.971 268.101L158.017 271.119" stroke="#1A1A1A" stroke-width="2" stroke-linecap="round" stroke-linejoin="round"/>
<path d="M163.092 217.758L178.738 241.248L221.182 242.424L210.453 219.453L163.092 217.758Z" fill="#1C0311"/>
<path d="M163.092 217.758L178.738 241.248L221.182 242.424L210.453 219.453L163.092 217.758Z" stroke="#1A1A1A" stroke-linecap="round" stroke-linejoin="round"/>
<path d="M160.791 217.758L176.438 241.248L218.881 242.424L208.153 219.453L160.791 217.758Z" fill="white"/>
<path d="M160.791 217.758L176.438 241.248L218.881 242.424L208.153 219.453L160.791 217.758Z" stroke="#1A1A1A" stroke-width="2" stroke-linecap="round" stroke-linejoin="round"/>
<path d="M189.836 227.069L189.157 234.297L195.123 233.493L189.836 227.069Z" fill="#FF812C"/>
<path d="M189.836 227.069L189.157 234.297L195.123 233.493L189.836 227.069Z" stroke="black" stroke-width="2" stroke-linecap="round" stroke-linejoin="round"/>
<path d="M228.485 230.904C228.485 230.904 219.283 233.734 218.834 237.293C213.415 238.792 213.506 239.385 213.506 239.385C213.506 239.385 216.018 248.695 223.248 246.003C230.477 243.31 234.76 234.424 234.76 234.424L228.485 230.904Z" fill="white"/>
<path d="M228.485 230.904C228.485 230.904 219.283 233.734 218.834 237.293C213.415 238.792 213.506 239.385 213.506 239.385C213.506 239.385 216.018 248.695 223.248 246.003C230.477 243.31 234.76 234.424 234.76 234.424L228.485 230.904Z" stroke="#1A1A1A" stroke-width="2" stroke-linecap="round" stroke-linejoin="round"/>
<path d="M216.909 154.392C216.909 154.392 254.766 158.715 255.514 192.171C256.186 222.188 235.091 236.059 235.091 236.059C230.639 236.552 227.265 237.167 226.639 230.273C226.639 230.273 239.581 202.544 238.854 197.818C238.127 193.092 229.683 179.13 222.386 176.906" fill="#FF812C"/>
<path d="M216.909 154.392C216.909 154.392 254.766 158.715 255.514 192.171C256.186 222.188 235.091 236.059 235.091 236.059C230.639 236.552 227.265 237.167 226.639 230.273C226.639 230.273 239.581 202.544 238.854 197.818C238.127 193.092 229.683 179.13 222.386 176.906" stroke="black" stroke-width="2" stroke-linecap="round" stroke-linejoin="round"/>
</g>
</g>
</svg>
