<svg width="419" height="419" viewBox="0 0 419 419" fill="none" xmlns="http://www.w3.org/2000/svg">
<g clip-path="url(#clip0_208_5951)">
<mask id="mask0_208_5951" style="mask-type:luminance" maskUnits="userSpaceOnUse" x="0" y="0" width="419" height="419">
<path d="M419 0H0V419H419V0Z" fill="white"/>
</mask>
<g mask="url(#mask0_208_5951)">
<mask id="mask1_208_5951" style="mask-type:luminance" maskUnits="userSpaceOnUse" x="10" y="45" width="399" height="399">
<path d="M10.4751 45.3916H408.525V443.442H10.4751V45.3916Z" fill="white"/>
</mask>
<g mask="url(#mask1_208_5951)">
<path d="M57.7448 340.69C52.9216 335.289 49.8557 329.279 47.92 323.555C47.8838 323.542 47.8477 323.529 47.8121 323.514C47.7859 323.649 47.7457 323.781 47.689 323.909C47.6687 323.955 47.6412 323.996 47.6171 324.041C48.8242 327.536 50.4552 331.132 52.6474 334.63C53.2361 335.025 53.6376 335.525 53.733 336.121C53.7432 336.185 53.7476 336.25 53.7501 336.315C54.8431 337.906 56.0573 339.471 57.4118 340.987C58.0523 341.705 58.7249 342.412 59.4285 343.106C59.4867 342.955 59.5478 342.805 59.6079 342.654C58.9601 342.01 58.3387 341.354 57.7448 340.69Z" fill="#D0D4D7"/>
<path d="M44.5471 305.789C44.6038 305.628 44.6733 305.467 44.7485 305.305C44.7323 304.652 44.7263 304.041 44.7295 303.484C44.736 302.235 44.7822 301.24 44.8267 300.557C44.8455 300.267 44.8638 300.038 44.8788 299.865C44.8296 299.861 44.7808 299.861 44.7316 299.853C44.6314 299.836 44.5334 299.812 44.4382 299.781C44.3671 300.581 44.2088 302.822 44.3229 305.997C44.3602 306.058 44.396 306.121 44.4297 306.184C44.4627 306.053 44.5008 305.921 44.5471 305.789Z" fill="#D0D4D7"/>
<path d="M46.592 319.017C46.1199 317.124 45.761 315.293 45.4915 313.561C45.2134 311.771 45.0297 310.086 44.9123 308.548C44.8578 308.497 44.8104 308.439 44.7624 308.38C44.7077 308.604 44.6197 308.819 44.5029 309.022C44.7674 312.208 45.3164 315.978 46.3845 320.003C46.424 319.681 46.4932 319.35 46.592 319.017Z" fill="#D0D4D7"/>
<path d="M43.504 349.928C43.118 349.685 42.7522 349.443 42.4079 349.204C40.8079 348.092 39.6497 347.037 38.8576 346.214C38.7636 346.333 38.6564 346.436 38.5422 346.531C39.3529 347.372 40.5333 348.444 42.1529 349.57C42.6344 349.905 43.1557 350.244 43.7162 350.583C43.78 350.594 43.8426 350.606 43.9052 350.62C43.7601 350.404 43.6255 350.174 43.504 349.928Z" fill="#D0D4D7"/>
<path d="M47.5952 352.098C47.5585 352.122 47.5241 352.15 47.4857 352.171C47.3497 352.248 47.2069 352.306 47.058 352.346C49.7263 353.567 53.0107 354.67 57.0038 355.399C57.0072 355.249 57.0121 355.098 57.0175 354.948C53.2633 354.257 50.1505 353.235 47.5952 352.098Z" fill="#D0D4D7"/>
<path d="M52.6475 334.63C52.4325 334.486 52.1935 334.355 51.934 334.239C50.9596 333.806 49.7134 333.563 48.3501 333.562C46.9868 333.558 45.7402 333.798 44.7644 334.228C43.7938 334.659 43.0924 335.291 42.9604 336.104C42.8289 336.911 43.32 337.752 44.2947 338.405C45.2633 339.057 46.717 339.503 48.3413 339.507C49.9658 339.508 51.4205 339.067 52.391 338.417C53.2894 337.82 53.7784 337.061 53.7504 336.315C53.748 336.25 53.7432 336.185 53.7327 336.121C53.6377 335.525 53.2361 335.025 52.6475 334.63Z" fill="#EEEFF0"/>
<path d="M56.5109 325.121C55.5138 325.906 54.5258 327.246 53.8793 328.916C53.2343 330.586 53.0635 332.243 53.273 333.494C53.4809 334.75 54.0523 335.596 54.8478 335.784C55.6498 335.973 56.5206 335.492 57.3202 334.63C58.1203 333.764 58.8603 332.52 59.4238 331.06C59.9895 329.601 60.2786 328.182 60.2695 327.003C60.2575 325.828 59.9374 324.886 59.2169 324.487C58.5024 324.09 57.5099 324.331 56.5109 325.121Z" fill="#EEEFF0"/>
<path d="M47.8122 323.514C47.1353 323.223 46.6444 322.555 46.4431 321.641C46.3563 321.254 46.3254 320.823 46.3518 320.369C45.8884 319.938 45.3455 319.546 44.7514 319.222C43.7026 318.648 42.688 318.367 41.7559 318.316C40.8295 318.272 39.9566 318.454 39.3837 319.049C38.8186 319.635 38.7131 320.584 39.1629 321.624C39.3839 322.144 39.7418 322.667 40.2081 323.156C40.6751 323.639 41.2509 324.082 41.8976 324.437C43.1953 325.143 44.4977 325.371 45.5307 325.248C46.5019 325.132 47.2523 324.711 47.6169 324.04C47.641 323.997 47.6681 323.955 47.6888 323.909C47.7455 323.781 47.7857 323.649 47.8122 323.514Z" fill="#EEEFF0"/>
<path d="M47.8121 323.514C47.8477 323.529 47.8838 323.543 47.9203 323.556C47.9526 323.567 47.9831 323.583 48.016 323.593C48.8045 323.829 49.6537 323.569 50.4121 323.025C51.1715 322.476 51.8482 321.647 52.3239 320.618C52.8013 319.59 52.9972 318.538 52.9251 317.604C52.8499 316.673 52.4997 315.857 51.8096 315.408C51.1242 314.962 50.2126 314.989 49.3039 315.469C48.3972 315.944 47.5055 316.879 46.9301 318.118C46.7918 318.417 46.6805 318.718 46.5919 319.017C46.4931 319.35 46.4243 319.681 46.3847 320.003C46.3692 320.127 46.3587 320.249 46.3516 320.369C46.3253 320.823 46.3562 321.254 46.443 321.641C46.6443 322.555 47.1352 323.223 47.8121 323.514Z" fill="#EEEFF0"/>
<path d="M44.7097 308.32C44.2864 307.752 44.2255 306.992 44.4294 306.183C44.3956 306.121 44.3598 306.058 44.3226 305.996C44.0183 305.494 43.5881 305.032 43.0434 304.666C41.3689 303.538 39.2679 303.727 38.3508 305.088C37.4338 306.45 38.0479 308.468 39.7221 309.596C41.3967 310.724 43.4973 310.534 44.4147 309.173C44.4474 309.124 44.4741 309.073 44.5029 309.022C44.62 308.819 44.7077 308.604 44.7628 308.38C44.7457 308.359 44.7257 308.342 44.7097 308.32Z" fill="#EEEFF0"/>
<path d="M44.4297 306.183C44.2258 306.992 44.2867 307.752 44.7096 308.32C44.7257 308.342 44.7459 308.359 44.7631 308.38C44.8108 308.438 44.8584 308.497 44.913 308.548C45.4272 309.036 46.2313 309.219 47.1659 309.077C48.2317 308.917 49.4617 308.324 50.5297 307.338C51.5972 306.351 52.2858 305.172 52.5292 304.122C52.7756 303.07 52.5848 302.153 51.9689 301.614C51.3501 301.072 50.4352 300.994 49.4591 301.251C48.481 301.512 47.4358 302.102 46.4959 302.971C45.7131 303.694 45.1206 304.503 44.7485 305.305C44.6732 305.467 44.6034 305.628 44.5467 305.789C44.5004 305.921 44.4626 306.053 44.4297 306.183Z" fill="#EEEFF0"/>
<path d="M44.8788 299.865C46.4501 299.999 48.004 298.236 48.3943 295.823C48.7965 293.336 47.8091 291.107 46.1886 290.845C44.5681 290.583 42.9284 292.387 42.5259 294.874C42.1485 297.208 42.9942 299.314 44.4382 299.782C44.5336 299.813 44.6313 299.837 44.7316 299.853C44.7808 299.86 44.8298 299.861 44.8788 299.865Z" fill="#EEEFF0"/>
<path d="M38.8687 346.203C39.3743 345.554 39.4792 344.697 39.2938 343.842C39.105 342.986 38.6292 342.126 37.8905 341.409C37.153 340.692 36.2791 340.241 35.4171 340.078C34.5572 339.917 33.7042 340.047 33.0704 340.572C32.4396 341.094 32.1591 341.927 32.2699 342.865C32.3777 343.8 32.8835 344.832 33.7493 345.674C34.6155 346.514 35.6629 346.99 36.6004 347.07C37.3608 347.137 38.0417 346.947 38.5422 346.532C38.6563 346.437 38.7636 346.333 38.8576 346.214C38.8608 346.21 38.8655 346.207 38.8687 346.203Z" fill="#EEEFF0"/>
<path d="M45.6268 352.181C45.4007 352.078 45.1803 351.943 44.9659 351.778C44.5782 351.483 44.2182 351.086 43.9052 350.62C43.8426 350.607 43.7804 350.594 43.7162 350.583C42.9707 350.454 42.1073 350.456 41.1923 350.637C39.9282 350.883 38.809 351.421 38.038 352.116C37.2654 352.809 36.8662 353.662 37.0558 354.46C37.2453 355.26 37.8928 355.874 38.8256 356.245C39.7588 356.614 40.9996 356.731 42.3345 356.471C43.6713 356.208 44.8488 355.612 45.6313 354.833C46.0203 354.446 46.3061 354.016 46.4423 353.59C46.5801 353.167 46.5608 352.767 46.4131 352.397C46.3721 352.393 46.3308 352.39 46.2891 352.383C46.0673 352.35 45.8497 352.282 45.6268 352.181Z" fill="#EEEFF0"/>
<path d="M47.5952 352.098C47.8996 351.899 48.1485 351.628 48.3444 351.32C48.4527 351.151 48.5515 350.96 48.6334 350.763C48.7133 350.568 48.7826 350.359 48.8373 350.14C49.0507 349.274 49.051 348.242 48.7839 347.165C48.5226 346.085 48.0455 345.17 47.4563 344.5C47.3064 344.332 47.1483 344.178 46.9875 344.043C46.824 343.906 46.648 343.782 46.4738 343.682C46.1198 343.477 45.7295 343.338 45.3195 343.324C44.9091 343.31 44.5171 343.428 44.1598 343.689C43.9786 343.821 43.8169 343.982 43.6664 344.175C43.5129 344.37 43.3803 344.592 43.2664 344.838C42.8008 345.827 42.6721 347.19 43.0099 348.579C43.1287 349.062 43.2992 349.513 43.5042 349.928C43.6256 350.174 43.7602 350.404 43.9053 350.62C44.2183 351.086 44.5783 351.483 44.966 351.778C45.1804 351.943 45.4008 352.078 45.6269 352.18C45.8498 352.282 46.0677 352.35 46.2892 352.383C46.3309 352.39 46.3722 352.393 46.4132 352.397C46.6386 352.418 46.8542 352.4 47.0584 352.346C47.2072 352.306 47.35 352.248 47.486 352.171C47.5244 352.15 47.5585 352.122 47.5952 352.098Z" fill="#EEEFF0"/>
<path d="M360.804 330.135C362.346 330.266 363.81 330.451 365.181 330.668C365.155 330.551 365.141 330.432 365.145 330.311C365.145 330.278 365.149 330.245 365.153 330.211C363.8 330 362.359 329.819 360.842 329.691C356.339 329.308 351.184 329.379 345.82 330.435C345.878 330.575 345.934 330.715 345.991 330.856C351.275 329.825 356.358 329.757 360.804 330.135Z" fill="#D0D4D7"/>
<path d="M359.425 337.725C358.462 335.829 357.219 334.312 356.051 333.406C354.882 332.498 353.799 332.193 353.11 332.633C352.416 333.076 352.235 334.164 352.44 335.558C352.648 336.954 353.233 338.662 354.123 340.415C355.012 342.168 356.044 343.649 357.048 344.641C358.052 345.63 359.037 346.128 359.804 345.829C360.566 345.532 360.96 344.479 360.917 342.998C360.877 341.521 360.386 339.622 359.425 337.725Z" fill="#EEEFF0"/>
<path d="M360.42 320.502C360.08 320.506 359.712 320.538 359.332 320.614C358.947 320.68 358.554 320.797 358.144 320.938C357.334 321.233 356.49 321.678 355.698 322.273C354.909 322.874 354.251 323.565 353.746 324.264C353.5 324.62 353.28 324.967 353.112 325.32C352.935 325.665 352.805 326.009 352.709 326.336C352.327 327.652 352.563 328.683 353.24 329.129C353.931 329.586 354.907 329.434 355.95 329.013C356.212 328.907 356.477 328.779 356.753 328.643C357.02 328.499 357.304 328.35 357.579 328.178C358.141 327.844 358.71 327.453 359.284 327.015C359.863 326.58 360.394 326.14 360.868 325.69C361.109 325.472 361.328 325.239 361.54 325.021C361.746 324.793 361.941 324.573 362.114 324.349C362.804 323.459 363.214 322.561 362.963 321.772C362.717 320.999 361.789 320.492 360.42 320.502Z" fill="#EEEFF0"/>
<path d="M365.181 330.668C365.332 331.355 365.952 331.982 366.794 332.545C367.29 332.872 367.866 333.189 368.5 333.478C369.133 333.774 369.823 334.046 370.559 334.295C371.293 334.551 372.005 334.761 372.686 334.916C373.363 335.078 374.013 335.182 374.605 335.23C375.787 335.316 376.785 335.147 377.279 334.482C377.763 333.831 377.607 332.765 376.774 331.629C376.361 331.061 375.776 330.494 375.052 329.976C374.325 329.465 373.456 329.008 372.491 328.673C371.525 328.344 370.559 328.171 369.671 328.127C368.781 328.09 367.971 328.178 367.297 328.372C365.998 328.739 365.23 329.439 365.153 330.212C365.149 330.245 365.145 330.278 365.145 330.311C365.142 330.432 365.155 330.551 365.181 330.668Z" fill="#EEEFF0"/>
<path d="M369.928 293.394C366.666 293.281 363.419 293.489 360.208 293.97C359.835 294.235 359.454 294.449 359.076 294.605C362.825 293.963 366.624 293.686 370.44 293.859C370.234 293.737 370.06 293.584 369.928 293.394Z" fill="#D0D4D7"/>
<path d="M379.538 295.163C379.658 295.193 379.779 295.12 379.808 295C379.837 294.88 379.764 294.759 379.645 294.73C377.903 294.301 376.161 293.981 374.42 293.757C374.023 293.892 373.638 293.994 373.265 294.07C375.355 294.289 377.448 294.649 379.538 295.163Z" fill="#D0D4D7"/>
<path d="M356.504 294.646C351.896 295.634 347.379 297.146 343.012 299.023C337.903 301.219 333.001 303.913 328.399 306.848C328.476 306.976 328.555 307.104 328.628 307.234C331.298 305.53 334.069 303.909 336.923 302.42C337.207 301.773 338.027 301.384 339.176 301.278C340.781 300.493 342.409 299.752 344.057 299.065C348.395 297.258 352.873 295.822 357.432 294.91C357.094 294.887 356.78 294.801 356.504 294.646Z" fill="#D0D4D7"/>
<path d="M336.923 302.42C336.912 302.446 336.899 302.47 336.89 302.496C336.338 304.045 338.852 306.356 342.449 307.805C346.046 309.25 349.46 309.326 350.135 307.826C350.468 307.076 350.036 306.07 349.05 305.059C348.065 304.048 346.523 303.037 344.667 302.29C342.812 301.544 341 301.205 339.589 301.252C339.447 301.257 339.31 301.266 339.176 301.278C338.027 301.385 337.206 301.773 336.923 302.42Z" fill="#EEEFF0"/>
<path d="M341.851 285.571C341.093 285.26 340.063 285.806 339.029 286.973C337.995 288.136 336.966 289.923 336.227 292.041C335.488 294.159 335.184 296.199 335.269 297.752C335.354 299.309 335.821 300.378 336.608 300.606C337.398 300.835 338.355 300.189 339.287 298.99C340.218 297.788 341.13 296.034 341.839 293.998C342.55 291.963 342.926 290.023 342.944 288.502C342.96 286.984 342.612 285.883 341.851 285.571Z" fill="#EEEFF0"/>
<path d="M363.852 301.719C363.853 300.568 363.386 299.13 362.429 297.837C361.47 296.546 360.229 295.682 359.127 295.351C358.02 295.013 357.072 295.188 356.537 295.805C355.996 296.427 355.937 297.35 356.164 298.332C356.396 299.318 356.906 300.373 357.654 301.379C358.4 302.388 359.262 303.182 360.139 303.69C361.012 304.191 361.913 304.403 362.666 304.066C363.41 303.733 363.854 302.876 363.852 301.719Z" fill="#EEEFF0"/>
<path d="M361.54 292.74C363.232 290.74 363.588 288.259 362.334 287.199C361.081 286.139 358.693 286.901 357.001 288.902C355.309 290.902 354.954 293.383 356.207 294.443C356.3 294.521 356.4 294.587 356.504 294.646C356.781 294.801 357.094 294.887 357.432 294.91C357.941 294.946 358.503 294.842 359.076 294.605C359.454 294.449 359.836 294.235 360.208 293.97C360.676 293.639 361.129 293.227 361.54 292.74Z" fill="#EEEFF0"/>
<path d="M379.794 290.046C380.502 289.079 380.78 288.119 380.419 287.38C380.059 286.644 379.118 286.274 377.875 286.306C376.635 286.337 375.098 286.776 373.6 287.627C372.103 288.479 370.939 289.577 370.279 290.628C369.617 291.679 369.454 292.677 369.903 293.363C369.91 293.374 369.92 293.383 369.928 293.393C370.06 293.583 370.235 293.736 370.441 293.859C370.632 293.972 370.851 294.057 371.095 294.114C371.571 293.916 372.134 293.874 372.733 294.008C372.849 294.034 372.968 294.066 373.086 294.105C373.146 294.094 373.205 294.082 373.265 294.07C373.638 293.995 374.023 293.892 374.419 293.757C375.109 293.522 375.826 293.201 376.54 292.795C377.948 291.993 379.085 291.013 379.794 290.046Z" fill="#EEEFF0"/>
<path d="M372.733 294.008C372.134 293.874 371.57 293.916 371.095 294.115C370.82 294.23 370.575 294.396 370.369 294.613C369.804 295.211 369.615 296.049 369.684 296.902C369.757 297.759 370.084 298.637 370.668 299.422C371.25 300.208 371.996 300.774 372.795 301.092C373.592 301.405 374.449 301.466 375.185 301.097C375.916 300.731 376.376 299.974 376.447 299.01C376.522 298.051 376.193 296.892 375.44 295.877C374.78 294.989 373.921 294.381 373.086 294.106C372.968 294.066 372.849 294.034 372.733 294.008Z" fill="#EEEFF0"/>
<path d="M387.989 295.274C387.459 294.456 386.508 293.713 385.305 293.303C384.1 292.893 382.894 292.901 381.974 293.225C381.051 293.548 380.418 294.177 380.247 294.978C380.074 295.782 380.375 296.603 380.946 297.301C381.521 297.999 382.365 298.582 383.387 298.929C384.408 299.278 385.432 299.332 386.314 299.13C387.192 298.926 387.932 298.459 388.287 297.718C388.64 296.979 388.523 296.094 387.989 295.274Z" fill="#EEEFF0"/>
<path d="M302.329 283.04C303.033 282.129 303.696 281.295 304.302 280.551C305.446 279.147 306.393 278.051 307.053 277.307C307.383 276.935 307.642 276.65 307.818 276.459C307.906 276.364 307.973 276.292 308.018 276.244C308.063 276.195 308.086 276.171 308.086 276.171C308.133 276.121 308.15 276.056 308.143 275.992C308.06 275.933 307.983 275.868 307.915 275.796C307.859 275.798 307.804 275.82 307.763 275.864C307.759 275.868 305.156 278.602 301.577 283.286C301.772 283.209 301.973 283.137 302.18 283.076C302.23 283.062 302.279 283.053 302.329 283.04Z" fill="#D0D4D7"/>
<path d="M289.686 303.097C289.743 302.62 289.949 302.083 290.31 301.526C290.461 301.29 290.642 301.054 290.846 300.82C292.445 297.778 294.125 294.931 295.785 292.333C296.762 290.805 297.731 289.362 298.673 288.015C298.631 287.96 298.589 287.906 298.554 287.846C298.504 287.763 298.463 287.676 298.429 287.586C297.446 288.988 296.432 290.493 295.409 292.093C291.488 298.23 287.449 305.743 284.653 313.98C284.769 314.104 284.882 314.23 284.996 314.356C286.32 310.416 287.934 306.64 289.686 303.097Z" fill="#D0D4D7"/>
<path d="M289.686 303.097C289.627 303.589 289.727 304.018 289.984 304.341C290.496 304.99 291.477 305.148 292.623 305.035C293.197 304.975 293.822 304.854 294.469 304.67C295.121 304.491 295.796 304.253 296.488 303.962C297.183 303.677 297.828 303.366 298.415 303.031C299.002 302.703 299.53 302.346 299.978 301.982C300.866 301.25 301.447 300.443 301.349 299.622C301.253 298.815 300.443 298.146 299.124 297.866C298.467 297.724 297.691 297.692 296.849 297.782C296.009 297.879 295.105 298.103 294.209 298.472C293.315 298.846 292.518 299.329 291.856 299.855C291.472 300.166 291.135 300.491 290.847 300.82C290.642 301.054 290.461 301.29 290.31 301.526C289.949 302.083 289.743 302.62 289.686 303.097Z" fill="#EEEFF0"/>
<path d="M290.122 293.528C288.811 289.952 286.498 287.512 284.956 288.077C283.415 288.642 283.229 292 284.541 295.576C284.704 296.023 284.89 296.461 285.059 296.822C285.229 297.187 285.391 297.503 285.538 297.777C285.835 298.333 286.087 298.716 286.329 299.111C286.578 299.512 286.809 299.882 287.025 300.23C287.255 300.589 287.484 300.95 287.83 301.173C288.17 301.394 288.627 301.439 289.144 301.161C289.653 300.889 290.193 300.277 290.521 299.418C290.687 298.991 290.805 298.505 290.856 297.985C290.909 297.468 290.901 296.936 290.843 296.412C290.787 295.887 290.681 295.377 290.555 294.895C290.426 294.41 290.286 293.976 290.122 293.528Z" fill="#EEEFF0"/>
<path d="M298.672 288.015C299.118 288.613 299.877 288.935 300.736 289.06C301.682 289.193 302.75 289.104 303.844 288.783C304.94 288.466 305.888 287.966 306.615 287.346C307.333 286.726 307.83 285.974 307.803 285.149C307.776 284.334 307.183 283.598 306.15 283.168C305.636 282.953 305.019 282.823 304.339 282.797C303.706 282.777 303.02 282.855 302.328 283.04C302.279 283.053 302.23 283.062 302.18 283.076C301.972 283.137 301.772 283.209 301.577 283.286C301.075 283.482 300.613 283.726 300.21 284.001C299.652 284.388 299.2 284.829 298.883 285.288C298.318 286.096 298.172 286.921 298.429 287.586C298.463 287.675 298.505 287.763 298.554 287.846C298.589 287.906 298.631 287.96 298.672 288.015Z" fill="#EEEFF0"/>
<path d="M298.899 276.531C298.403 275.941 297.859 275.486 297.319 275.192C296.236 274.596 295.242 274.635 294.639 275.177C294.023 275.73 293.851 276.636 293.881 277.611C293.901 278.099 293.965 278.617 294.083 279.141C294.193 279.67 294.354 280.207 294.562 280.756C294.764 281.307 294.994 281.818 295.256 282.29C295.51 282.764 295.8 283.198 296.105 283.58C296.72 284.336 297.443 284.909 298.27 284.924C299.081 284.939 299.858 284.318 300.287 283.159C300.504 282.583 300.617 281.884 300.606 281.113C300.587 280.345 300.438 279.507 300.133 278.68C299.822 277.855 299.387 277.124 298.899 276.531Z" fill="#EEEFF0"/>
<path d="M310.464 276.351C311.705 276.188 313.188 275.655 314.663 274.799C316.14 273.944 317.34 272.922 318.098 271.926C318.853 270.931 319.164 269.954 318.802 269.216C318.441 268.481 317.465 268.127 316.167 268.192C314.871 268.255 313.257 268.743 311.682 269.656C310.108 270.569 308.882 271.727 308.183 272.82C307.482 273.914 307.303 274.937 307.762 275.615C307.807 275.681 307.86 275.739 307.914 275.796C307.983 275.868 308.06 275.934 308.143 275.993C308.677 276.369 309.495 276.476 310.464 276.351Z" fill="#EEEFF0"/>
<path d="M349.709 244.291C349.755 244.267 349.8 244.244 349.848 244.221C350.551 243.877 351.461 243.554 352.314 243.556C352.631 243.556 352.94 243.599 353.232 243.698C353.669 243.847 354.074 244.116 354.433 244.583C354.79 245.05 355.099 245.723 355.304 246.669C355.389 247.064 355.428 247.432 355.428 247.774C355.428 248.373 355.309 248.894 355.103 249.359C354.742 250.171 354.103 250.816 353.325 251.328C352.22 252.057 350.846 252.498 349.709 252.755V253.441C350.337 253.304 351.043 253.115 351.756 252.849C352.815 252.452 353.887 251.888 354.711 251.067C355.122 250.657 355.47 250.18 355.714 249.631C355.959 249.082 356.098 248.462 356.097 247.774C356.097 247.38 356.052 246.965 355.958 246.527C355.665 245.173 355.156 244.256 354.503 243.678C354.177 243.389 353.818 243.189 353.446 243.064C353.075 242.938 352.692 242.886 352.314 242.886C351.351 242.888 350.418 243.215 349.679 243.561C349.697 243.602 349.709 243.645 349.709 243.692V244.291Z" fill="black"/>
<path d="M316.07 251.887C317.334 252.717 318.844 253.178 320.054 253.441V252.755C319.431 252.614 318.737 252.42 318.054 252.15C317.084 251.768 316.143 251.237 315.458 250.526C315.115 250.169 314.836 249.769 314.641 249.316C314.446 248.862 314.335 248.354 314.335 247.774C314.335 247.431 314.374 247.064 314.46 246.669C314.733 245.406 315.188 244.635 315.704 244.179C315.963 243.951 316.239 243.797 316.531 243.698C316.823 243.599 317.132 243.556 317.449 243.556C318.329 243.554 319.271 243.899 319.983 244.254C320.007 244.266 320.03 244.278 320.054 244.291V243.692C320.054 243.646 320.066 243.602 320.084 243.561C319.345 243.215 318.413 242.888 317.449 242.887C317.072 242.886 316.689 242.938 316.317 243.064C315.759 243.251 315.231 243.61 314.799 244.176C314.365 244.743 314.025 245.511 313.806 246.528C313.711 246.965 313.666 247.381 313.666 247.774C313.665 248.462 313.805 249.083 314.049 249.631C314.477 250.594 315.22 251.327 316.07 251.887Z" fill="black"/>
<path d="M288.971 193.562C290.863 195.452 293.472 196.619 296.358 196.62C299.244 196.619 301.854 195.452 303.746 193.562C305.637 191.671 306.805 189.062 306.805 186.178C306.805 183.294 305.637 180.685 303.746 178.795C301.854 176.904 299.244 175.736 296.358 175.736C293.472 175.736 290.863 176.904 288.971 178.795C287.08 180.685 285.912 183.294 285.911 186.178C285.912 189.062 287.08 191.671 288.971 193.562ZM290.157 184.38C290.157 184.292 290.193 184.206 290.255 184.144C290.317 184.081 290.404 184.045 290.492 184.045H294.225V180.314C294.225 180.226 294.26 180.14 294.323 180.077C294.385 180.015 294.471 179.98 294.559 179.98H298.157C298.246 179.98 298.332 180.015 298.394 180.077C298.457 180.14 298.492 180.226 298.492 180.314V184.045H302.225C302.313 184.045 302.399 184.081 302.461 184.144C302.524 184.206 302.559 184.292 302.559 184.38V187.976C302.559 188.064 302.524 188.151 302.461 188.213C302.399 188.275 302.313 188.311 302.225 188.311H298.492V192.042C298.492 192.129 298.457 192.216 298.394 192.278C298.332 192.341 298.246 192.376 298.157 192.376H294.559C294.471 192.376 294.385 192.341 294.323 192.278C294.26 192.216 294.225 192.129 294.225 192.042V188.311H290.492C290.404 188.311 290.317 188.275 290.255 188.213C290.193 188.151 290.157 188.064 290.157 187.976V184.38Z" fill="white"/>
<path d="M296.359 197.289C302.498 197.289 307.475 192.314 307.475 186.178C307.475 180.041 302.498 175.067 296.359 175.067C290.219 175.067 285.243 180.041 285.242 186.178C285.243 192.314 290.219 197.289 296.359 197.289ZM296.359 175.736C299.245 175.736 301.854 176.904 303.746 178.795C305.637 180.685 306.805 183.293 306.805 186.178C306.805 189.062 305.637 191.671 303.746 193.562C301.854 195.452 299.245 196.62 296.359 196.62C293.473 196.62 290.863 195.452 288.971 193.562C287.08 191.671 285.912 189.062 285.912 186.178C285.912 183.293 287.08 180.685 288.971 178.795C290.863 176.904 293.473 175.736 296.359 175.736Z" fill="black"/>
<path d="M294.796 187.739C294.858 187.802 294.894 187.888 294.894 187.976V191.707H297.823V187.976C297.823 187.888 297.859 187.802 297.921 187.739C297.983 187.677 298.07 187.642 298.158 187.642H301.89V184.714H298.158C298.07 184.714 297.983 184.679 297.921 184.616C297.859 184.554 297.823 184.468 297.823 184.38V180.649H294.894V184.38C294.894 184.468 294.858 184.554 294.796 184.616C294.734 184.679 294.648 184.714 294.56 184.714H290.827V187.642H294.56C294.648 187.642 294.734 187.677 294.796 187.739Z" fill="#60C3DA"/>
<path d="M290.491 188.311H294.224V192.042C294.224 192.13 294.26 192.216 294.322 192.278C294.385 192.34 294.471 192.376 294.559 192.376H298.157C298.245 192.376 298.331 192.34 298.393 192.278C298.456 192.216 298.492 192.13 298.492 192.042V188.311H302.224C302.313 188.311 302.399 188.275 302.461 188.212C302.523 188.15 302.559 188.064 302.559 187.976V184.38C302.559 184.292 302.523 184.205 302.461 184.143C302.399 184.081 302.313 184.045 302.224 184.045H298.492V180.314C298.492 180.226 298.456 180.14 298.393 180.078C298.331 180.015 298.245 179.98 298.157 179.98H294.559C294.471 179.98 294.385 180.015 294.322 180.078C294.26 180.14 294.224 180.226 294.224 180.314V184.045H290.491C290.404 184.045 290.317 184.081 290.255 184.143C290.193 184.205 290.157 184.292 290.157 184.38V187.976C290.157 188.064 290.193 188.15 290.255 188.212C290.317 188.275 290.404 188.311 290.491 188.311ZM290.826 184.714H294.559C294.647 184.714 294.733 184.679 294.796 184.616C294.858 184.554 294.894 184.468 294.894 184.38V180.649H297.823V184.38C297.823 184.468 297.858 184.554 297.921 184.616C297.983 184.679 298.069 184.714 298.157 184.714H301.89V187.641H298.157C298.069 187.641 297.983 187.677 297.921 187.74C297.858 187.802 297.823 187.888 297.823 187.976V191.707H294.894V187.976C294.894 187.888 294.858 187.802 294.796 187.74C294.733 187.677 294.647 187.641 294.559 187.641H290.826V184.714Z" fill="black"/>
<path d="M274.457 161.532C275.269 158.677 277.514 156.429 280.366 155.612C277.514 154.795 275.269 152.546 274.457 149.692C273.645 152.546 271.399 154.795 268.547 155.612C271.399 156.429 273.645 158.677 274.457 161.532Z" fill="white"/>
<path d="M266.171 155.946C268.367 155.946 270.351 156.835 271.79 158.274C273.229 159.713 274.118 161.698 274.118 163.893C274.118 163.982 274.154 164.068 274.216 164.13C274.278 164.192 274.364 164.228 274.452 164.228H274.461C274.549 164.228 274.635 164.192 274.698 164.13C274.76 164.068 274.796 163.982 274.796 163.893C274.796 161.698 275.685 159.713 277.123 158.274C278.562 156.835 280.547 155.946 282.742 155.946C282.831 155.946 282.917 155.911 282.979 155.849C283.041 155.786 283.077 155.7 283.077 155.612C283.077 155.524 283.041 155.438 282.979 155.375C282.917 155.313 282.831 155.277 282.742 155.277C280.547 155.277 278.562 154.388 277.123 152.949C275.685 151.51 274.796 149.526 274.796 147.33C274.796 147.242 274.76 147.156 274.698 147.093C274.635 147.031 274.549 146.996 274.461 146.996H274.452C274.364 146.996 274.278 147.031 274.216 147.093C274.154 147.156 274.118 147.242 274.118 147.33C274.118 149.526 273.229 151.51 271.79 152.949C270.351 154.388 268.367 155.277 266.171 155.277C266.083 155.277 265.997 155.313 265.934 155.375C265.872 155.438 265.836 155.524 265.836 155.612C265.836 155.7 265.872 155.786 265.934 155.849C265.997 155.911 266.083 155.946 266.171 155.946ZM274.457 149.692C275.269 152.546 277.514 154.795 280.366 155.612C277.514 156.429 275.269 158.678 274.457 161.532C273.645 158.677 271.4 156.429 268.547 155.612C271.4 154.795 273.645 152.546 274.457 149.692Z" fill="black"/>
<path d="M282.742 248.823C281.93 251.677 279.685 253.926 276.833 254.743C279.685 255.56 281.93 257.809 282.742 260.663C283.554 257.809 285.8 255.56 288.652 254.743C285.8 253.926 283.554 251.677 282.742 248.823Z" fill="white"/>
<path d="M282.747 246.127H282.738C282.65 246.127 282.564 246.162 282.502 246.225C282.439 246.287 282.404 246.373 282.404 246.462C282.404 248.657 281.515 250.642 280.076 252.081C278.637 253.519 276.652 254.408 274.457 254.409C274.369 254.409 274.282 254.444 274.22 254.506C274.158 254.569 274.123 254.655 274.123 254.743C274.123 254.831 274.158 254.918 274.22 254.98C274.282 255.042 274.369 255.078 274.457 255.078C276.652 255.078 278.637 255.967 280.076 257.405C281.515 258.845 282.404 260.829 282.404 263.025C282.404 263.113 282.439 263.199 282.502 263.261C282.564 263.324 282.65 263.359 282.738 263.359H282.747C282.835 263.359 282.921 263.324 282.983 263.261C283.046 263.199 283.081 263.113 283.081 263.025C283.081 260.829 283.97 258.845 285.409 257.405C286.848 255.967 288.833 255.078 291.028 255.078C291.116 255.078 291.203 255.042 291.265 254.98C291.327 254.918 291.363 254.831 291.363 254.743C291.363 254.655 291.327 254.569 291.265 254.506C291.203 254.444 291.117 254.409 291.028 254.409C288.833 254.408 286.848 253.519 285.409 252.081C283.97 250.642 283.081 248.657 283.081 246.462C283.081 246.373 283.046 246.287 282.983 246.225C282.921 246.162 282.835 246.127 282.747 246.127ZM282.743 260.663C281.931 257.809 279.685 255.56 276.833 254.743C279.685 253.926 281.931 251.677 282.743 248.823C283.555 251.677 285.8 253.926 288.652 254.743C285.8 255.56 283.555 257.809 282.743 260.663Z" fill="black"/>
<path d="M56.4372 238.009C57.2492 235.155 59.4942 232.906 62.3466 232.089C59.4942 231.272 57.2492 229.024 56.4372 226.169C55.6252 229.024 53.3799 231.272 50.5278 232.089C53.3799 232.906 55.6252 235.155 56.4372 238.009Z" fill="white"/>
<path d="M48.1511 232.424C50.3467 232.424 52.3313 233.313 53.7706 234.752C55.2092 236.191 56.0982 238.175 56.0982 240.371C56.0982 240.459 56.1337 240.545 56.196 240.607C56.2584 240.67 56.3446 240.706 56.4329 240.706H56.4412C56.5291 240.706 56.6153 240.67 56.6777 240.607C56.74 240.545 56.7755 240.459 56.7755 240.371C56.7758 238.175 57.6648 236.191 59.1034 234.752C60.5424 233.313 62.527 232.424 64.7226 232.424C64.8108 232.424 64.8971 232.388 64.9594 232.326C65.0215 232.264 65.0573 232.177 65.0573 232.09C65.0573 232.001 65.0215 231.915 64.9594 231.853C64.8971 231.79 64.8108 231.755 64.7226 231.755C62.527 231.754 60.5424 230.866 59.1034 229.427C57.6648 227.988 56.7758 226.003 56.7755 223.808C56.7755 223.72 56.74 223.633 56.6777 223.571C56.6156 223.509 56.5291 223.473 56.4412 223.473H56.4329C56.3446 223.473 56.2584 223.509 56.196 223.571C56.1337 223.633 56.0982 223.72 56.0982 223.808C56.0982 226.003 55.2092 227.988 53.7706 229.427C52.3313 230.866 50.3467 231.754 48.1511 231.755C48.0629 231.755 47.977 231.79 47.9146 231.853C47.8522 231.915 47.8164 232.001 47.8164 232.09C47.8164 232.177 47.8522 232.264 47.9146 232.326C47.977 232.388 48.0629 232.424 48.1511 232.424ZM56.4368 226.169C57.2489 229.024 59.4942 231.273 62.3466 232.09C59.4942 232.907 57.2489 235.155 56.4368 238.01C55.6248 235.155 53.3795 232.907 50.5275 232.09C53.3795 231.273 55.6248 229.024 56.4368 226.169Z" fill="black"/>
<path d="M321.431 225.51C324.172 225.51 326.395 223.29 326.395 220.55C326.395 217.811 324.172 215.591 321.431 215.591C318.691 215.591 316.469 217.811 316.469 220.55C316.469 223.29 318.691 225.51 321.431 225.51ZM321.431 217.261C323.249 217.261 324.722 218.733 324.722 220.55C324.722 222.367 323.249 223.84 321.431 223.84C319.614 223.84 318.139 222.367 318.139 220.55C318.139 218.733 319.614 217.261 321.431 217.261Z" fill="#EEEFF0"/>
<path d="M82.7098 217.842C85.4511 217.842 87.6735 215.622 87.6735 212.883C87.6735 210.143 85.4511 207.923 82.7098 207.923C79.9702 207.923 77.7478 210.143 77.7478 212.883C77.7478 215.622 79.9702 217.842 82.7098 217.842ZM82.7098 209.593C84.5276 209.593 86.001 211.065 86.001 212.883C86.001 214.7 84.5276 216.172 82.7098 216.172C80.8934 216.172 79.4186 214.7 79.4186 212.883C79.4186 211.065 80.8934 209.593 82.7098 209.593Z" fill="#EEEFF0"/>
<path d="M320.723 243.967V254.164C322.65 256.343 324.818 257.933 327.181 259.073C329.564 260.223 332.149 260.914 334.882 261.279C337.614 260.914 340.199 260.223 342.583 259.073C344.946 257.933 347.113 256.343 349.04 254.164V243.967L334.882 241.142L320.723 243.967Z" fill="white"/>
<path d="M320.054 244.291V252.756V253.442V254.292C320.054 254.374 320.083 254.451 320.137 254.513C322.142 256.806 324.416 258.483 326.89 259.676C329.363 260.869 332.034 261.578 334.838 261.949C334.866 261.953 334.898 261.953 334.926 261.949C337.729 261.578 340.4 260.869 342.873 259.676C345.347 258.483 347.621 256.806 349.626 254.513C349.68 254.451 349.709 254.374 349.709 254.292V253.441V252.755V244.291V243.692C349.709 243.646 349.697 243.602 349.679 243.561C349.637 243.463 349.551 243.387 349.44 243.364L334.948 240.473C334.904 240.464 334.86 240.464 334.816 240.473L320.323 243.364C320.212 243.387 320.127 243.463 320.084 243.561C320.066 243.602 320.054 243.646 320.054 243.692V244.291ZM334.882 241.142L349.04 243.967V254.164C347.113 256.343 344.946 257.934 342.583 259.074C340.199 260.223 337.615 260.914 334.882 261.279C332.15 260.914 329.565 260.223 327.181 259.074C324.818 257.934 322.65 256.343 320.723 254.164V243.967L334.882 241.142Z" fill="black"/>
<path d="M326.132 305.248C323.248 302.366 319.268 300.585 314.869 300.585C310.469 300.585 306.49 302.366 303.606 305.248C300.723 308.13 298.941 312.108 298.941 316.505C298.941 320.903 300.723 324.881 303.606 327.763C306.49 330.644 310.469 332.426 314.869 332.426C319.268 332.426 323.248 330.644 326.132 327.763C329.015 324.881 330.797 320.903 330.797 316.505C330.797 312.108 329.015 308.13 326.132 305.248ZM324.052 319.218C324.052 319.306 324.017 319.392 323.954 319.455C323.892 319.517 323.806 319.552 323.718 319.552H317.917V325.35C317.917 325.438 317.881 325.524 317.819 325.586C317.757 325.649 317.671 325.684 317.583 325.684H312.155C312.067 325.684 311.981 325.649 311.918 325.586C311.856 325.524 311.821 325.438 311.821 325.35V319.552H306.02C305.932 319.552 305.845 319.517 305.783 319.455C305.721 319.392 305.685 319.306 305.685 319.218V313.793C305.685 313.705 305.721 313.619 305.783 313.556C305.845 313.494 305.932 313.459 306.02 313.459H311.821V307.661C311.821 307.573 311.856 307.486 311.918 307.424C311.981 307.362 312.067 307.326 312.155 307.326H317.583C317.671 307.326 317.757 307.362 317.819 307.424C317.881 307.486 317.917 307.573 317.917 307.661V313.459H323.718C323.806 313.459 323.892 313.494 323.954 313.556C324.017 313.619 324.052 313.705 324.052 313.793V319.218Z" fill="white"/>
<path d="M314.869 299.916C308.746 299.916 303.4 303.233 300.523 308.165C299.094 310.616 298.271 313.464 298.271 316.505C298.272 325.668 305.703 333.095 314.869 333.095C324.035 333.095 331.466 325.668 331.466 316.505C331.466 315.818 331.419 315.142 331.338 314.477C331.012 311.808 330.057 309.334 328.619 307.211C328.535 307.088 328.446 306.968 328.358 306.847C325.347 302.651 320.429 299.916 314.869 299.916ZM330.797 316.505C330.797 320.903 329.015 324.881 326.132 327.763C323.248 330.644 319.268 332.426 314.869 332.426C310.469 332.426 306.49 330.644 303.606 327.763C300.723 324.881 298.941 320.903 298.941 316.505C298.941 312.108 300.723 308.13 303.606 305.248C306.49 302.366 310.469 300.585 314.869 300.585C319.268 300.585 323.248 302.366 326.132 305.248C329.015 308.13 330.797 312.108 330.797 316.505Z" fill="black"/>
<path d="M317.582 314.128C317.494 314.128 317.408 314.092 317.345 314.029C317.283 313.967 317.247 313.881 317.247 313.793V307.995H312.489V313.793C312.489 313.881 312.454 313.967 312.392 314.029C312.329 314.092 312.243 314.128 312.155 314.128H306.354V318.883H312.155C312.243 318.883 312.329 318.918 312.392 318.981C312.454 319.043 312.489 319.129 312.489 319.217V325.015H317.247V319.217C317.247 319.129 317.283 319.043 317.345 318.981C317.408 318.918 317.494 318.883 317.582 318.883H323.382V314.128H317.582Z" fill="#60C3DA"/>
<path d="M323.718 313.458H317.917V307.661C317.917 307.572 317.881 307.486 317.819 307.424C317.757 307.362 317.671 307.326 317.583 307.326H312.156C312.067 307.326 311.981 307.362 311.919 307.424C311.856 307.486 311.821 307.572 311.821 307.661V313.458H306.02C305.932 313.458 305.846 313.494 305.784 313.556C305.721 313.619 305.686 313.705 305.686 313.793V319.218C305.686 319.305 305.721 319.392 305.784 319.454C305.846 319.516 305.932 319.552 306.02 319.552H311.821V325.35C311.821 325.438 311.856 325.524 311.919 325.586C311.981 325.648 312.067 325.684 312.156 325.684H317.583C317.671 325.684 317.757 325.648 317.819 325.586C317.881 325.524 317.917 325.438 317.917 325.35V319.552H323.718C323.806 319.552 323.892 319.516 323.954 319.454C324.016 319.392 324.052 319.305 324.052 319.218V313.793C324.052 313.705 324.016 313.619 323.954 313.556C323.892 313.494 323.806 313.458 323.718 313.458ZM317.583 318.883C317.494 318.883 317.408 318.918 317.346 318.981C317.284 319.043 317.248 319.129 317.248 319.218V325.015H312.49V319.218C312.49 319.129 312.454 319.043 312.392 318.981C312.33 318.918 312.243 318.883 312.156 318.883H306.355V314.128H312.156C312.243 314.128 312.33 314.092 312.392 314.029C312.454 313.967 312.49 313.881 312.49 313.793V307.995H317.248V313.793C317.248 313.881 317.284 313.967 317.346 314.029C317.408 314.092 317.494 314.128 317.583 314.128H323.383V318.883H317.583Z" fill="black"/>
<path d="M140.035 343.388C145.193 338.234 148.385 331.115 148.385 323.249C148.385 313.997 143.97 305.777 137.131 300.576C136.411 302.874 135.632 305.037 134.799 307.066C129.948 318.871 123.27 326.203 116 330.174C111.155 332.821 106.053 333.972 101.072 333.972C100.766 333.972 100.46 333.968 100.154 333.959C99.8485 333.968 99.5423 333.972 99.2355 333.972C94.2552 333.972 89.1525 332.821 84.3073 330.174C80.6425 328.172 77.1274 325.313 73.9208 321.459C66.6786 326.319 61.2777 333.706 58.981 342.357C58.9395 342.514 58.8971 342.67 58.8573 342.827C58.1424 345.675 57.762 348.656 57.762 351.725C57.762 352.786 57.8101 353.836 57.899 354.874C57.9119 355.024 57.9252 355.174 57.9401 355.324C58.3162 359.151 59.2838 362.805 60.7517 366.192H116.959C120.448 356.073 128.955 347.777 140.035 343.388Z" fill="#EEEFF0"/>
<path d="M315.035 332.846C305.869 332.846 298.438 325.419 298.438 316.256C298.438 313.215 299.26 310.367 300.69 307.916C295.111 308.916 289.911 311.007 285.32 313.962C285.271 313.916 285.222 313.872 285.174 313.826C285.05 313.71 284.926 313.594 284.8 313.48C279.232 308.428 271.84 305.349 263.727 305.349C255.159 305.349 247.395 308.785 241.734 314.352C241.948 316.749 242.133 319.07 242.285 321.284C242.625 326.267 242.908 330.863 243.142 335.059C245.141 336.317 243.998 357.695 244.182 366.405C260.417 366.983 296.116 366.192 296.116 366.192H347.153C349.337 361.088 350.551 355.472 350.551 349.57C350.551 342.743 348.932 336.295 346.059 330.586C345.991 330.451 345.923 330.315 345.854 330.181C342.512 323.712 337.55 318.216 331.504 314.227C331.586 314.893 331.632 315.569 331.632 316.256C331.632 325.419 324.201 332.846 315.035 332.846Z" fill="#EEEFF0"/>
<path d="M116.959 366.193L244.325 366.212C244.195 365.913 243.666 345.173 243.232 335.125C233.54 332.443 198.226 332.716 195.899 332.801C190.925 332.983 155.055 340.746 155.066 340.086C149.727 340.407 144.657 341.557 140.035 343.388C128.954 347.777 120.447 356.073 116.959 366.193Z" fill="#C1BDBB"/>
<path d="M291.763 362.632C290.81 362.484 285.296 361.241 284.52 360.877C282.337 358.088 278.79 355.831 274.452 354.481C274.253 354.752 270.772 366.045 270.799 366.114L270.8 366.117C270.81 366.141 270.816 366.167 270.82 366.192L296.055 366.202C296.058 366.176 293.473 362.897 291.763 362.632Z" fill="#C1BDBB"/>
<path d="M270.82 366.192C270.828 366.246 202.266 366.228 156.675 366.21C133.968 366.201 116.959 366.192 116.959 366.192H60.7515H50.1442C49.9594 366.192 49.8098 366.342 49.8098 366.527C49.8098 366.712 49.9594 366.862 50.1442 366.862H352.765C352.95 366.862 353.1 366.712 353.1 366.527C353.1 366.342 352.95 366.192 352.765 366.192H347.153H296.116H270.82Z" fill="black"/>
<path d="M284.52 360.877C284.466 360.502 274.917 353.85 274.452 354.481C278.791 355.831 282.338 358.088 284.52 360.877Z" fill="#EEEFF0"/>
<path d="M270.859 366.223C270.469 365.73 275.64 358.569 274.694 354.777C274.291 353.159 255.131 348.371 254.802 346.52C252.217 342.15 248.206 338.247 243.142 335.059C244.186 353.744 244.279 364.497 244.287 366.192L270.859 366.223Z" fill="#C1BDBB"/>
<path d="M84.0891 329.147C88.8955 331.994 94.0062 333.337 99.0452 333.513C99.3584 333.524 99.6718 333.53 99.9846 333.532L100.004 333.533C100.317 333.553 100.629 333.568 100.943 333.579C105.982 333.755 111.173 332.772 116.167 330.267C121.16 327.761 125.958 323.73 130.201 317.792C138.662 305.952 144.904 286.511 145.982 256.55C136.652 253.522 126.061 247.354 117.76 241.919C110.261 237.009 104.642 232.701 103.545 231.851C102.392 232.623 96.4859 236.528 88.6634 240.903C80.0032 245.745 69.0076 251.159 59.4895 253.53C58.7293 275.979 61.2715 292.743 65.799 304.952C70.3454 317.209 76.8814 324.875 84.0891 329.147ZM67.9948 259.079C74.9943 257.374 83.135 253.485 89.7943 249.833C96.4548 246.181 101.641 242.769 102.764 242.019C102.914 241.919 102.991 241.867 102.991 241.867C103.116 241.783 103.281 241.788 103.399 241.881C103.399 241.881 103.472 241.939 103.615 242.049C103.757 242.159 103.968 242.322 104.242 242.53C104.791 242.947 105.592 243.549 106.599 244.285C108.613 245.759 111.452 247.772 114.75 249.932C121.346 254.252 129.788 259.157 137.11 261.493C137.257 261.54 137.356 261.68 137.35 261.835C136.724 279.743 133.78 292.963 129.475 302.479C125.172 311.994 119.497 317.807 113.43 320.851C109.386 322.881 105.173 323.678 101.095 323.535C100.844 323.526 100.594 323.514 100.345 323.498C100.095 323.496 99.8446 323.491 99.5944 323.482C95.5156 323.34 91.3687 322.251 87.4763 319.944C83.5835 317.638 79.9484 314.115 76.8839 309.123C70.7556 299.135 66.8985 283.28 67.7313 259.404C67.7367 259.249 67.8446 259.116 67.9948 259.079Z" fill="white"/>
<path d="M83.7366 329.742C88.6465 332.651 93.8762 334.025 99.0214 334.204C99.338 334.215 99.6545 334.221 99.9708 334.224C100.286 334.244 100.602 334.259 100.919 334.27C106.063 334.45 111.376 333.445 116.477 330.885C124.13 327.045 131.293 319.712 136.73 307.692C137.665 305.626 138.547 303.419 139.373 301.071C143.36 289.75 146.028 275.069 146.683 256.315C146.689 256.161 146.589 256.021 146.442 255.973C137.167 253.015 126.485 246.807 118.138 241.34C113.964 238.607 110.372 236.059 107.823 234.195C106.549 233.263 105.536 232.502 104.842 231.974C104.495 231.71 104.228 231.504 104.047 231.365C103.867 231.225 103.774 231.152 103.774 231.152C103.655 231.059 103.491 231.054 103.366 231.138C103.366 231.138 103.268 231.204 103.079 231.331C101.656 232.28 95.0943 236.598 86.6659 241.219C78.2389 245.839 67.9384 250.762 59.0703 252.922C58.9201 252.959 58.8115 253.092 58.8061 253.246C57.7528 283.437 62.6317 303.475 70.3702 316.085C71.3129 317.621 72.299 319.044 73.3213 320.364C76.4945 324.461 80.0226 327.541 83.7366 329.742ZM59.4899 253.53C69.008 251.159 80.0033 245.745 88.6634 240.903C96.486 236.528 102.392 232.623 103.545 231.851C104.642 232.701 110.261 237.009 117.76 241.919C126.061 247.354 136.652 253.522 145.982 256.55C144.904 286.511 138.662 305.952 130.201 317.792C125.958 323.73 121.16 327.761 116.167 330.267C111.173 332.772 105.982 333.755 100.943 333.579C100.629 333.568 100.317 333.553 100.004 333.533L99.9846 333.532C99.6718 333.53 99.3588 333.524 99.0456 333.513C94.0066 333.337 88.8958 331.994 84.0895 329.146C76.8818 324.875 70.3457 317.209 65.7994 304.951C61.2718 292.743 58.7297 275.979 59.4899 253.53Z" fill="black"/>
<path d="M68.4145 259.686C67.8196 277.4 69.8286 290.628 73.4001 300.258C76.9897 309.937 82.1469 315.982 87.8289 319.349C91.6181 321.595 95.6458 322.652 99.6187 322.791C99.8654 322.8 100.113 322.804 100.359 322.806L100.379 322.807C100.625 322.822 100.871 322.835 101.119 322.843C105.091 322.982 109.183 322.208 113.12 320.233C117.056 318.257 120.84 315.078 124.188 310.392C130.86 301.056 135.791 285.715 136.648 262.069C129.273 259.665 120.922 254.799 114.371 250.511C108.531 246.687 104.132 243.324 103.171 242.58C102.16 243.255 97.5369 246.303 91.4434 249.71C84.6101 253.531 75.939 257.803 68.4145 259.686Z" fill="#60C3DA"/>
<path d="M87.4767 319.944C91.3691 322.251 95.516 323.34 99.5945 323.482C99.845 323.491 100.095 323.496 100.345 323.498C100.595 323.513 100.844 323.526 101.095 323.534C105.173 323.677 109.386 322.88 113.43 320.85C119.498 317.806 125.172 311.993 129.476 302.479C133.781 292.963 136.724 279.742 137.35 261.834C137.356 261.68 137.257 261.539 137.11 261.492C129.788 259.157 121.346 254.252 114.751 249.932C111.452 247.772 108.613 245.758 106.599 244.285C105.592 243.549 104.792 242.947 104.243 242.53C103.969 242.321 103.757 242.159 103.615 242.049C103.472 241.938 103.399 241.881 103.399 241.881C103.281 241.788 103.116 241.783 102.992 241.867C102.992 241.867 102.914 241.919 102.765 242.019C101.641 242.769 96.4552 246.181 89.7943 249.833C83.135 253.484 74.9946 257.374 67.9951 259.079C67.8449 259.115 67.7367 259.249 67.7313 259.403C66.8985 283.28 70.7559 299.135 76.8843 309.123C79.9487 314.115 83.5839 317.638 87.4767 319.944ZM114.372 250.511C120.922 254.798 129.273 259.665 136.648 262.069C135.792 285.715 130.861 301.056 124.189 310.392C120.84 315.078 117.056 318.257 113.12 320.232C109.183 322.207 105.092 322.982 101.119 322.843C100.872 322.835 100.625 322.822 100.379 322.807L100.359 322.806C100.113 322.804 99.8657 322.799 99.6186 322.791C95.6461 322.652 91.6184 321.594 87.8292 319.349C82.1472 315.981 76.99 309.937 73.4004 300.258C69.8289 290.627 67.8199 277.4 68.4148 259.686C75.9393 257.802 84.6104 253.531 91.4437 249.71C97.5369 246.302 102.16 243.255 103.171 242.579C104.132 243.324 108.531 246.686 114.372 250.511Z" fill="black"/>
<path d="M86.1924 277.138L85.8452 287.078L96.3136 287.444C96.3954 287.447 96.4744 287.483 96.5303 287.543C96.5863 287.603 96.6165 287.684 96.6137 287.766L96.2483 298.229L106.194 298.577L106.56 288.113C106.563 288.032 106.599 287.953 106.659 287.897C106.719 287.841 106.8 287.81 106.882 287.813L117.35 288.179L117.697 278.238L107.229 277.872C107.147 277.869 107.068 277.834 107.012 277.774C106.956 277.714 106.926 277.632 106.929 277.55L107.294 267.087L97.3479 266.74L96.9825 277.203C96.9797 277.285 96.9438 277.364 96.8839 277.42C96.8238 277.476 96.7425 277.506 96.6608 277.503L86.1924 277.138Z" fill="white"/>
<path d="M85.6799 276.588C85.6199 276.644 85.5838 276.723 85.5809 276.805L85.212 287.368C85.2092 287.45 85.2397 287.531 85.2956 287.591C85.3513 287.651 85.4303 287.687 85.5124 287.69L95.9805 288.055L95.6151 298.519C95.6122 298.601 95.6427 298.682 95.6987 298.742C95.7546 298.802 95.8337 298.838 95.9154 298.841L106.483 299.21C106.565 299.213 106.647 299.182 106.707 299.126C106.767 299.07 106.803 298.991 106.805 298.91L107.171 288.446L117.639 288.812C117.721 288.815 117.802 288.784 117.862 288.728C117.922 288.672 117.958 288.593 117.961 288.511L118.33 277.948C118.333 277.866 118.303 277.785 118.247 277.725C118.191 277.666 118.112 277.629 118.03 277.627L107.561 277.261L107.927 266.798C107.93 266.716 107.9 266.634 107.844 266.574C107.788 266.514 107.709 266.479 107.627 266.476L97.0585 266.107C96.9768 266.104 96.8954 266.134 96.8354 266.19C96.7754 266.246 96.7393 266.325 96.7365 266.407L96.3711 276.87L85.9029 276.505C85.8209 276.502 85.7396 276.532 85.6799 276.588ZM96.9826 277.203L97.348 266.74L107.294 267.087L106.929 277.55C106.926 277.632 106.956 277.714 107.012 277.774C107.068 277.833 107.147 277.869 107.229 277.872L117.697 278.238L117.35 288.179L106.881 287.813C106.8 287.81 106.718 287.841 106.658 287.897C106.598 287.953 106.563 288.031 106.56 288.113L106.194 298.577L96.2483 298.229L96.6137 287.766C96.6166 287.684 96.5864 287.603 96.5304 287.543C96.4744 287.483 96.3954 287.447 96.3134 287.444L85.845 287.078L86.1921 277.138L96.6605 277.503C96.7426 277.506 96.8239 277.476 96.8839 277.42C96.9439 277.364 96.9797 277.285 96.9826 277.203Z" fill="black"/>
</g>
<mask id="mask2_208_5951" style="mask-type:luminance" maskUnits="userSpaceOnUse" x="10" y="45" width="399" height="399">
<path d="M10.4751 45.0425H408.525V443.092H10.4751V45.0425Z" fill="white"/>
</mask>
<g mask="url(#mask2_208_5951)">
<path d="M194.766 304.951C194.766 303.918 194.791 303.004 194.845 302.227C194.9 301.45 194.983 300.812 195.104 300.318C195.14 300.173 195.266 300.075 195.408 300.066L193.34 266.589C190.482 266.554 187.739 266.51 185.228 266.463C183.123 318.646 183.123 318.649 183.123 318.649C183.119 318.743 183.075 318.833 183.002 318.893C182.93 318.954 182.834 318.98 182.74 318.967C182.734 318.966 179.82 318.542 175.856 317.631C171.89 316.72 166.876 315.323 162.656 313.365C160.291 312.267 158.176 310.994 156.629 309.511C155.87 322.838 155.35 335.687 155.35 345.845C155.35 349.698 155.425 353.162 155.59 356.117C155.754 359.07 156.01 361.515 156.366 363.318C156.581 364.404 156.835 365.255 157.113 365.831H193.692C193.701 365.698 193.713 365.523 193.729 365.306C193.767 364.759 193.823 363.951 193.895 362.914C194.038 360.84 194.242 357.846 194.488 354.165C194.963 347.035 195.591 337.328 196.225 326.744C196.044 324.889 195.873 323.06 195.717 321.281C195.147 314.789 194.766 308.963 194.766 304.951Z" fill="white"/>
<path d="M154.681 345.845C154.681 350.993 154.814 355.456 155.118 358.954C155.27 360.703 155.465 362.211 155.71 363.447C155.911 364.461 156.143 365.286 156.422 365.926H194.356C194.505 363.811 195.536 349.063 196.643 330.911C196.499 329.514 196.359 328.122 196.224 326.744C195.591 337.328 194.962 347.035 194.487 354.165C194.242 357.846 194.038 360.841 193.895 362.915C193.823 363.952 193.767 364.759 193.728 365.306C193.713 365.523 193.701 365.698 193.692 365.832H157.113C156.835 365.255 156.58 364.404 156.366 363.318C156.009 361.515 155.754 359.071 155.59 356.117C155.425 353.163 155.35 349.697 155.35 345.845C155.35 335.687 155.871 322.839 156.629 309.512C156.406 309.298 156.195 309.08 155.996 308.857C155.362 319.895 154.888 330.63 154.734 339.819C154.699 341.912 154.681 343.927 154.681 345.845Z" fill="black"/>
<path d="M193.34 266.588L195.408 300.066C195.442 300.064 195.475 300.065 195.509 300.073C195.689 300.117 195.798 300.299 195.754 300.478C195.648 300.91 195.566 301.52 195.513 302.274C195.46 303.029 195.435 303.928 195.435 304.951C195.435 308.675 195.768 314.021 196.279 320.015C196.79 326.01 197.478 332.656 198.188 338.992C199.606 351.665 201.109 363.096 201.442 365.61C201.453 365.694 201.463 365.768 201.472 365.832H243.285C243.284 365.722 243.283 365.59 243.282 365.428C243.278 364.937 243.27 364.203 243.254 363.23C243.223 361.284 243.159 358.385 243.034 354.572C242.783 346.948 242.283 335.671 241.285 321.064C241.069 317.9 240.783 314.518 240.445 311.003C239.647 311.99 238.701 312.969 237.594 313.904C233.094 317.707 225.945 320.78 215.371 320.779C212.086 320.779 208.47 320.482 204.498 319.821C204.368 319.799 204.262 319.702 204.229 319.574C203.668 317.399 203.286 313.972 203.039 309.549C202.792 305.128 202.683 299.717 202.683 293.607C202.683 285.606 202.87 276.405 203.178 266.66C199.864 266.654 196.531 266.627 193.34 266.588Z" fill="white"/>
<path d="M240.446 311.003C240.783 314.518 241.069 317.899 241.285 321.064C242.283 335.67 242.783 346.947 243.034 354.572C243.16 358.385 243.223 361.284 243.254 363.23C243.27 364.202 243.278 364.937 243.282 365.428C243.284 365.59 243.284 365.722 243.285 365.831H201.472C201.463 365.768 201.454 365.694 201.442 365.61C201.109 363.096 199.606 351.664 198.188 338.992C197.478 332.656 196.79 326.01 196.279 320.015C195.768 314.021 195.435 308.675 195.435 304.951C195.435 303.928 195.46 303.029 195.513 302.274C195.566 301.52 195.647 300.91 195.754 300.478C195.798 300.299 195.689 300.117 195.509 300.073C195.475 300.065 195.441 300.064 195.408 300.065C195.266 300.075 195.14 300.173 195.104 300.318C194.983 300.812 194.9 301.45 194.846 302.227C194.791 303.004 194.766 303.917 194.766 304.951C194.766 308.963 195.147 314.789 195.717 321.281C195.873 323.06 196.044 324.889 196.225 326.744C196.359 328.122 196.499 329.514 196.643 330.911C198.299 346.946 200.496 363.571 200.809 365.926H243.955C243.947 364.231 243.854 353.478 242.81 334.793C242.576 330.596 242.293 326.001 241.953 321.018C241.802 318.804 241.616 316.483 241.403 314.086C241.29 312.82 241.17 311.532 241.043 310.227C240.854 310.486 240.654 310.745 240.446 311.003Z" fill="black"/>
<path d="M192.313 170.408C192.42 170.452 192.567 170.511 192.752 170.581C193.164 170.737 193.755 170.945 194.473 171.154C195.91 171.571 197.85 171.986 199.849 171.986C201.223 171.987 202.623 171.791 203.909 171.275C204.335 171.104 204.747 170.894 205.145 170.649C205.396 164.704 205.592 160.712 205.603 160.478C205.534 159.524 205.503 158.58 205.503 157.648C205.503 156.657 205.539 155.68 205.605 154.718C205.288 154.917 204.973 155.09 204.662 155.228C204.07 155.489 203.488 155.634 202.931 155.634C202.575 155.634 202.229 155.574 201.907 155.445C201.196 155.163 200.686 154.77 200.364 154.291C200.041 153.812 199.916 153.262 199.916 152.701C199.919 151.825 200.207 150.904 200.553 149.998C200.899 149.094 201.307 148.204 201.571 147.431C201.748 146.916 201.858 146.453 201.857 146.096C201.856 145.846 201.808 145.656 201.713 145.506C201.618 145.356 201.472 145.228 201.209 145.123C200.893 144.998 200.646 144.95 200.467 144.95C200.299 144.951 200.191 144.988 200.102 145.044C200.014 145.101 199.938 145.187 199.869 145.318C199.729 145.576 199.647 146.001 199.604 146.479C199.573 146.799 199.556 147.142 199.533 147.482C199.501 147.937 199.461 148.384 199.351 148.781C199.287 149.008 199.2 149.221 199.064 149.406C198.911 149.618 198.678 149.788 198.395 149.848C198.271 149.875 198.155 149.89 198.042 149.891C197.874 149.891 197.706 149.854 197.563 149.763C197.42 149.673 197.32 149.535 197.261 149.394C197.22 149.299 197.195 149.201 197.178 149.099C197.155 148.963 197.147 148.819 197.147 148.666C197.147 148.267 197.202 147.793 197.254 147.245C197.305 146.698 197.356 146.079 197.356 145.408C197.356 144.718 197.298 143.972 197.137 143.195C194.799 142.79 192.916 142.123 191.412 141.277C189.858 140.403 188.705 139.339 187.866 138.196C187.651 137.903 187.457 137.605 187.281 137.304C186.453 139.291 185.654 141.445 185.031 143.588C184.295 146.121 183.808 148.639 183.808 150.836C183.807 152.224 184.001 153.481 184.436 154.534C184.866 155.575 185.524 156.417 186.48 157.027L192.067 158.592C192.211 158.632 192.311 158.765 192.311 158.914L192.312 161.568L192.313 170.408Z" fill="white"/>
<path d="M191.995 161.231C192.173 161.24 192.313 161.389 192.311 161.568L192.311 158.914C192.311 158.764 192.211 158.632 192.067 158.592L186.48 157.027C185.524 156.416 184.866 155.575 184.435 154.534C184.001 153.481 183.807 152.224 183.808 150.836C183.808 148.639 184.295 146.121 185.031 143.587C185.654 141.445 186.453 139.291 187.281 137.303C187.133 137.05 187 136.795 186.878 136.538C185.968 138.681 185.074 141.04 184.389 143.401C183.642 145.973 183.14 148.542 183.138 150.836C183.138 152.285 183.338 153.627 183.817 154.789C184.294 155.95 185.059 156.93 186.16 157.618C186.186 157.635 186.217 157.648 186.247 157.656L191.642 159.168L191.642 161.221C191.76 161.224 191.876 161.225 191.995 161.231Z" fill="black"/>
<path d="M205.605 154.718C205.539 155.68 205.503 156.657 205.503 157.648C205.503 158.58 205.535 159.524 205.604 160.478C205.604 160.471 205.605 160.462 205.605 160.462C205.613 160.293 205.745 160.158 205.913 160.145C206.025 160.136 206.137 160.13 206.251 160.126C206.198 159.292 206.172 158.466 206.172 157.648C206.172 156.489 206.223 155.347 206.312 154.227C206.076 154.407 205.84 154.57 205.605 154.718Z" fill="black"/>
<path d="M209.965 127.862C208.496 125.838 206.855 124.482 205.141 123.619C203.341 122.715 201.456 122.352 199.6 122.352C195.605 122.348 191.743 124.045 189.332 125.592C188.528 126.107 187.886 126.605 187.458 127.007C187.215 127.236 187.042 127.436 186.955 127.57C186.909 127.641 186.89 127.693 186.891 127.696L186.89 127.696C186.888 127.721 186.885 127.746 186.877 127.77L186.877 127.773L186.874 127.784C186.87 127.794 186.866 127.81 186.86 127.832C186.848 127.875 186.831 127.939 186.81 128.024C186.769 128.193 186.713 128.441 186.657 128.754C186.545 129.38 186.432 130.265 186.432 131.286C186.432 132.746 186.661 134.483 187.436 136.156C188.212 137.831 189.528 139.447 191.74 140.693C193.215 141.523 195.092 142.187 197.476 142.577C197.609 142.598 197.717 142.7 197.748 142.831C197.959 143.747 198.026 144.617 198.026 145.408C198.026 146.113 197.972 146.755 197.92 147.308C197.867 147.861 197.816 148.328 197.816 148.666C197.816 148.811 197.826 148.932 197.843 149.019C197.86 149.106 197.886 149.157 197.901 149.177L197.928 149.202C197.942 149.209 197.973 149.221 198.042 149.221C198.093 149.221 198.163 149.214 198.25 149.194C198.321 149.178 198.373 149.153 198.422 149.116C198.47 149.079 198.516 149.028 198.56 148.957C198.648 148.817 198.721 148.595 198.769 148.324C198.868 147.78 198.875 147.058 198.94 146.381C198.986 145.929 199.054 145.492 199.223 145.115C199.32 144.9 199.454 144.701 199.645 144.549C199.862 144.375 200.15 144.279 200.467 144.281C200.761 144.282 201.084 144.355 201.454 144.5C201.818 144.643 202.102 144.865 202.28 145.149C202.458 145.433 202.526 145.761 202.526 146.096C202.525 146.46 202.449 146.842 202.334 147.242C202.217 147.641 202.06 148.059 201.888 148.488C201.543 149.346 201.138 150.25 200.874 151.104C200.697 151.673 200.585 152.218 200.586 152.701C200.586 153.167 200.685 153.569 200.919 153.917C201.154 154.265 201.535 154.575 202.154 154.823C202.392 154.918 202.65 154.965 202.931 154.965C203.37 154.965 203.864 154.848 204.392 154.615C204.92 154.382 205.481 154.034 206.051 153.584C207.192 152.683 208.368 151.374 209.422 149.781C211.532 146.594 213.155 142.274 213.154 137.802C213.154 136.142 212.931 134.462 212.431 132.807C210.964 131.646 210.011 129.867 209.965 127.862Z" fill="black"/>
<path d="M187.281 137.303C187.457 137.605 187.65 137.903 187.866 138.196C188.705 139.339 189.857 140.402 191.411 141.276C192.915 142.123 194.799 142.79 197.137 143.195C197.298 143.973 197.357 144.719 197.356 145.408C197.356 146.079 197.305 146.698 197.254 147.245C197.202 147.794 197.148 148.267 197.147 148.665C197.147 148.819 197.155 148.963 197.178 149.099C197.195 149.201 197.22 149.299 197.26 149.394C197.319 149.535 197.42 149.672 197.563 149.763C197.706 149.854 197.873 149.891 198.041 149.89C198.155 149.89 198.271 149.875 198.395 149.848C198.677 149.787 198.911 149.617 199.064 149.406C199.2 149.22 199.287 149.008 199.351 148.781C199.461 148.384 199.501 147.937 199.533 147.482C199.556 147.142 199.573 146.799 199.604 146.479C199.647 146.001 199.729 145.575 199.868 145.317C199.938 145.187 200.014 145.101 200.102 145.044C200.191 144.987 200.299 144.951 200.467 144.95C200.646 144.95 200.893 144.999 201.208 145.123C201.471 145.228 201.618 145.356 201.713 145.506C201.808 145.656 201.856 145.846 201.857 146.095C201.858 146.453 201.749 146.916 201.572 147.431C201.307 148.204 200.899 149.094 200.553 149.998C200.207 150.904 199.918 151.825 199.916 152.701C199.916 153.262 200.041 153.812 200.364 154.291C200.686 154.77 201.196 155.162 201.907 155.445C202.23 155.573 202.576 155.634 202.932 155.634C203.488 155.634 204.069 155.489 204.662 155.228C204.973 155.09 205.289 154.917 205.605 154.718C205.84 154.57 206.076 154.407 206.312 154.226C206.818 153.841 207.325 153.387 207.824 152.869C209.392 151.24 210.886 148.994 211.995 146.395C213.102 143.796 213.823 140.843 213.823 137.802C213.824 136.338 213.657 134.853 213.285 133.38C212.985 133.211 212.7 133.019 212.431 132.807C212.932 134.463 213.154 136.142 213.154 137.802C213.155 142.274 211.533 146.595 209.422 149.781C208.368 151.374 207.192 152.684 206.051 153.584C205.481 154.035 204.92 154.383 204.392 154.615C203.864 154.848 203.37 154.965 202.932 154.965C202.651 154.965 202.392 154.917 202.154 154.823C201.535 154.575 201.154 154.265 200.92 153.917C200.685 153.568 200.586 153.167 200.585 152.701C200.585 152.218 200.698 151.673 200.874 151.104C201.138 150.25 201.543 149.346 201.888 148.488C202.06 148.059 202.217 147.641 202.333 147.242C202.449 146.842 202.526 146.46 202.526 146.096C202.526 145.76 202.458 145.433 202.28 145.149C202.102 144.865 201.819 144.643 201.454 144.501C201.085 144.355 200.762 144.282 200.467 144.281C200.15 144.28 199.862 144.375 199.645 144.549C199.454 144.701 199.32 144.9 199.223 145.115C199.054 145.492 198.986 145.929 198.94 146.382C198.875 147.059 198.867 147.78 198.768 148.324C198.721 148.595 198.648 148.817 198.56 148.957C198.516 149.028 198.47 149.079 198.422 149.116C198.373 149.153 198.321 149.178 198.25 149.194C198.163 149.214 198.093 149.222 198.041 149.221C197.973 149.221 197.942 149.209 197.928 149.202L197.902 149.177C197.886 149.156 197.86 149.106 197.843 149.018C197.826 148.932 197.816 148.811 197.817 148.666C197.816 148.328 197.866 147.861 197.919 147.309C197.972 146.755 198.026 146.113 198.026 145.408C198.026 144.618 197.959 143.747 197.748 142.831C197.717 142.699 197.61 142.598 197.476 142.576C195.092 142.187 193.215 141.523 191.74 140.693C189.528 139.447 188.213 137.831 187.436 136.157C186.661 134.483 186.431 132.746 186.432 131.286C186.432 130.265 186.545 129.38 186.657 128.754C186.713 128.441 186.769 128.193 186.81 128.024C186.831 127.94 186.848 127.875 186.86 127.832C186.866 127.811 186.87 127.794 186.873 127.784L186.877 127.773L186.878 127.77C186.885 127.746 186.889 127.721 186.89 127.696L186.891 127.696C186.89 127.693 186.909 127.64 186.955 127.57C187.042 127.436 187.215 127.236 187.459 127.007C187.886 126.605 188.528 126.107 189.332 125.592C191.743 124.045 195.605 122.348 199.6 122.352C201.457 122.352 203.34 122.715 205.141 123.619C206.855 124.482 208.497 125.838 209.965 127.862C209.964 127.811 209.961 127.76 209.961 127.709C209.961 127.412 209.983 127.119 210.022 126.832C208.621 125.074 207.065 123.838 205.441 123.021C203.537 122.064 201.543 121.683 199.601 121.682C196.145 121.683 192.85 122.877 190.402 124.19C189.178 124.847 188.166 125.533 187.448 126.126C187.089 126.423 186.803 126.695 186.597 126.937C186.493 127.059 186.41 127.173 186.345 127.286C186.292 127.383 186.248 127.48 186.231 127.597C186.179 127.777 185.764 129.267 185.763 131.286C185.763 132.842 186.012 134.719 186.878 136.538C187 136.795 187.133 137.05 187.281 137.303Z" fill="black"/>
<path d="M210.631 127.71C210.63 129.32 211.282 130.775 212.337 131.831C213.393 132.887 214.849 133.539 216.46 133.54C218.072 133.54 219.527 132.888 220.584 131.833C221.64 130.778 222.292 129.323 222.293 127.713C222.293 126.102 221.641 124.647 220.586 123.591C219.53 122.535 218.075 121.884 216.463 121.883C214.852 121.883 213.396 122.534 212.339 123.589C211.284 124.644 210.631 126.099 210.631 127.71Z" fill="black"/>
<path d="M209.961 127.71C209.961 127.761 209.964 127.811 209.965 127.862C210.011 129.867 210.964 131.646 212.431 132.807C212.699 133.019 212.985 133.211 213.285 133.38C214.224 133.906 215.306 134.209 216.46 134.209C220.05 134.209 222.961 131.302 222.962 127.713C222.963 124.124 220.053 121.215 216.463 121.214C213.171 121.213 210.452 123.659 210.022 126.832C209.983 127.119 209.961 127.412 209.961 127.71ZM216.463 121.883C218.075 121.883 219.53 122.535 220.586 123.591C221.641 124.647 222.293 126.102 222.293 127.713C222.292 129.323 221.64 130.778 220.584 131.834C219.527 132.888 218.072 133.54 216.46 133.539C214.849 133.539 213.393 132.887 212.337 131.831C211.282 130.775 210.63 129.32 210.631 127.71C210.631 126.099 211.284 124.645 212.339 123.589C213.396 122.534 214.852 121.882 216.463 121.883Z" fill="black"/>
<path d="M143.84 153.775C143.845 152.309 144.027 150.516 144.031 148.993C144.033 148.351 144.003 147.757 143.92 147.268C143.838 146.777 143.698 146.395 143.52 146.171C143.281 145.867 143.044 145.651 142.835 145.516C142.627 145.38 142.449 145.33 142.335 145.331C142.277 145.331 142.236 145.341 142.202 145.357C142.168 145.372 142.141 145.393 142.113 145.427C142.057 145.495 141.999 145.636 141.999 145.87C141.999 145.921 142.002 145.976 142.008 146.034C142.144 146.458 142.208 146.875 142.207 147.273C142.204 148.192 141.865 149.008 141.342 149.598C140.82 150.187 140.106 150.558 139.35 150.557C138.968 150.556 138.58 150.457 138.218 150.249C137.855 150.042 137.521 149.728 137.233 149.306C136.796 148.666 136.604 148.007 136.606 147.388C136.609 146.616 136.904 145.916 137.332 145.35C137.762 144.782 138.324 144.341 138.901 144.071C139.286 143.892 139.678 143.788 140.055 143.788C140.127 143.789 140.199 143.793 140.269 143.802C140.483 143.828 140.696 143.84 140.899 143.841C141.16 143.842 141.404 143.822 141.612 143.788C141.819 143.754 141.991 143.704 142.097 143.654C142.114 143.646 142.128 143.638 142.142 143.631C142.097 143.597 142.028 143.552 141.931 143.504L141.902 143.488C140.215 142.424 138.841 142.039 137.734 142.035C136.9 142.034 136.212 142.245 135.633 142.566C135.055 142.887 134.587 143.322 134.221 143.765C133.487 144.652 133.165 145.572 133.153 145.607L133.153 145.607C133.109 145.74 132.985 145.832 132.845 145.835C132.705 145.839 132.577 145.755 132.525 145.624C132.525 145.624 132.509 145.584 132.478 145.507C132.447 145.431 132.401 145.319 132.342 145.178C132.224 144.896 132.054 144.499 131.846 144.037C131.429 143.114 130.858 141.934 130.25 140.918C129.847 140.242 129.424 139.637 129.036 139.24C128.816 139.012 128.607 138.856 128.444 138.786C128.357 138.748 128.286 138.733 128.228 138.733L128.193 138.735C128.169 138.738 128.163 138.742 128.162 138.742L128.154 138.753C128.14 138.773 128.111 138.857 128.112 138.996C128.111 139.183 128.155 139.457 128.241 139.779C128.327 140.102 128.453 140.474 128.607 140.874C128.915 141.674 129.335 142.585 129.769 143.46C130.636 145.211 131.559 146.822 131.762 147.174C131.79 147.221 131.804 147.245 131.804 147.245C131.891 147.395 131.85 147.585 131.71 147.686C131.57 147.787 131.377 147.764 131.263 147.634C131.263 147.634 131.236 147.603 131.184 147.545C131.132 147.486 131.056 147.4 130.959 147.292C130.765 147.077 130.489 146.772 130.162 146.419C129.507 145.712 128.644 144.808 127.818 144.027C127.269 143.506 126.735 143.039 126.301 142.727C126.054 142.548 125.837 142.421 125.692 142.365C125.657 142.351 125.627 142.342 125.603 142.336C125.603 142.343 125.601 142.346 125.601 142.354C125.599 142.465 125.646 142.677 125.745 142.933C125.844 143.191 125.991 143.497 126.172 143.831C126.534 144.499 127.028 145.273 127.539 146.022C128.56 147.521 129.648 148.92 129.888 149.226C129.92 149.267 129.937 149.288 129.937 149.288C130.038 149.416 130.032 149.601 129.921 149.721C129.811 149.842 129.628 149.865 129.491 149.776C129.491 149.776 129.467 149.759 129.418 149.728C129.37 149.697 129.3 149.652 129.209 149.596C129.03 149.483 128.774 149.324 128.47 149.142C127.863 148.777 127.064 148.319 126.305 147.95C125.8 147.703 125.311 147.497 124.923 147.384C124.719 147.324 124.545 147.293 124.423 147.288C124.499 147.39 124.62 147.527 124.783 147.687C125.124 148.026 125.636 148.472 126.276 149.017C127.555 150.11 129.344 151.606 131.359 153.52C132.646 154.744 133.447 155.789 133.93 156.676C134.078 156.95 134.193 157.206 134.286 157.45C134.575 157.195 134.95 156.891 135.402 156.586C136.513 155.837 138.086 155.076 139.924 155.081C141.027 155.083 142.219 155.368 143.434 156.085C143.653 156.214 143.846 156.396 144.023 156.618C143.953 156.08 143.887 155.349 143.849 154.367C143.842 154.177 143.839 153.979 143.84 153.775Z" fill="white"/>
<path d="M134.286 157.45C134.193 157.206 134.078 156.95 133.929 156.676C133.447 155.789 132.646 154.743 131.359 153.52C129.344 151.605 127.555 150.11 126.276 149.018C125.636 148.472 125.124 148.026 124.783 147.687C124.62 147.526 124.499 147.391 124.423 147.288C124.545 147.293 124.719 147.324 124.923 147.384C125.311 147.497 125.8 147.704 126.305 147.95C127.063 148.319 127.862 148.778 128.47 149.142C128.774 149.324 129.03 149.483 129.21 149.596C129.299 149.653 129.37 149.698 129.418 149.729C129.467 149.759 129.491 149.776 129.491 149.776C129.628 149.865 129.811 149.842 129.921 149.721C130.032 149.6 130.038 149.416 129.937 149.288C129.936 149.288 129.92 149.267 129.888 149.226C129.648 148.92 128.56 147.521 127.539 146.022C127.028 145.273 126.533 144.498 126.172 143.831C125.991 143.498 125.844 143.191 125.745 142.933C125.645 142.677 125.599 142.464 125.601 142.354C125.601 142.345 125.602 142.343 125.603 142.336C125.627 142.342 125.657 142.351 125.692 142.365C125.837 142.421 126.054 142.549 126.301 142.727C126.735 143.04 127.269 143.506 127.818 144.027C128.644 144.808 129.506 145.712 130.161 146.419C130.489 146.772 130.765 147.077 130.959 147.292C131.055 147.4 131.131 147.486 131.184 147.545C131.236 147.604 131.263 147.635 131.263 147.635C131.377 147.765 131.57 147.787 131.71 147.686C131.85 147.585 131.891 147.394 131.804 147.245C131.804 147.245 131.79 147.221 131.762 147.174C131.559 146.822 130.636 145.211 129.769 143.46C129.335 142.584 128.915 141.674 128.607 140.874C128.453 140.474 128.327 140.102 128.241 139.78C128.155 139.458 128.111 139.183 128.112 138.996C128.111 138.857 128.14 138.773 128.154 138.753L128.162 138.742C128.163 138.742 128.169 138.738 128.193 138.735L128.228 138.734C128.286 138.734 128.357 138.748 128.444 138.786C128.606 138.856 128.816 139.013 129.036 139.24C129.424 139.637 129.846 140.241 130.25 140.918C130.858 141.934 131.429 143.114 131.845 144.037C132.054 144.499 132.224 144.897 132.342 145.178C132.401 145.319 132.447 145.431 132.478 145.508C132.509 145.584 132.524 145.624 132.524 145.624C132.576 145.755 132.704 145.839 132.845 145.835C132.985 145.832 133.109 145.74 133.153 145.607L133.153 145.607C133.164 145.572 133.487 144.652 134.221 143.765C134.587 143.322 135.054 142.887 135.633 142.566C136.212 142.245 136.9 142.034 137.734 142.036C138.841 142.039 140.215 142.424 141.902 143.488L141.931 143.504C142.028 143.552 142.097 143.597 142.141 143.632C142.128 143.639 142.114 143.646 142.097 143.654C141.991 143.704 141.819 143.755 141.612 143.788C141.404 143.822 141.159 143.842 140.898 143.841C140.696 143.84 140.483 143.827 140.269 143.802C140.198 143.793 140.127 143.789 140.055 143.788C139.678 143.788 139.286 143.893 138.901 144.072C138.324 144.342 137.762 144.783 137.332 145.35C136.904 145.916 136.609 146.616 136.606 147.388C136.603 148.007 136.795 148.666 137.233 149.306C137.521 149.728 137.855 150.042 138.218 150.25C138.58 150.457 138.968 150.557 139.349 150.557C140.106 150.559 140.82 150.187 141.342 149.598C141.865 149.009 142.204 148.192 142.207 147.273C142.208 146.875 142.144 146.458 142.007 146.035C142.002 145.976 141.999 145.921 141.999 145.871C141.999 145.636 142.057 145.495 142.112 145.428C142.141 145.393 142.168 145.372 142.202 145.356C142.235 145.341 142.277 145.331 142.334 145.331C142.449 145.33 142.626 145.38 142.835 145.516C143.043 145.651 143.281 145.867 143.52 146.172C143.698 146.395 143.838 146.777 143.92 147.268C144.003 147.757 144.033 148.351 144.03 148.994C144.026 150.517 143.844 152.309 143.839 153.776C143.839 153.979 143.842 154.177 143.849 154.367C143.887 155.348 143.953 156.081 144.023 156.618C144.037 156.636 144.052 156.651 144.066 156.67C144.253 156.916 144.424 157.21 144.583 157.55C144.659 157.71 144.732 157.883 144.802 158.064C144.837 158.036 144.867 158.002 144.889 157.961C144.936 157.875 144.942 157.773 144.907 157.682C144.889 157.63 144.612 156.798 144.518 154.341C144.511 154.162 144.508 153.974 144.509 153.778C144.512 152.361 144.695 150.566 144.7 148.996C144.702 148.331 144.673 147.706 144.58 147.156C144.485 146.606 144.332 146.127 144.047 145.759C143.77 145.407 143.485 145.139 143.199 144.954C142.913 144.77 142.624 144.664 142.336 144.662C142.194 144.661 142.053 144.688 141.924 144.747C141.729 144.835 141.57 144.996 141.473 145.192C141.375 145.387 141.331 145.615 141.33 145.869C141.329 145.952 141.334 146.038 141.343 146.127C141.346 146.151 141.351 146.175 141.359 146.198C141.484 146.571 141.539 146.931 141.538 147.271C141.536 148.025 141.257 148.686 140.841 149.154C140.425 149.624 139.881 149.891 139.351 149.888C139.083 149.887 138.815 149.82 138.55 149.669C138.287 149.518 138.026 149.28 137.786 148.929C137.417 148.386 137.275 147.872 137.276 147.39C137.277 146.99 137.379 146.609 137.554 146.256C137.816 145.728 138.244 145.269 138.712 144.949C139.177 144.628 139.682 144.454 140.052 144.457C140.1 144.458 140.145 144.461 140.188 144.466C140.43 144.495 140.668 144.509 140.896 144.51C141.376 144.511 141.81 144.456 142.153 144.347C142.325 144.292 142.476 144.226 142.607 144.125C142.673 144.074 142.733 144.013 142.782 143.933C142.831 143.854 142.865 143.752 142.865 143.648C142.865 143.557 142.841 143.469 142.804 143.395C142.748 143.282 142.667 143.195 142.572 143.118C142.482 143.046 142.377 142.981 142.254 142.919C140.494 141.809 138.998 141.371 137.736 141.367C136.771 141.363 135.95 141.617 135.276 141.999C134.264 142.572 133.581 143.42 133.146 144.119C133.028 144.31 132.929 144.49 132.845 144.651C132.553 143.966 132.072 142.885 131.505 141.797C131.036 140.9 130.511 139.999 129.974 139.306C129.705 138.959 129.433 138.663 129.15 138.442C129.009 138.331 128.864 138.24 128.712 138.173C128.56 138.107 128.398 138.065 128.23 138.064C128.195 138.064 128.159 138.066 128.124 138.07C128.016 138.081 127.907 138.114 127.811 138.172C127.667 138.261 127.568 138.401 127.515 138.543C127.462 138.687 127.444 138.836 127.443 138.994C127.443 139.296 127.508 139.638 127.614 140.023C127.8 140.695 128.118 141.494 128.491 142.325C128.92 143.281 129.422 144.277 129.879 145.142C129.668 144.922 129.449 144.696 129.224 144.469C128.55 143.787 127.836 143.104 127.205 142.582C126.889 142.322 126.594 142.102 126.325 141.939C126.191 141.858 126.062 141.791 125.936 141.742C125.81 141.693 125.686 141.658 125.547 141.657C125.451 141.656 125.343 141.676 125.242 141.732C125.142 141.788 125.061 141.879 125.013 141.976C124.952 142.099 124.933 142.227 124.932 142.352C124.933 142.625 125.017 142.909 125.144 143.232C125.368 143.795 125.744 144.468 126.185 145.176C126.858 146.255 127.682 147.408 128.328 148.281C128.133 148.167 127.928 148.05 127.715 147.933C127.136 147.611 126.51 147.289 125.934 147.044C125.645 146.921 125.368 146.817 125.111 146.741C124.853 146.667 124.616 146.619 124.393 146.618C124.329 146.617 124.266 146.621 124.203 146.631C124.086 146.65 123.97 146.68 123.857 146.765C123.801 146.808 123.748 146.867 123.714 146.938C123.679 147.009 123.664 147.087 123.664 147.156C123.664 147.265 123.694 147.353 123.73 147.434C123.799 147.585 123.901 147.719 124.035 147.872C124.269 148.138 124.605 148.451 125.034 148.829C126.318 149.961 128.439 151.669 130.898 154.005C132.148 155.193 132.903 156.188 133.342 156.996C133.536 157.353 133.665 157.671 133.753 157.955C133.864 157.84 134.045 157.662 134.286 157.45Z" fill="black"/>
<path d="M159.265 233.232C164.001 231.888 167.85 229.515 170.764 227.144C175.187 223.546 177.471 219.954 177.485 219.935C177.584 219.779 180.869 166.018 180.783 165.855C180.702 165.698 180.513 165.635 180.354 165.705C180.346 165.708 180.339 165.709 180.332 165.713C177.076 167.418 173.832 170.635 170.767 174.499C166.174 180.296 161.999 187.557 158.966 193.373C157.023 197.098 154.734 203.66 153.926 205.432C153.315 202.749 151.358 194.292 150.563 187.389C149.886 181.498 148.746 175.445 147.597 168.327C147.118 165.354 146.157 161.698 145.671 159.671C145.485 158.898 145.281 158.216 145.053 157.636C144.982 157.455 144.908 157.283 144.833 157.122C144.673 156.783 144.502 156.489 144.313 156.243C144.299 156.225 144.284 156.209 144.27 156.192C144.092 155.971 143.899 155.789 143.68 155.66C142.463 154.946 141.269 154.666 140.167 154.666C138.328 154.667 136.758 155.432 135.649 156.184C135.198 156.491 134.823 156.795 134.535 157.051C134.295 157.264 134.115 157.442 134.003 157.558C133.919 157.646 133.873 157.698 133.869 157.702C133.837 157.738 133.813 157.784 133.799 157.831C133.798 157.836 132.964 165.347 132.111 175.559C131.295 185.338 131.915 198.272 133.033 209.124C133.657 215.173 133.654 220.763 135.266 225.069C136.073 227.221 137.13 229.063 138.491 230.492C139.852 231.92 141.521 232.93 143.518 233.408C146.233 234.059 148.797 234.345 151.205 234.345C153.854 234.346 156.313 234.001 158.576 233.418C158.808 233.358 159.037 233.296 159.265 233.232Z" fill="black"/>
<path d="M178.893 177.487C178.845 177.404 178.834 177.306 178.863 177.215L179.922 173.958L180.38 166.459L180.381 166.446C177.422 168.044 174.382 171.006 171.495 174.599C168.547 178.264 165.712 182.579 163.277 186.752C158.406 195.098 153.923 206.919 153.766 206.883C153.608 206.847 152.283 200.558 152.016 199.216C151.437 196.317 150.564 192.538 150.118 188.186C149.247 179.699 147.265 169.613 146.055 163.396C145.646 161.292 145.157 159.457 144.716 158.165C144.466 157.427 143.82 156.854 143.537 156.488C143.386 156.292 143.237 156.156 143.097 156.074C141.976 155.419 141.463 155.194 140.473 155.193C138.851 155.191 137.194 155.804 136.156 156.501C135.264 157.098 134.342 157.88 134.31 157.996C134.25 158.214 133.908 160.896 133.645 162.852C133.249 165.773 133.221 168.792 132.767 173.978C131.877 184.155 132.252 195.864 133.621 209.165C134.083 213.667 133.969 217.913 134.807 221.505C135.644 225.099 136.97 228.055 138.894 230.071C140.177 231.415 141.721 232.349 143.592 232.798C146.257 233.437 148.768 233.717 151.124 233.717C159.361 233.719 165.714 230.307 170.055 226.831C174.394 223.357 176.706 219.821 176.833 219.625L176.838 219.617C176.906 219.51 177.788 218.284 177.905 218.292L180.103 179.856L178.893 177.487Z" fill="white"/>
<path d="M203.2 265.993C203.235 264.898 203.272 263.797 203.31 262.691C198.86 262.94 194.042 263.067 188.87 263.066C187.72 263.066 186.551 263.059 185.366 263.046C185.329 263.976 185.292 264.892 185.255 265.792C190.572 265.892 196.921 265.98 203.2 265.993Z" fill="black"/>
<path d="M203.179 266.662C203.186 266.439 203.193 266.216 203.2 265.993C196.921 265.981 190.572 265.892 185.255 265.792C185.246 266.017 185.237 266.238 185.228 266.461C187.74 266.509 190.482 266.553 193.34 266.588C196.531 266.628 199.864 266.655 203.179 266.662Z" fill="black"/>
<path d="M203.334 262.018C203.647 253.097 204.051 243.818 204.498 234.664C204.45 232.874 203.804 218.801 204.055 218.691C204.017 216.918 204 214.958 204 212.861C204.003 200.242 204.642 182.684 205.112 171.445C204.8 171.615 204.482 171.766 204.158 171.896C202.77 172.452 201.286 172.655 199.849 172.655C197.758 172.654 195.764 172.224 194.287 171.796C193.392 171.536 192.69 171.278 192.272 171.112C192.272 172.139 192.276 173.113 192.284 173.947C192.294 174.983 192.31 175.809 192.333 176.249C192.335 176.291 192.336 176.337 192.336 176.391C192.336 176.701 192.306 177.274 192.25 178.084C192.194 178.892 192.113 179.933 192.01 181.158C191.806 183.607 191.517 186.794 191.178 190.326C190.502 197.39 189.629 205.837 188.844 212.536C188.319 217.004 187.835 220.689 187.469 222.686C187.371 223.22 187.283 223.632 187.199 223.921C187.155 224.072 187.116 224.186 187.059 224.291C187.047 224.311 187.035 224.33 187.021 224.351C186.525 235.309 186 247.439 185.469 260.509C185.444 261.139 185.419 261.76 185.394 262.377C186.569 262.39 187.729 262.397 188.87 262.397C194.056 262.398 198.88 262.268 203.334 262.018Z" fill="#61C3DA"/>
<path d="M203.31 262.691C203.318 262.467 203.326 262.243 203.334 262.019C198.88 262.268 194.055 262.398 188.87 262.397C187.729 262.397 186.569 262.389 185.394 262.376C185.385 262.6 185.375 262.824 185.366 263.046C186.551 263.059 187.72 263.066 188.87 263.066C194.042 263.068 198.86 262.94 203.31 262.691Z" fill="black"/>
<path d="M199.849 172.655C201.286 172.655 202.769 172.452 204.158 171.896C204.482 171.766 204.8 171.615 205.111 171.444C205.122 171.175 205.134 170.91 205.145 170.648C204.748 170.894 204.335 171.104 203.908 171.275C202.622 171.791 201.223 171.986 199.849 171.986C197.85 171.986 195.91 171.57 194.474 171.153C193.756 170.945 193.163 170.736 192.752 170.58C192.566 170.51 192.42 170.452 192.313 170.407L192.311 161.568C192.311 161.568 192.309 161.859 192.305 162.36C192.302 162.861 192.297 163.572 192.292 164.413C192.282 166.093 192.271 168.292 192.271 170.359C192.271 170.613 192.271 170.864 192.271 171.112C192.69 171.278 193.392 171.536 194.287 171.796C195.764 172.224 197.758 172.654 199.849 172.655Z" fill="black"/>
<path d="M221.482 216.72C226.938 216.722 231.896 217.001 233.798 217.122C232.425 215.573 228.767 211.334 226.172 207.317C225.088 205.637 224.189 203.999 223.717 202.586C223.658 202.41 223.753 202.221 223.928 202.162C223.96 202.152 223.992 202.148 224.023 202.147L222.808 164.923C222.766 164.907 222.723 164.889 222.682 164.874C219.98 163.898 217.02 163.203 214.564 162.731C214.729 163.61 215.098 165.59 215.5 167.847C216.044 170.898 216.648 174.446 216.892 176.469C216.961 177.049 217.002 177.499 217.003 177.803C217.003 177.865 217.001 177.922 216.996 177.975C216.992 178.029 216.985 178.078 216.97 178.134C216.932 178.275 216.841 178.58 216.706 179.02C216.572 179.458 216.396 180.027 216.193 180.68C215.787 181.985 215.273 183.627 214.767 185.236C213.89 188.027 213.04 190.718 212.83 191.383C213.045 191.69 213.603 192.49 214.242 193.437C215.063 194.65 216.011 196.094 216.543 197.051C216.695 197.326 216.814 197.56 216.89 197.753C216.93 197.858 216.96 197.947 216.974 198.054C216.976 198.078 216.977 198.099 216.977 198.119C216.977 198.183 216.97 198.242 216.959 198.31C216.947 198.377 216.932 198.451 216.912 198.536C216.873 198.705 216.817 198.914 216.743 199.163C216.596 199.663 216.38 200.326 216.101 201.139C215.542 202.765 214.729 204.985 213.708 207.651C212.638 210.441 211.338 213.724 209.863 217.315C210.25 217.265 210.644 217.219 211.046 217.176C214.284 216.833 217.985 216.72 221.482 216.72Z" fill="white"/>
<path d="M203.346 293.609C203.344 299.711 203.451 305.112 203.696 309.514C203.932 313.771 204.3 317.096 204.812 319.197C208.664 319.829 212.173 320.114 215.358 320.115C223.192 320.116 229.075 318.415 233.371 316.009C237.666 313.603 240.377 310.49 241.856 307.657C242.843 305.77 243.278 304.005 243.277 302.682C243.277 302.592 243.275 302.505 243.271 302.419C243.109 298.837 241.443 266.746 239.999 237.465C238.171 237.574 236.301 237.624 234.419 237.624C222.26 237.62 209.651 235.584 205.162 234.784C204.143 255.663 203.35 277.179 203.346 293.609Z" fill="white"/>
<path d="M214.473 162.249C214.473 162.249 214.506 162.423 214.563 162.731C217.02 163.203 219.98 163.898 222.682 164.874C222.723 164.889 222.766 164.907 222.807 164.923L222.807 164.91C222.776 164.902 222.743 164.891 222.712 164.883C222.533 164.837 222.425 164.655 222.471 164.476C222.516 164.297 222.699 164.189 222.878 164.235C222.884 164.236 222.891 164.238 222.897 164.24C219.982 163.189 216.799 162.464 214.242 161.99C214.254 161.995 214.268 162 214.28 162.006C214.38 162.05 214.452 162.141 214.473 162.249Z" fill="black"/>
<path d="M240 237.464C241.444 266.745 243.11 298.838 243.272 302.419C243.275 302.504 243.277 302.592 243.277 302.681C243.278 304.005 242.843 305.77 241.856 307.657C240.377 310.489 237.666 313.603 233.371 316.008C229.076 318.414 223.192 320.116 215.357 320.115C212.173 320.114 208.664 319.829 204.812 319.197C204.3 317.096 203.932 313.771 203.696 309.514C203.452 305.112 203.344 299.711 203.346 293.609C203.35 277.178 204.143 255.663 205.162 234.784C204.916 234.74 204.694 234.7 204.498 234.664C204.051 243.819 203.647 253.097 203.334 262.018C203.326 262.243 203.318 262.467 203.311 262.691C203.272 263.797 203.235 264.898 203.2 265.993C203.193 266.216 203.185 266.439 203.178 266.662C202.867 276.407 202.678 285.608 202.676 293.608C202.675 299.719 202.782 305.13 203.028 309.551C203.274 313.974 203.656 317.401 204.216 319.577C204.249 319.705 204.354 319.802 204.485 319.823C208.456 320.486 212.072 320.783 215.357 320.784C225.931 320.788 233.081 317.717 237.582 313.915C238.69 312.98 239.636 312.002 240.434 311.015C240.643 310.757 240.843 310.498 241.031 310.239C241.588 309.476 242.06 308.713 242.449 307.966C243.476 305.998 243.945 304.147 243.946 302.682C243.947 302.582 243.945 302.485 243.94 302.389C243.798 299.25 242.507 274.316 241.219 248.524C241.034 244.821 240.849 241.101 240.668 237.424C240.447 237.439 240.223 237.451 240 237.464Z" fill="black"/>
<path d="M186.15 224.029C186.042 223.802 185.926 223.494 185.795 223.104C185.534 222.328 185.22 221.232 184.871 219.919C184.174 217.295 183.338 213.802 182.533 210.311C180.924 203.327 179.438 196.347 179.438 196.346C179.42 196.259 179.437 196.166 179.487 196.091L185.013 187.78L179.711 178.706L177.222 219.423C177.277 219.426 177.332 219.441 177.382 219.473C177.537 219.572 177.584 219.779 177.485 219.935C177.471 219.954 175.187 223.546 170.764 227.144C167.85 229.514 164.001 231.888 159.265 233.232C157.947 247.551 156.733 262.804 155.881 275.612C155.123 287.008 154.652 296.471 154.651 301.599C154.65 303.189 154.697 304.367 154.788 305.027C154.939 306.119 155.443 307.144 156.234 308.11C157.024 309.077 158.1 309.979 159.372 310.81C161.916 312.473 165.236 313.846 168.57 314.936C174.72 316.948 180.916 318 182.456 318.245C182.523 316.608 182.88 307.807 184.801 260.482C185.33 247.427 185.855 235.307 186.351 224.358C186.34 224.346 186.329 224.334 186.319 224.321C186.256 224.237 186.206 224.143 186.15 224.029Z" fill="white"/>
<path d="M180.004 173.917L182.844 165.177C182.034 165.541 181.235 165.952 180.462 166.418L180.004 173.917Z" fill="white"/>
<path d="M180.784 165.855C180.869 166.019 180.805 166.221 180.642 166.307C180.582 166.338 180.522 166.373 180.463 166.405L180.462 166.418C181.234 165.952 182.034 165.54 182.844 165.177L183.121 164.325C182.183 164.72 181.253 165.177 180.353 165.705C180.513 165.635 180.702 165.698 180.784 165.855Z" fill="black"/>
<path d="M156.619 309.502C158.165 310.985 160.28 312.258 162.644 313.357C166.864 315.316 171.878 316.713 175.843 317.626C179.808 318.538 182.721 318.963 182.727 318.964C182.821 318.977 182.917 318.95 182.989 318.89C183.062 318.83 183.106 318.74 183.11 318.646C183.11 318.646 183.11 318.643 185.228 266.461C185.237 266.238 185.246 266.017 185.255 265.792C185.292 264.892 185.329 263.976 185.366 263.046C185.375 262.824 185.385 262.6 185.394 262.377C185.419 261.76 185.444 261.139 185.47 260.509C186 247.439 186.525 235.309 187.021 224.351C186.996 224.388 186.963 224.427 186.903 224.47C186.856 224.502 186.782 224.535 186.693 224.535L186.69 224.535C186.573 224.532 186.493 224.485 186.44 224.446C186.403 224.417 186.376 224.388 186.35 224.358C185.855 235.307 185.331 247.427 184.801 260.482C182.88 307.807 182.523 316.608 182.456 318.245C180.915 318.001 174.72 316.948 168.57 314.936C165.236 313.846 161.916 312.473 159.372 310.81C158.101 309.979 157.024 309.077 156.234 308.111C155.443 307.144 154.94 306.119 154.789 305.027C154.697 304.367 154.651 303.19 154.652 301.599C154.653 296.471 155.123 287.008 155.881 275.612C156.733 262.805 157.948 247.551 159.266 233.232C159.038 233.296 158.808 233.358 158.576 233.418C158.081 238.8 157.602 244.313 157.15 249.774C156.244 260.747 155.452 271.517 154.887 280.636C154.322 289.757 153.984 297.221 153.982 301.599C153.982 303.205 154.026 304.391 154.126 305.118C154.302 306.398 154.904 307.571 155.799 308.635C155.859 308.706 155.923 308.776 155.986 308.846C156.184 309.069 156.395 309.288 156.619 309.502Z" fill="black"/>
<path d="M206.617 217.88C207.381 217.703 208.214 217.551 209.096 217.422C210.198 214.743 211.206 212.231 212.094 209.963C214.031 205.017 215.409 201.213 215.997 199.316C216.165 198.777 216.268 198.386 216.298 198.201C216.305 198.158 216.307 198.13 216.307 198.123C216.305 198.111 216.296 198.075 216.277 198.025C216.255 197.964 216.22 197.885 216.175 197.793C216.086 197.607 215.958 197.37 215.801 197.101C215.488 196.562 215.065 195.894 214.621 195.214C213.732 193.853 212.753 192.442 212.362 191.883C212.251 191.723 212.187 191.633 212.187 191.633C212.127 191.548 212.11 191.439 212.141 191.339C212.141 191.339 212.188 191.192 212.272 190.927C212.355 190.663 212.476 190.281 212.623 189.814C212.918 188.88 213.32 187.603 213.753 186.23C214.617 183.484 215.598 180.354 216.066 178.824C216.199 178.389 216.292 178.08 216.324 177.959L216.325 177.952L216.329 177.92C216.332 177.892 216.333 177.852 216.333 177.803C216.333 177.59 216.304 177.222 216.251 176.756C216.198 176.288 216.121 175.717 216.028 175.075C215.84 173.793 215.583 172.232 215.312 170.65C214.768 167.486 214.165 164.236 213.923 162.949C213.892 162.779 213.866 162.645 213.848 162.548C211.505 161.52 208.894 160.784 206.677 160.785C206.535 160.785 206.396 160.789 206.258 160.795C206.257 160.818 206.256 160.837 206.254 160.863C206.243 161.105 206.226 161.463 206.204 161.925C206.16 162.85 206.098 164.194 206.023 165.868C205.873 169.218 205.673 173.892 205.473 179.19C205.073 189.786 204.672 202.88 204.67 212.862C204.669 214.857 204.684 216.726 204.719 218.428C205.29 218.222 205.925 218.041 206.617 217.88Z" fill="white"/>
<path d="M205.913 160.144C205.745 160.157 205.612 160.293 205.604 160.461C205.604 160.461 205.604 160.471 205.603 160.478C205.592 160.711 205.396 164.704 205.145 170.649C205.134 170.91 205.122 171.176 205.111 171.445C204.641 182.684 204.003 200.242 204 212.861C204 214.958 204.016 216.918 204.055 218.691C204.264 218.599 204.487 218.511 204.719 218.428C204.684 216.726 204.669 214.857 204.67 212.861C204.672 202.88 205.073 189.785 205.473 179.189C205.673 173.891 205.873 169.218 206.023 165.868C206.098 164.194 206.16 162.85 206.204 161.925C206.226 161.463 206.243 161.105 206.255 160.863C206.256 160.837 206.257 160.818 206.258 160.795C206.396 160.789 206.535 160.785 206.677 160.785C208.894 160.784 211.505 161.52 213.848 162.548C213.866 162.644 213.891 162.779 213.923 162.949C214.165 164.236 214.768 167.485 215.311 170.65C215.583 172.232 215.839 173.793 216.027 175.075C216.121 175.717 216.198 176.288 216.251 176.756C216.304 177.222 216.333 177.589 216.333 177.802C216.333 177.851 216.331 177.892 216.329 177.92L216.325 177.952L216.324 177.959C216.292 178.08 216.199 178.389 216.066 178.824C215.598 180.353 214.616 183.484 213.753 186.23C213.32 187.603 212.918 188.88 212.623 189.814C212.476 190.282 212.355 190.663 212.272 190.927C212.188 191.192 212.141 191.339 212.141 191.339C212.11 191.438 212.127 191.548 212.187 191.633C212.187 191.633 212.25 191.723 212.362 191.883C212.752 192.441 213.731 193.853 214.621 195.214C215.065 195.894 215.488 196.562 215.801 197.101C215.957 197.37 216.086 197.607 216.175 197.792C216.22 197.885 216.255 197.964 216.277 198.025C216.296 198.074 216.305 198.111 216.307 198.123C216.307 198.13 216.305 198.158 216.298 198.201C216.268 198.386 216.165 198.777 215.997 199.316C215.409 201.213 214.031 205.017 212.094 209.963C211.206 212.231 210.198 214.743 209.096 217.421C209.348 217.384 209.603 217.348 209.863 217.314C211.337 213.723 212.638 210.442 213.707 207.651C214.729 204.985 215.542 202.764 216.1 201.139C216.379 200.326 216.595 199.662 216.742 199.163C216.816 198.913 216.873 198.705 216.912 198.536C216.932 198.451 216.947 198.377 216.958 198.309C216.969 198.242 216.976 198.183 216.976 198.119C216.976 198.098 216.976 198.078 216.973 198.054C216.96 197.947 216.93 197.858 216.89 197.753C216.813 197.56 216.695 197.326 216.542 197.052C216.01 196.094 215.062 194.651 214.242 193.437C213.602 192.491 213.045 191.69 212.829 191.383C213.04 190.718 213.89 188.026 214.767 185.235C215.272 183.626 215.787 181.985 216.192 180.68C216.396 180.027 216.572 179.459 216.706 179.02C216.84 178.581 216.932 178.275 216.97 178.134C216.985 178.078 216.991 178.028 216.996 177.975C217 177.921 217.002 177.865 217.002 177.803C217.002 177.499 216.961 177.049 216.891 176.469C216.648 174.446 216.044 170.898 215.5 167.847C215.097 165.59 214.728 163.61 214.563 162.731C214.505 162.423 214.472 162.249 214.472 162.249C214.452 162.142 214.38 162.051 214.28 162.006C214.267 162.001 214.254 161.995 214.242 161.989C211.807 160.909 209.079 160.118 206.677 160.116C206.534 160.116 206.392 160.119 206.251 160.125C206.137 160.13 206.024 160.136 205.913 160.144Z" fill="black"/>
<path d="M183.752 164.549L179.628 177.238L185.695 187.623C185.76 187.733 185.756 187.87 185.685 187.977L180.122 196.345C180.142 196.436 180.171 196.57 180.208 196.745C180.283 197.094 180.392 197.601 180.529 198.235C180.803 199.504 181.191 201.283 181.642 203.32C182.544 207.393 183.702 212.5 184.722 216.631C185.402 219.383 186.023 221.707 186.46 222.982C186.521 223.16 186.578 223.316 186.631 223.45C186.691 223.194 186.759 222.856 186.832 222.452C187.024 221.381 187.251 219.833 187.5 217.949C187.998 214.182 188.581 209.073 189.152 203.721C190.292 193.02 191.38 181.342 191.619 177.483C191.651 176.97 191.667 176.594 191.667 176.391C191.667 176.346 191.666 176.309 191.665 176.285C191.64 175.82 191.625 174.994 191.615 173.953C191.605 172.913 191.602 171.662 191.602 170.359C191.603 166.873 191.631 163.02 191.64 161.891C191.534 161.888 191.429 161.882 191.324 161.882C190.049 161.882 188.842 162.091 187.596 162.536C186.379 162.971 185.125 163.635 183.752 164.549Z" fill="white"/>
<path d="M182.844 165.177L180.004 173.917L178.945 177.174C178.916 177.265 178.927 177.363 178.975 177.446L179.711 178.706L185.012 187.78L179.487 196.091C179.437 196.166 179.42 196.259 179.438 196.346C179.439 196.347 180.924 203.327 182.533 210.311C183.338 213.803 184.174 217.295 184.871 219.92C185.22 221.233 185.534 222.328 185.795 223.105C185.926 223.494 186.042 223.802 186.15 224.029C186.205 224.144 186.256 224.237 186.319 224.321C186.329 224.334 186.34 224.346 186.35 224.359C186.375 224.388 186.403 224.417 186.44 224.446C186.492 224.485 186.573 224.532 186.69 224.534L186.693 224.534C186.782 224.535 186.856 224.502 186.903 224.47C186.963 224.427 186.996 224.388 187.021 224.351C187.035 224.33 187.047 224.311 187.059 224.292C187.116 224.186 187.155 224.072 187.199 223.921C187.283 223.632 187.371 223.22 187.469 222.686C187.835 220.689 188.319 217.003 188.843 212.536C189.629 205.837 190.502 197.39 191.178 190.325C191.516 186.794 191.806 183.607 192.01 181.158C192.113 179.933 192.194 178.892 192.25 178.083C192.305 177.273 192.336 176.702 192.337 176.391C192.336 176.338 192.335 176.291 192.333 176.249C192.309 175.809 192.294 174.983 192.284 173.947C192.276 173.113 192.273 172.139 192.272 171.113C192.272 170.864 192.271 170.613 192.271 170.36C192.272 168.292 192.282 166.094 192.292 164.413C192.297 163.572 192.301 162.861 192.305 162.36C192.309 161.859 192.311 161.569 192.311 161.568C192.313 161.39 192.173 161.241 191.995 161.231C191.877 161.225 191.76 161.225 191.642 161.222C191.536 161.219 191.43 161.213 191.325 161.213C189.976 161.212 188.683 161.437 187.371 161.906C186.058 162.375 184.726 163.087 183.283 164.057C183.221 164.098 183.174 164.161 183.152 164.231L183.121 164.326L182.844 165.177ZM191.324 161.882C191.429 161.882 191.534 161.888 191.64 161.891C191.631 163.02 191.603 166.873 191.602 170.36C191.602 171.662 191.605 172.914 191.615 173.953C191.625 174.994 191.64 175.821 191.665 176.285C191.666 176.309 191.667 176.345 191.667 176.391C191.667 176.594 191.651 176.97 191.619 177.483C191.38 181.342 190.292 193.02 189.152 203.721C188.581 209.072 187.997 214.181 187.5 217.949C187.251 219.833 187.024 221.381 186.832 222.452C186.759 222.857 186.691 223.193 186.631 223.45C186.578 223.316 186.521 223.16 186.46 222.982C186.023 221.706 185.402 219.383 184.722 216.63C183.702 212.5 182.544 207.393 181.642 203.319C181.191 201.283 180.804 199.505 180.529 198.236C180.392 197.601 180.283 197.094 180.208 196.745C180.17 196.57 180.142 196.435 180.122 196.344L185.685 187.977C185.756 187.87 185.76 187.734 185.696 187.623L179.628 177.238L183.752 164.55C185.125 163.635 186.379 162.971 187.596 162.537C188.842 162.092 190.05 161.882 191.324 161.882Z" fill="black"/>
<path d="M193.674 218.325C192.261 218.535 190.926 218.888 189.903 219.438C189.221 219.803 188.681 220.252 188.328 220.793C187.605 221.903 186.949 223.068 186.478 224.176C186.007 225.283 185.724 226.335 185.725 227.198C185.725 227.729 185.829 228.184 186.045 228.556C186.261 228.928 186.589 229.23 187.093 229.456C187.428 229.605 187.841 229.717 188.342 229.778C191.122 230.117 195.75 230.557 199.458 230.558C199.572 230.558 199.681 230.557 199.793 230.556C199.656 229.995 199.462 229.15 199.268 228.138C198.912 226.286 198.554 223.883 198.554 221.654C198.555 220.539 198.644 219.467 198.875 218.523C198.913 218.365 198.957 218.213 199.004 218.063C198.656 218.053 198.292 218.047 197.915 218.047C196.577 218.047 195.087 218.115 193.674 218.325Z" fill="white"/>
<path d="M192.144 217.933C191.213 218.15 190.34 218.445 189.587 218.848C188.835 219.251 188.199 219.766 187.767 220.428C187.028 221.563 186.355 222.757 185.862 223.914C185.372 225.072 185.057 226.192 185.056 227.198C185.056 227.609 185.109 228.003 185.231 228.368C185.411 228.916 185.753 229.398 186.26 229.753C186.768 230.109 187.43 230.341 188.261 230.443C191.061 230.784 195.699 231.226 199.458 231.227C199.628 231.227 199.797 231.227 199.963 231.225C199.934 231.118 199.874 230.886 199.793 230.556C199.681 230.557 199.572 230.558 199.458 230.558C195.75 230.558 191.122 230.117 188.342 229.778C187.841 229.717 187.427 229.605 187.092 229.456C186.589 229.231 186.261 228.928 186.044 228.557C185.829 228.184 185.725 227.729 185.725 227.198C185.724 226.334 186.007 225.283 186.478 224.176C186.949 223.068 187.604 221.903 188.328 220.793C188.68 220.252 189.22 219.803 189.903 219.438C190.926 218.888 192.261 218.535 193.674 218.326C195.087 218.115 196.577 218.047 197.915 218.047C198.292 218.047 198.656 218.053 199.004 218.063C199.076 217.832 199.158 217.611 199.252 217.4C198.831 217.386 198.382 217.378 197.915 217.378C196.1 217.378 194.005 217.5 192.144 217.933Z" fill="black"/>
<path d="M222.502 164.509C222.438 164.682 222.699 201.244 222.739 201.425C223.064 202.879 223.79 204.601 224.695 206.383C226.865 210.646 230.068 215.238 231.274 216.92C229.396 216.604 223.676 216.95 218.249 216.388C214.77 216.029 211.077 215.761 207.822 215.77C207.417 215.771 207.02 215.776 206.63 215.786C206.368 215.793 206.111 215.802 205.856 215.813C204.965 215.852 204.121 215.917 203.343 216.015C202.639 216.104 201.989 216.22 201.399 216.365C201.16 216.425 200.93 216.488 200.712 216.559C200.451 216.643 200.205 216.734 199.977 216.835C199.952 216.846 199.923 216.864 199.901 216.881C199.526 217.187 199.217 217.578 198.959 218.029C198.844 218.229 198.74 218.44 198.645 218.662C198.582 218.807 198.523 218.954 198.468 219.107C198.142 220.023 197.943 221.08 197.828 222.189C197.599 224.406 197.708 226.833 197.872 228.712C197.962 229.739 198.068 230.599 198.147 231.17C198.193 231.507 198.229 231.744 198.247 231.853C198.254 231.898 198.258 231.923 198.258 231.924C198.279 232.049 198.368 232.151 198.49 232.189C198.492 232.189 198.852 232.301 199.512 232.493C199.703 232.549 199.92 232.611 200.161 232.68C204.543 233.937 216.877 237.257 228.972 238.51C230.844 238.703 232.708 238.845 234.539 238.924C234.762 238.934 234.986 238.945 235.208 238.953C239.711 239.109 243.976 238.855 247.552 237.953C250.151 237.296 252.391 236.295 254.088 234.837C255.785 233.38 256.925 231.459 257.3 229.03C257.36 228.642 257.411 228.247 257.452 227.845C257.983 222.705 257.019 216.481 255.088 209.947C252.189 200.148 247.106 189.655 241.543 181.156C238.76 176.906 235.858 173.156 233.042 170.239C230.231 167.33 225.418 165.234 222.95 164.318C222.944 164.316 225.033 164.325 225.027 164.323C224.853 164.259 222.566 164.335 222.502 164.509Z" fill="black"/>
<path d="M222.564 199.653C222.885 201.093 223.883 203.85 224.787 205.61C226.945 209.808 230.984 215.561 232.178 217.226C230.043 217.084 223.576 217.11 218.165 216.699C214.713 216.437 210.882 216.055 207.659 216.064C207.259 216.065 205.942 216.098 205.69 216.109C204.808 216.147 203.996 216.203 203.226 216.299C202.798 216.354 201.287 216.313 200.056 217.14C199.282 217.656 198.938 218.492 198.917 218.55C198.594 219.457 198.373 220.509 198.259 221.607C198.033 223.802 198.127 226.188 198.289 228.048C198.378 229.064 198.46 229.921 198.538 230.487C198.558 230.631 198.671 231.009 198.869 231.237C199.128 231.537 200.09 231.884 200.328 231.952C204.667 233.196 216.831 236.486 228.804 237.726C230.657 237.917 232.504 238.058 234.316 238.136C234.536 238.145 234.758 238.157 234.978 238.164C239.436 238.319 243.62 238.064 247.16 237.171C249.734 236.521 251.952 235.529 253.631 234.086C255.311 232.644 256.322 230.794 256.693 228.39C256.753 228.005 256.804 227.614 256.845 227.216C257.37 222.128 256.098 215.781 254.186 209.313C251.316 199.612 246.481 189.584 240.994 181.202C238.209 176.984 235.36 173.304 232.604 170.413C229.591 167.322 224.84 165.468 222.425 164.474C222.419 164.471 222.511 198.87 222.528 199.607C222.528 199.621 222.564 199.652 222.564 199.653Z" fill="white"/>
</g>
</g>
</g>
<defs>
<clipPath id="clip0_208_5951">
<rect width="419" height="419" fill="white"/>
</clipPath>
</defs>
</svg>
